<svg xmlns="http://www.w3.org/2000/svg" xmlns:svg="http://www.w3.org/2000/svg" xmlns:xlink="http://www.w3.org/1999/xlink" id="svg3858" width="48" height="48" version="1.1"><metadata id="metadata115"/><defs id="defs3860"><linearGradient id="linearGradient8589"><stop id="stop8591" style="stop-color:#fefefe;stop-opacity:1" offset="0"/><stop id="stop8593" style="stop-color:#cbcbcb;stop-opacity:1" offset="1"/></linearGradient><linearGradient id="linearGradient5573" x1="32.892" x2="36.358" y1="8.059" y2="5.457" gradientTransform="matrix(0.9976985,0,0,1.0642049,79.92444,11.281007)" gradientUnits="userSpaceOnUse" xlink:href="#linearGradient8589"/><linearGradient id="linearGradient3931"><stop id="stop3933" style="stop-color:#8d8f8a;stop-opacity:1" offset="0"/><stop id="stop3935" style="stop-color:#cbcbcb;stop-opacity:1" offset="1"/></linearGradient><linearGradient id="linearGradient5571" x1="-51.786" x2="-51.786" y1="50.786" y2="2.906" gradientTransform="matrix(0.8074968,0,0,0.9358511,139.17087,6.3057874)" gradientUnits="userSpaceOnUse" xlink:href="#linearGradient3931"/><linearGradient id="linearGradient3600"><stop id="stop3602" style="stop-color:#f4f4f4;stop-opacity:1" offset="0"/><stop id="stop3604" style="stop-color:#dbdbdb;stop-opacity:1" offset="1"/></linearGradient><linearGradient id="linearGradient5569" x1="25.132" x2="25.132" y1="6.729" y2="47.013" gradientTransform="translate(79.76064,7.4202674)" gradientUnits="userSpaceOnUse" xlink:href="#linearGradient3600"/><radialGradient id="radialGradient5567" cx="605.714" cy="486.648" r="117.143" fx="605.714" fy="486.648" gradientTransform="matrix(0.02409717,0,0,0.01537476,26.477584,38.629039)" gradientUnits="userSpaceOnUse" xlink:href="#linearGradient5060"/><linearGradient id="linearGradient5060"><stop id="stop5062" style="stop-color:#000;stop-opacity:1" offset="0"/><stop id="stop5064" style="stop-color:#000;stop-opacity:0" offset="1"/></linearGradient><radialGradient id="radialGradient5565" cx="605.714" cy="486.648" r="117.143" fx="605.714" fy="486.648" gradientTransform="matrix(-0.02409717,0,0,0.01537476,21.522412,38.629039)" gradientUnits="userSpaceOnUse" xlink:href="#linearGradient5060"/><linearGradient id="linearGradient5048"><stop id="stop5050" style="stop-color:#000;stop-opacity:0" offset="0"/><stop id="stop5056" style="stop-color:#000;stop-opacity:1" offset=".5"/><stop id="stop5052" style="stop-color:#000;stop-opacity:0" offset="1"/></linearGradient><linearGradient id="linearGradient5563" x1="302.857" x2="302.857" y1="366.648" y2="609.505" gradientTransform="matrix(0.0704142,0,0,0.01537476,-1.4497047,38.629007)" gradientUnits="userSpaceOnUse" xlink:href="#linearGradient5048"/><linearGradient id="linearGradient4873"><stop id="stop4875" style="stop-color:#fff;stop-opacity:1" offset="0"/><stop id="stop4877" style="stop-color:#fff;stop-opacity:0" offset="1"/></linearGradient><linearGradient id="linearGradient2509" x1="21.629" x2="22.245" y1="2.11" y2="43.366" gradientTransform="matrix(0.4873978,0,0,0.4781595,-11.889561,1.7007118)" gradientUnits="userSpaceOnUse" xlink:href="#linearGradient4873"/><linearGradient id="linearGradient3533"><stop id="stop3535" style="stop-color:#93b9dd;stop-opacity:1" offset="0"/><stop id="stop3545" style="stop-color:#6396cd;stop-opacity:1" offset="1"/></linearGradient><linearGradient id="linearGradient2517" x1="15.373" x2="15.373" y1="5.047" y2="22.6" gradientTransform="matrix(0.4873978,0,0,0.4781595,-11.889561,1.7007118)" gradientUnits="userSpaceOnUse" xlink:href="#linearGradient3533"/></defs><g id="layer1"><g id="g5516" transform="translate(-79.76064,-9.420269)" style="display:inline"><g id="g2877" transform="matrix(0.80159266,0,0,0.9561265,87.149491,9.5261974)"><rect id="rect2879" width="34" height="3.734" x="7" y="44.266" style="opacity:.40206185;fill:url(#linearGradient5563);fill-opacity:1;fill-rule:nonzero;stroke:none;stroke-width:1;marker:none;visibility:visible;display:inline;overflow:visible"/><path id="path2881" d="m 7,44.266291 c 0,0 0,3.733665 0,3.733665 -1.2409448,0.007 -3,-0.836525 -3,-1.867073 0,-1.030547 1.3848007,-1.866591 3,-1.866592 z" style="opacity:.40206185;fill:url(#radialGradient5565);fill-opacity:1;fill-rule:nonzero;stroke:none;stroke-width:1;marker:none;visibility:visible;display:inline;overflow:visible"/><path id="path2883" d="m 41,44.266291 c 0,0 0,3.733665 0,3.733665 1.240944,0.007 3,-0.836525 3,-1.867073 0,-1.030547 -1.384801,-1.866591 -3,-1.866592 z" style="opacity:.40206185;fill:url(#radialGradient5567);fill-opacity:1;fill-rule:nonzero;stroke:none;stroke-width:1;marker:none;visibility:visible;display:inline;overflow:visible"/></g><path id="rect2594" d="m 90.26064,12.920227 c 8.02029,0 12.04055,0 20.06084,0 1.40694,0.48538 8.96546,6.01514 10.9392,9.84396 0,11.7187 0,19.43741 0,31.15612 -11.66669,0 -19.33335,0 -31.00004,0 0,-15.00003 0,-26.00005 0,-41.00008 z" style="fill:url(#linearGradient5569);fill-opacity:1;stroke:url(#linearGradient5571);stroke-width:.9999218;stroke-linecap:butt;stroke-linejoin:round;stroke-miterlimit:4;stroke-opacity:1;stroke-dasharray:none;stroke-dashoffset:0"/><path id="path8596" d="m 109.52818,13.234887 c 0.6375,4.12506 0.60946,9.03447 0.60946,9.03447 0,0 4.86973,-0.1115 10.88525,0.59393 -4.89688,-4.7878 -8.32845,-6.78418 -11.49471,-9.6284 z" style="fill:#000;fill-opacity:.32663317;fill-rule:evenodd;stroke:#000;stroke-width:.5;stroke-linecap:butt;stroke-linejoin:round;stroke-miterlimit:4;stroke-opacity:.16582917;stroke-dasharray:none;display:inline"/><path id="path12038" d="m 109.41856,12.928197 c 1.41222,4.1225 1.29509,8.2607 1.29509,8.2607 0,0 7.833,0.54731 10.17514,1.59393 0,-1.71114 -9.2975,-9.82542 -11.47023,-9.85463 z" style="fill:url(#linearGradient5573);fill-opacity:1;fill-rule:evenodd;stroke:none;display:inline"/></g><rect id="rect2874" width="24" height="1" x="14" y="18" rx=".429" ry=".5" style="fill:#babdb6;fill-opacity:1;stroke:none;display:inline"/><rect id="rect2890" width="24" height="1" x="14" y="21" rx=".429" ry=".5" style="fill:#babdb6;fill-opacity:1;stroke:none;display:inline"/><rect id="rect2892" width="24" height="1" x="14" y="24" rx=".429" ry=".5" style="fill:#babdb6;fill-opacity:1;stroke:none;display:inline"/><rect id="rect2894" width="24" height="1" x="14" y="30" rx=".429" ry=".5" style="fill:#babdb6;fill-opacity:1;stroke:none;display:inline"/><rect id="rect2898" width="24" height="1" x="14" y="33" rx=".429" ry=".5" style="fill:#babdb6;fill-opacity:1;stroke:none;display:inline"/><rect id="rect2900" width="24" height="1" x="14" y="36" rx=".429" ry=".5" style="fill:#babdb6;fill-opacity:1;stroke:none;display:inline"/><rect id="rect1984" width="24" height="1" x="14" y="27" rx=".429" ry=".5" style="fill:#babdb6;fill-opacity:1;stroke:none;display:inline"/></g></svg>