<svg xmlns="http://www.w3.org/2000/svg" xmlns:svg="http://www.w3.org/2000/svg" xmlns:xlink="http://www.w3.org/1999/xlink" id="svg11300" width="48" height="48" version="1.0"><defs id="defs3"><linearGradient id="linearGradient4956"><stop id="stop4958" style="stop-color:#e3e3e3;stop-opacity:1" offset="0"/><stop id="stop4960" style="stop-color:#a4a4a4;stop-opacity:1" offset=".262"/><stop id="stop4962" style="stop-color:#5f5f5f;stop-opacity:1" offset=".663"/><stop id="stop4964" style="stop-color:#2b2b2b;stop-opacity:1" offset="1"/></linearGradient><linearGradient id="linearGradient4099"><stop id="stop4101" style="stop-color:#d6d6d6;stop-opacity:1" offset="0"/><stop id="stop4103" style="stop-color:#b2b2b2;stop-opacity:1" offset="1"/></linearGradient><linearGradient id="linearGradient4093"><stop id="stop4095" style="stop-color:gray;stop-opacity:1" offset="0"/><stop id="stop4097" style="stop-color:#a3a3a3;stop-opacity:1" offset="1"/></linearGradient><linearGradient id="linearGradient6221"><stop id="stop6223" style="stop-color:black;stop-opacity:1" offset="0"/><stop id="stop6225" style="stop-color:black;stop-opacity:0" offset="1"/></linearGradient><linearGradient id="linearGradient5443"><stop id="stop5445" style="stop-color:white;stop-opacity:1" offset="0"/><stop id="stop5447" style="stop-color:white;stop-opacity:0" offset="1"/></linearGradient><radialGradient id="radialGradient2912" cx="21.96" cy="34.498" r="12.728" fx="21.96" fy="34.498" gradientTransform="matrix(0.23695139,0,0,0.0905974,35.689607,41.290776)" gradientUnits="userSpaceOnUse" xlink:href="#linearGradient6221"/><radialGradient id="radialGradient2915" cx="21.96" cy="34.498" r="12.728" fx="21.96" fy="34.498" gradientTransform="matrix(0.57921468,0,0,0.23991807,27.90798,35.770022)" gradientUnits="userSpaceOnUse" xlink:href="#linearGradient6221"/><radialGradient id="radialGradient2918" cx="21.96" cy="34.498" r="12.728" fx="21.96" fy="34.498" gradientTransform="matrix(0.18131971,0,0,0.07549778,1.8334746,42.277219)" gradientUnits="userSpaceOnUse" xlink:href="#linearGradient6221"/><radialGradient id="radialGradient2921" cx="21.96" cy="34.498" r="12.728" fx="21.96" fy="34.498" gradientTransform="matrix(0.46337318,0,0,0.19993169,-4.0736286,37.641689)" gradientUnits="userSpaceOnUse" xlink:href="#linearGradient6221"/><linearGradient id="linearGradient4434"><stop id="stop4436" style="stop-color:#d4d4d4;stop-opacity:1" offset="0"/><stop id="stop4438" style="stop-color:#bababa;stop-opacity:1" offset=".183"/><stop id="stop4440" style="stop-color:white;stop-opacity:1" offset=".319"/><stop id="stop4442" style="stop-color:#bababa;stop-opacity:1" offset=".876"/><stop id="stop4444" style="stop-color:#eee;stop-opacity:1" offset="1"/></linearGradient><linearGradient id="linearGradient7444"><stop id="stop7446" style="stop-color:#888;stop-opacity:1" offset="0"/><stop id="stop7448" style="stop-color:#555;stop-opacity:1" offset="1"/></linearGradient><linearGradient id="linearGradient7381"><stop id="stop7383" style="stop-color:#bababa;stop-opacity:1" offset="0"/><stop id="stop7385" style="stop-color:white;stop-opacity:1" offset="1"/></linearGradient><linearGradient id="linearGradient7421"><stop id="stop7423" style="stop-color:white;stop-opacity:1" offset="0"/><stop id="stop7425" style="stop-color:white;stop-opacity:0" offset="1"/></linearGradient><linearGradient id="linearGradient4665" x1="-6.308" x2="-9.775" y1="44.229" y2="44.14" gradientTransform="matrix(0.50045082,-0.49965052,0.84917342,0.84785213,-0.11121195,-9.009655)" gradientUnits="userSpaceOnUse" xlink:href="#linearGradient6221"/><linearGradient id="linearGradient4668" x1="97.442" x2="90.221" y1="35.152" y2="35.079" gradientTransform="matrix(0.82274296,-0.82218552,0.71961224,0.71912451,-72.102706,81.54676)" gradientUnits="userSpaceOnUse" xlink:href="#linearGradient4956"/><linearGradient id="linearGradient4734" x1="302.292" x2="308.649" y1="58.443" y2="60.768" gradientTransform="matrix(1.3630182,0,0,1.3616941,-403.81664,-67.958464)" gradientUnits="userSpaceOnUse" xlink:href="#linearGradient7381"/><linearGradient id="linearGradient4737" x1="304.762" x2="335.3" y1="64.295" y2="81.926" gradientTransform="matrix(1.3630182,0,0,1.3616941,-403.81664,-67.958464)" gradientUnits="userSpaceOnUse" xlink:href="#linearGradient4434"/><linearGradient id="linearGradient4739" x1="324.497" x2="330.061" y1="70.282" y2="99.274" gradientTransform="matrix(1.3630182,0,0,1.3616941,-403.81664,-67.958464)" gradientUnits="userSpaceOnUse" xlink:href="#linearGradient7444"/><linearGradient id="linearGradient4758" x1="326.602" x2="317.161" y1="75.575" y2="88.006" gradientTransform="matrix(1.3630182,0,0,1.3616941,-403.81664,-67.958464)" gradientUnits="userSpaceOnUse" xlink:href="#linearGradient7421"/><linearGradient id="linearGradient2490"><stop id="stop2492" style="stop-color:#4a4a4a;stop-opacity:1" offset="0"/><stop id="stop2494" style="stop-color:#868686;stop-opacity:1" offset="1"/></linearGradient><linearGradient id="linearGradient4972" x1="29.278" x2="36.001" y1="34.023" y2="27.273" gradientUnits="userSpaceOnUse" xlink:href="#linearGradient2490"/><linearGradient id="linearGradient4987" x1="54.765" x2="54.721" y1="1" y2="12.585" gradientTransform="matrix(-0.73220338,-0.7338647,0.73220338,-0.7338647,43.536897,85.235748)" gradientUnits="userSpaceOnUse" xlink:href="#linearGradient5443"/><linearGradient id="linearGradient4990" x1="58.548" x2="56.447" y1="37.501" y2="37.586" gradientTransform="matrix(1.0366781,0,0,2.1488993,-91.059476,-66.82358)" gradientUnits="userSpaceOnUse" xlink:href="#linearGradient5443"/><linearGradient id="linearGradient4993" x1="-7.097" x2="-10.179" y1="40.324" y2="40.309" gradientTransform="matrix(0.50479505,0,0,1.4199623,-29.912037,-41.903196)" gradientUnits="userSpaceOnUse" xlink:href="#linearGradient6221"/><linearGradient id="linearGradient4996" x1="-10.939" x2="-6.93" y1="36.912" y2="36.892" gradientTransform="matrix(0.60312184,0,0,1.4585579,-31.405216,-44.247128)" gradientUnits="userSpaceOnUse" xlink:href="#linearGradient6221"/><linearGradient id="linearGradient4999" x1="25.572" x2="27.368" y1="20.762" y2="22.476" gradientTransform="matrix(-1.0423996,0,0,-1.0378417,44.501437,53.47609)" gradientUnits="userSpaceOnUse" xlink:href="#linearGradient7381"/><linearGradient id="linearGradient5001" x1="22.376" x2="31.089" y1="35.624" y2="26.885" gradientTransform="matrix(1.0468682,0,0,1.0468717,-6.3987424,-6.3201445)" gradientUnits="userSpaceOnUse" xlink:href="#linearGradient7444"/><radialGradient id="radialGradient5004" cx="-39.458" cy="11.84" r="3.906" fx="-39.458" fy="11.84" gradientTransform="matrix(2.3533908,-0.16336681,0.28682268,5.972601,59.064681,-65.366515)" gradientUnits="userSpaceOnUse" xlink:href="#linearGradient5443"/><linearGradient id="linearGradient5007" x1="-2.197" x2="-10.566" y1="40.972" y2="40.949" gradientTransform="matrix(0.84492232,-2.9977401e-8,0,1.6837108,-27.129552,-57.123248)" gradientUnits="userSpaceOnUse" xlink:href="#linearGradient4099"/><linearGradient id="linearGradient5009" x1="-45.569" x2="-36.083" y1="7.714" y2="12.324" gradientTransform="matrix(1.0468699,0,0,1.04687,8.9937435,-0.00618744)" gradientUnits="userSpaceOnUse" xlink:href="#linearGradient4093"/><radialGradient id="radialGradient5017" cx="25.977" cy="21.623" r="2" fx="25.977" fy="21.623" gradientTransform="matrix(0.80803421,-0.02610843,0.00943568,1.3973911,4.7598055,-7.9089329)" gradientUnits="userSpaceOnUse" xlink:href="#linearGradient6221"/></defs><path id="path6912" d="M 12.15625,2.4375 C 11.992418,2.4293477 11.828214,2.4956254 11.71875,2.625 11.572785,2.7974586 11.573009,3.0533169 11.6875,3.25 L 14.75,8.71875 c 0.275003,0.4915852 0.130727,1.1346092 -0.3125,1.78125 -0.447424,0.652769 -1.203746,1.293817 -2.15625,1.8125 -0.952696,0.518765 -1.891143,0.816856 -2.6875,0.84375 -0.7916546,0.02683 -1.4118023,-0.194621 -1.6875,-0.6875 L 4.8125,6.9375 C 4.7266299,6.7844729 4.5810298,6.7078165 4.40625,6.6875 4.2314838,6.6672108 4.0540925,6.7142528 3.9375,6.84375 c -0.062971,0.067268 -0.1034643,0.1604959 -0.125,0.25 -0.5930765,2.5533807 -0.3124261,5.489037 0.8125,7.5 1.5362851,2.746347 4.7418709,4.054333 7.875,3.5 1.280283,0.430296 3.456149,1.177794 5.469,3.17525 l 4.15,-4.419 C 20.304469,15.049364 19.456479,13.40638 18.96875,12.1875 19.391913,10.502499 19.20296,8.7168612 18.3125,7.125 17.188037,5.1148944 14.844344,3.3354819 12.34375,2.46875 12.290105,2.4491415 12.210861,2.4402174 12.15625,2.4375 z" style="fill:url(#linearGradient4737);fill-opacity:1;fill-rule:evenodd;stroke:url(#linearGradient4739);stroke-width:.99999988;stroke-linecap:round;stroke-linejoin:round;stroke-miterlimit:4;stroke-opacity:1;stroke-dasharray:none;stroke-dashoffset:.3612;display:inline;enable-background:new"/><path id="path7379" d="m 12.159472,2.9347347 c 0.02549,0.00953 0.0095,0.042485 0,0.042621 l 3.066791,5.4893293 c 0.413716,0.7395089 0.115311,1.612859 -0.383349,2.340412 -0.503622,0.734756 -1.283964,1.446664 -2.300094,1.999988 -1.01831,0.554509 -2.086399,0.820816 -2.9816019,0.851059 -0.8932403,0.03023 -1.7316737,-0.224557 -2.1297159,-0.936165 L 4.3647112,7.1900968 c -0.017583,-0.00272 -0.045525,0.00272 -0.042662,0 0.028078,-0.029957 0.00545,0.021787 0,0.042621 -0.5655435,2.4348861 -0.272222,5.2491262 0.7666977,7.1063412 1.42111,2.540458 4.3881144,3.75385 7.3262221,3.234023 2.924315,-0.522917 5.424758,-3.068128 6.048394,-5.489329 0.393789,-1.5681 0.226029,-3.2532778 -0.596321,-4.7233763 C 16.830944,5.5082412 14.551678,3.7640608 12.159403,2.9348708 l 6.9e-5,-1.361e-4 z" style="fill:url(#linearGradient4734);fill-opacity:1;fill-rule:evenodd;stroke:none;display:inline;enable-background:new"/><path id="path4756" d="m 13.6875,4.46875 2.0625,3.6875 c 0.581409,1.039249 0.159471,2.174633 -0.40625,3 -0.571568,0.833892 -1.406955,1.561046 -2.5,2.15625 -1.097639,0.597704 -2.235301,0.934471 -3.25,0.96875 -1.0160483,0.03434 -2.1415567,-0.273984 -2.6875,-1.25 L 4.78125,9.1875 c -0.090777,1.794862 0.11702,3.60046 0.8125,4.84375 1.2818778,2.291555 3.9851527,3.415614 6.6875,2.9375 0.197828,-0.03904 0.403473,-0.0042 0.59375,0.0625 1.464686,0.492256 3.293422,1.497097 5.40625,3.59375 l 1,1 3.09375,-3.09375 -0.96875,-0.96875 c -1.904913,-1.890312 -2.948468,-3.559188 -3.5,-4.9375 C 17.82311,12.409471 17.81939,12.192928 17.875,11.96875 18.2333,10.541977 18.08376,8.9791535 17.34375,7.65625 16.667407,6.4472059 15.242717,5.3434805 13.6875,4.46875 z" style="fill:none;stroke:url(#linearGradient4758);stroke-width:.69999987;stroke-linecap:round;stroke-linejoin:miter;stroke-miterlimit:4;stroke-opacity:1;stroke-dasharray:none;stroke-dashoffset:.3612;display:inline;enable-background:new"/><path id="rect7166" d="m 18.125,16.28125 c -0.136905,0.01172 -0.257772,0.0391 -0.34375,0.125 l -0.625,0.65625 c -0.343913,0.343579 -0.09326,1.188656 0.59375,1.875 l 2.125,2.09375 1.875,-1.90625 -2.09375,-2.09375 c -0.515259,-0.514758 -1.120534,-0.785166 -1.53125,-0.75 z" style="opacity:.07999998;fill:#000;fill-opacity:1;fill-rule:evenodd;stroke:none;display:inline;enable-background:new"/><path id="path5331" d="M 12,44.500002 A 6.0000002,2.5000002 0 1 1 -2.15078e-8,44.500002 6.0000002,2.5000002 0 1 1 12,44.500002 z" style="opacity:.25;fill:url(#radialGradient2921);fill-opacity:1;stroke:none"/><path id="path6769" d="m 8.1231475,44.86704 a 2.3478232,0.9440447 0 1 1 -4.6956463,0 2.3478232,0.9440447 0 1 1 4.6956463,0 z" style="opacity:.3;fill:url(#radialGradient2918);fill-opacity:1;stroke:none"/><path id="path6765" d="m 47.999954,43.999999 a 7.499977,3.0000008 0 0 1 -14.999954,0 7.499977,3.0000008 0 1 1 14.999954,0 z" style="opacity:.25;fill:url(#radialGradient2915);fill-opacity:1;stroke:none"/><path id="path6773" d="m 43.909048,44.398564 a 3.0681715,1.1328545 0 1 1 -6.136343,0 3.0681715,1.1328545 0 1 1 6.136343,0 z" style="opacity:.3;fill:url(#radialGradient2912);fill-opacity:1;stroke:none"/><path id="path6899" d="m 17.527896,20.864469 21.270487,22.695638 c 1.395325,1.394385 3.784221,1.211831 5.37952,-0.382384 1.595298,-1.59422 1.77797,-3.981493 0.382644,-5.375875 L 21.849519,16.545775 17.527876,20.864449 z m 22.328383,17.994559 c 0.793066,-0.792527 2.088019,-0.792527 2.881083,0 0.793064,0.792528 0.793064,2.086603 1e-6,2.879129 -0.793066,0.792525 -2.088018,0.792527 -2.881084,0 -0.793063,-0.792528 -0.793064,-2.086601 0,-2.879129 z" style="fill:url(#linearGradient4668);fill-opacity:1;stroke:url(#linearGradient4972);stroke-width:.99963278;stroke-linecap:round;stroke-linejoin:round;stroke-miterlimit:4;stroke-opacity:1;stroke-dasharray:none;stroke-dashoffset:.7;display:inline;enable-background:new"/><path id="rect6533" d="m 21.465705,20.528255 c 0.554498,-0.553609 1.569497,-0.431583 2.275787,0.2736 l 14.691696,13.334242 c 0.706285,0.705189 0.160517,2.386263 -0.393981,2.939872 -0.554502,0.553615 -2.237837,1.09963 -2.944124,0.394444 L 21.739684,22.800461 C 21.0334,22.09527 20.911203,21.081871 21.465705,20.528255 z" style="opacity:.23106061;fill:url(#linearGradient4665);fill-opacity:1;stroke:none;display:inline"/><rect id="rect5288" width="9.256" height="30.017" x="-38.536" y="-2.113" rx="3.957" ry="3.957" transform="matrix(-0.71097924,-0.703213,0.70748499,-0.70672837,0,0)" style="fill:url(#linearGradient5007);fill-opacity:1;stroke:url(#linearGradient5009);stroke-width:1.0001862;stroke-linecap:round;stroke-linejoin:round;stroke-miterlimit:4;stroke-opacity:1;stroke-dasharray:none"/><path id="path4983" d="m 28,22.5 a 2,2.5 0 1 1 -4,0 2,2.5 0 1 1 4,0 z" transform="matrix(-1.2190264,-1.2555774,0.57397825,-0.55726921,44.224613,67.640316)" style="opacity:.3;fill:url(#radialGradient5017);fill-opacity:1;stroke:none"/><rect id="rect5292" width="7.178" height="27.938" x="-37.497" y="-1.142" rx="2.968" ry="2.968" transform="matrix(-0.71239463,-0.70177909,0.70750329,-0.70671005,0,0)" style="opacity:.6;fill:none;stroke:url(#radialGradient5004);stroke-width:1.00001621;stroke-linecap:round;stroke-linejoin:round;stroke-miterlimit:4;stroke-opacity:1;stroke-dasharray:none"/><path id="path5286" d="M 4.6219909,45.499911 9.5338326,42.106745 10.130073,40.058021 25.355042,24.809138 c 1.035492,-1.167574 -0.9169,-3.239435 -2.211263,-2.201595 L 7.9130734,37.835991 5.8551126,38.419678 2.4997301,43.351492 c 0,0 2.1222608,2.148419 2.1222608,2.148419 z" style="fill:url(#linearGradient4999);fill-opacity:1;stroke:url(#linearGradient5001);stroke-width:1;stroke-linecap:round;stroke-linejoin:round;stroke-miterlimit:4;stroke-opacity:1;stroke-dasharray:none"/><rect id="rect2804" width="1.472" height="22.806" x="-37.436" y="2.427" rx=".989" ry="1.088" transform="matrix(-0.71258595,-0.70158482,0.70777179,-0.70644115,0,0)" style="opacity:.3;fill:url(#linearGradient4996);fill-opacity:1;stroke:none"/><rect id="rect5290" width="2.019" height="22.719" x="-34.96" y="3.536" rx=".989" ry="1.088" transform="matrix(-0.71337531,-0.70078219,0.70733391,-0.70687958,0,0)" style="opacity:.3;fill:url(#linearGradient4993);fill-opacity:1;stroke:none"/><rect id="rect5398" width="1.472" height="22.806" x="-31.832" y="2.477" rx=".989" ry="1.088" transform="matrix(-0.71258595,-0.70158482,0.70777179,-0.70644115,0,0)" style="opacity:.25;fill:url(#linearGradient4990);fill-opacity:1;stroke:none"/><path id="path5450" d="M 4.6709351,44.813863 9.0430954,41.880554 9.5325732,40.013968 C 9.935205,39.548312 8.3564901,38.077918 7.9308775,38.408638 l -1.8394783,0.513522 -2.926607,4.382142 c 0.5745834,0.575886 0.9315599,0.933673 1.5061429,1.509561 z" style="fill:url(#linearGradient4987);fill-opacity:1;stroke:none"/><path id="path4979" d="m 24.71765,24.115011 c 0.07671,-0.382845 -0.456934,-0.862307 -0.822644,-0.86103 -5.169376,5.02062 -10.343933,10.300255 -15.4354475,15.402784 l -2.0364633,0.613474 c -0.893434,1.313245 -1.786868,2.626489 -2.6803019,3.939734 0.3380515,0.348957 0.676102,0.697915 1.0141536,1.046872 1.3303946,-0.916013 2.6607903,-1.832026 3.991185,-2.748039 0.1816515,-0.573727 0.3084346,-1.179832 0.5234341,-1.733881" style="opacity:.7;fill:none;stroke:#fff;stroke-width:1;stroke-linecap:round;stroke-linejoin:round;stroke-miterlimit:4;stroke-opacity:1"/></svg>