<svg xmlns="http://www.w3.org/2000/svg" xmlns:svg="http://www.w3.org/2000/svg" xmlns:xlink="http://www.w3.org/1999/xlink" id="svg3123" width="48" height="48" version="1.1"><defs id="defs3125"><linearGradient id="linearGradient8838-795"><stop id="stop2737" style="stop-color:black;stop-opacity:1" offset="0"/><stop id="stop2739" style="stop-color:black;stop-opacity:0" offset="1"/></linearGradient><radialGradient id="radialGradient3546" cx="62.625" cy="4.625" r="10.625" fx="62.625" fy="4.625" gradientTransform="matrix(1,0,0,0.341176,0,3.047059)" gradientUnits="userSpaceOnUse" xlink:href="#linearGradient8838-795"/><linearGradient id="linearGradient37935"><stop id="stop37937" style="stop-color:#7c7c7c;stop-opacity:1" offset="0"/><stop id="stop37939" style="stop-color:#242424;stop-opacity:1" offset="1"/></linearGradient><linearGradient id="linearGradient3571" x1="15.656" x2="15.656" y1="13.36" y2="44.786" gradientTransform="translate(0.749992,5e-8)" gradientUnits="userSpaceOnUse" xlink:href="#linearGradient37935"/><linearGradient id="linearGradient4873-625-158-888-767"><stop id="stop4258" style="stop-color:white;stop-opacity:1" offset="0"/><stop id="stop4260" style="stop-color:white;stop-opacity:0" offset="1"/></linearGradient><linearGradient id="linearGradient3568" x1="63.397" x2="63.397" y1="-9.383" y2="7.443" gradientTransform="matrix(2.149872,0,0,2.149872,-109.36554,31.935343)" gradientUnits="userSpaceOnUse" xlink:href="#linearGradient4873-625-158-888-767"/><linearGradient id="linearGradient42174"><stop id="stop42176" style="stop-color:#a0a0a0;stop-opacity:1" offset="0"/><stop id="stop42178" style="stop-color:white;stop-opacity:1" offset="1"/></linearGradient><linearGradient id="linearGradient3565" x1="6.342" x2="22.218" y1="7.789" y2="25.884" gradientUnits="userSpaceOnUse" xlink:href="#linearGradient42174"/><linearGradient id="linearGradient2145"><stop id="stop2147" style="stop-color:#fffffd;stop-opacity:1" offset="0"/><stop id="stop2149" style="stop-color:#cbcbc9;stop-opacity:1" offset="1"/></linearGradient><radialGradient id="radialGradient3563" cx="11.902" cy="10.045" r="29.293" fx="11.902" fy="10.045" gradientUnits="userSpaceOnUse" xlink:href="#linearGradient2145"/><linearGradient id="linearGradient7101"><stop id="stop7103" style="stop-color:black;stop-opacity:1" offset="0"/><stop id="stop7105" style="stop-color:black;stop-opacity:0" offset="1"/></linearGradient><linearGradient id="linearGradient3566" x1="79.25" x2="83.625" y1="15.75" y2="14.781" gradientUnits="userSpaceOnUse" xlink:href="#linearGradient7101"/><linearGradient id="linearGradient3747"><stop id="stop3749" style="stop-color:#494949;stop-opacity:1" offset="0"/><stop id="stop3751" style="stop-color:#888a85;stop-opacity:0" offset="1"/></linearGradient><linearGradient id="linearGradient3554" x1="78.313" x2="83.203" y1="12.313" y2="12.093" gradientTransform="matrix(1.6399715,0,0,1.7710483,-112.55969,-11.636734)" gradientUnits="userSpaceOnUse" xlink:href="#linearGradient3747"/><linearGradient id="linearGradient7089"><stop id="stop7091" style="stop-color:#eeeeec;stop-opacity:1" offset="0"/><stop id="stop7093" style="stop-color:#eeeeec;stop-opacity:0" offset="1"/></linearGradient><linearGradient id="linearGradient3552" x1="80.625" x2="83.219" y1="14.063" y2="13.875" gradientTransform="matrix(1.6399715,0,0,1.7710483,-112.55969,-11.636734)" gradientUnits="userSpaceOnUse" xlink:href="#linearGradient7089"/><linearGradient id="linearGradient7065"><stop id="stop7067" style="stop-color:white;stop-opacity:1" offset="0"/><stop id="stop7069" style="stop-color:white;stop-opacity:0" offset="1"/></linearGradient><linearGradient id="linearGradient3549" x1="78.5" x2="83.031" y1="16.406" y2="16.438" gradientTransform="matrix(1.6399715,0,0,1.7710483,-112.55969,-11.636734)" gradientUnits="userSpaceOnUse" xlink:href="#linearGradient7065"/></defs><g id="layer1"><path id="path8836" d="m 73.25,4.625 a 10.625,3.625 0 1 1 -21.25,0 10.625,3.625 0 1 1 21.25,0 z" transform="matrix(2.149872,0,0,2.5636643,-110.63573,26.84977)" style="opacity:.56043958;fill:url(#radialGradient3546);fill-opacity:1;fill-rule:evenodd;stroke:none;stroke-width:.99999988;marker:none;visibility:visible;display:inline;overflow:visible"/><path id="path6495" d="m 44.254925,24.386798 c 0,10.989786 -8.909149,19.898833 -19.897424,19.898833 -10.989282,0 -19.897925,-8.909148 -19.897925,-19.898833 0,-10.989282 8.908643,-19.8974244 19.897925,-19.8974244 10.988275,0 19.897424,8.9081424 19.897424,19.8974244 l 0,0 z" style="fill:url(#linearGradient3571);fill-opacity:1;fill-rule:nonzero;stroke:#333;stroke-width:1;stroke-miterlimit:4;stroke-dasharray:none"/><path id="path8655" d="m 43.159073,24.38683 c 0,10.384468 -8.41843,18.802802 -18.801469,18.802802 -10.383989,0 -18.801944,-8.41843 -18.801944,-18.802802 0,-10.383988 8.417955,-18.8014688 18.801944,-18.8014688 10.383039,0 18.801469,8.4174808 18.801469,18.8014688 l 0,0 z" style="opacity:.4;fill:none;stroke:url(#linearGradient3568);stroke-width:1;stroke-miterlimit:4;stroke-opacity:1;stroke-dasharray:none"/><path id="path35549" d="m 31.160714,16.910715 a 14.910714,14.910714 0 1 1 -29.8214281,0 14.910714,14.910714 0 1 1 29.8214281,0 z" transform="matrix(1.0989743,0,0,1.0990035,6.4989174,5.6021946)" style="fill:url(#radialGradient3563);fill-opacity:1;fill-rule:evenodd;stroke:url(#linearGradient3565);stroke-width:.84248883;stroke-linecap:round;stroke-linejoin:bevel;stroke-miterlimit:4;stroke-opacity:1;stroke-dasharray:none;stroke-dashoffset:0"/><path id="path2291" d="m 10.358832,24.537057 c 2.766321,0 3.11659,-0.07959 3.11659,-0.07959" style="fill:#616161;fill-opacity:1;fill-rule:evenodd;stroke:#5f5f5f;stroke-width:.92588592;stroke-linecap:round;stroke-linejoin:miter;stroke-miterlimit:4;stroke-opacity:1;stroke-dasharray:none"/><path id="path2296" d="m 35.518785,24.537057 c 2.766323,0 3.116593,-0.07959 3.116593,-0.07959" style="fill:#1f1f1f;fill-opacity:1;fill-rule:evenodd;stroke:#1f1f1f;stroke-width:.92588592;stroke-linecap:round;stroke-linejoin:miter;stroke-miterlimit:4;stroke-opacity:1;stroke-dasharray:none"/><path id="path2306" d="m 24.542531,38.01125 c 0,-2.76632 -0.07959,-3.11659 -0.07959,-3.11659" style="fill:#131313;fill-opacity:1;fill-rule:evenodd;stroke:#121212;stroke-width:.92588592;stroke-linecap:round;stroke-linejoin:miter;stroke-miterlimit:4;stroke-opacity:1;stroke-dasharray:none"/><path id="path2308" d="m 24.542531,13.060941 c 0,-2.766358 -0.07959,-3.1166318 -0.07959,-3.1166318" style="fill:#1f1f1f;fill-opacity:1;fill-rule:evenodd;stroke:#727272;stroke-width:.92588592;stroke-linecap:round;stroke-linejoin:miter;stroke-miterlimit:4;stroke-opacity:1;stroke-dasharray:none"/><g id="g2318" transform="matrix(0.5733387,0,0,0.5733387,11.655599,11.154465)" style="stroke-width:1.61490202;stroke-linecap:round;stroke-miterlimit:4;stroke-dasharray:none"><path id="path2312" d="M 21.168246,23.652869 40.199004,4.6221125" style="fill:none;stroke:#000;stroke-width:1.61490202;stroke-linecap:round;stroke-linejoin:miter;stroke-miterlimit:4;stroke-opacity:1;stroke-dasharray:none"/><path id="path2314" d="M 24.25811,23.793317 11.547531,11.082739" style="fill:none;stroke:#000;stroke-width:1.61490202;stroke-linecap:round;stroke-linejoin:miter;stroke-miterlimit:4;stroke-opacity:1;stroke-dasharray:none"/><path id="path2316" d="M 21.589592,22.66973 43.260774,16.862955" style="fill:red;fill-rule:evenodd;stroke:red;stroke-width:1.61490202;stroke-linecap:round;stroke-linejoin:miter;stroke-miterlimit:4;stroke-opacity:1;stroke-dasharray:none"/></g><path id="path7099" d="m 85,9.96875 c -4.313438,0 -8.144379,1.988611 -10.71875,5.0625 L 71.875,12.625 a 0.53130312,0.53130312 0 0 0 -0.90625,0.28125 l -2,10.5 a 0.53130312,0.53130312 0 0 0 0.625,0.625 l 10.5,-2 A 0.53130312,0.53130312 0 0 0 80.375,21.125 l -2.5,-2.5 c 1.634966,-2.162476 4.203208,-3.59375 7.125,-3.59375 0.06101,0 0.66768,-0.0067 1.25,0 0.58232,0.0067 1.231192,0.0319 1.21875,0.03125 a 0.53130312,0.53130312 0 0 0 0.5625,-0.53125 l 0,-4 A 0.53130312,0.53130312 0 0 0 87.53125,10 C 87.247954,9.9895391 85.221832,9.96875 85,9.96875 z" transform="matrix(1.6399715,0,0,1.7710483,-112.55969,-9.8656858)" style="opacity:.1;fill:url(#linearGradient3566);fill-opacity:1;fill-rule:evenodd;stroke:none"/><path id="path7007" d="m 26.837891,6.9592735 c -7.15205,0 -13.53306,3.6569165 -17.5784499,9.3533485 l -4.56117,-4.925728 -3.27994,18.596007 17.2196999,-3.542097 -4.66367,-5.036418 c 2.80042,-4.436903 7.51678,-9.131968 12.86353,-9.131968 0.27738,0 3.8261,0.03986 4.09993,0.05534 l 0,-5.3131445 c -0.2755,-0.010986 -3.82196,-0.055345 -4.09993,-0.055345 z" style="fill:url(#linearGradient3552);fill-opacity:1;fill-rule:evenodd;stroke:url(#linearGradient3554);stroke-width:1;stroke-linecap:round;stroke-linejoin:round;stroke-miterlimit:10;stroke-opacity:1;stroke-dasharray:none;stroke-dashoffset:.69999992"/><path id="path7062" d="m 26.837891,8.7303215 c -6.6344,0 -12.55237,3.3606225 -16.29722,8.6338605 -0.28081,0.410922 -0.7121999,0.670949 -1.1834699,0.71336 -0.47128,0.04241 -0.93657,-0.136919 -1.27648,-0.491979 l -2.35746,-2.545882 -2.25496,12.72941 11.7872899,-2.435192 -2.45996,-2.656572 c -0.55379,-0.616146 -0.61859,-1.572518 -0.15374,-2.269156 3.09419,-4.902366 8.29559,-9.906802 14.196,-9.906802 0.21143,0 2.7318,-0.01193 3.68994,0 0.18239,0.0023 0.24493,-0.0016 0.40999,0 l 0,-1.7157025 c -1.15282,-0.015896 -4.0292,-0.055345 -4.09993,-0.055345 z" style="fill:none;stroke:url(#linearGradient3549);stroke-width:1;stroke-linecap:round;stroke-linejoin:round;stroke-miterlimit:10;stroke-opacity:1;stroke-dasharray:none;stroke-dashoffset:.69999992"/></g></svg>