<svg xmlns="http://www.w3.org/2000/svg" xmlns:svg="http://www.w3.org/2000/svg" xmlns:xlink="http://www.w3.org/1999/xlink" id="svg2453" width="48" height="48" version="1.0"><defs id="defs2455"><linearGradient id="linearGradient3484"><stop id="stop3486" style="stop-color:#bdbdbd;stop-opacity:1" offset="0"/><stop id="stop3488" style="stop-color:#d0d0d0;stop-opacity:1" offset="1"/></linearGradient><radialGradient id="radialGradient2788" cx="3" cy="5.017" r="21" fx="3" fy="5.017" gradientTransform="matrix(-1.274898e-8,1.7142916,-2.159331,-1.4599595e-8,12.809361,2.8570011)" gradientUnits="userSpaceOnUse" xlink:href="#linearGradient3484"/><linearGradient id="linearGradient6404"><stop id="stop6406" style="stop-color:#f9f9f9;stop-opacity:1" offset="0"/><stop id="stop6408" style="stop-color:#c9c9c9;stop-opacity:1" offset="1"/></linearGradient><linearGradient id="linearGradient2786" x1="62.989" x2="62.989" y1="13.183" y2="16.19" gradientTransform="translate(-50.940898,0)" gradientUnits="userSpaceOnUse" xlink:href="#linearGradient6404"/><linearGradient id="linearGradient5060-820"><stop id="stop2681" style="stop-color:black;stop-opacity:1" offset="0"/><stop id="stop2683" style="stop-color:black;stop-opacity:0" offset="1"/></linearGradient><radialGradient id="radialGradient7600-312" cx="605.714" cy="486.648" r="117.143" fx="605.714" fy="486.648" gradientTransform="matrix(-0.03212956,0,0,0.03705882,23.363215,25.412461)" gradientUnits="userSpaceOnUse" xlink:href="#linearGradient5060-820"/><linearGradient id="linearGradient5060-179"><stop id="stop2675" style="stop-color:black;stop-opacity:1" offset="0"/><stop id="stop2677" style="stop-color:black;stop-opacity:0" offset="1"/></linearGradient><radialGradient id="radialGradient7598-526" cx="605.714" cy="486.648" r="117.143" fx="605.714" fy="486.648" gradientTransform="matrix(0.03212956,0,0,0.03705882,24.636785,25.412461)" gradientUnits="userSpaceOnUse" xlink:href="#linearGradient5060-179"/><linearGradient id="linearGradient5048-585"><stop id="stop2667" style="stop-color:black;stop-opacity:0" offset="0"/><stop id="stop2669" style="stop-color:black;stop-opacity:1" offset=".5"/><stop id="stop2671" style="stop-color:black;stop-opacity:0" offset="1"/></linearGradient><linearGradient id="linearGradient7596-975" x1="302.857" x2="302.857" y1="366.648" y2="609.505" gradientTransform="matrix(0.08284024,0,0,0.03705882,-5.9408285,25.412461)" gradientUnits="userSpaceOnUse" xlink:href="#linearGradient5048-585"/><linearGradient id="linearGradient3390-178-986-453"><stop id="stop3624" style="stop-color:#bb5e12;stop-opacity:1" offset="0"/><stop id="stop3626" style="stop-color:#cd8033;stop-opacity:1" offset="1"/></linearGradient><linearGradient id="linearGradient2779" x1="82.453" x2="65.34" y1="45.114" y2="15.944" gradientTransform="translate(-53.765393,-0.1141929)" gradientUnits="userSpaceOnUse" xlink:href="#linearGradient3390-178-986-453"/><linearGradient id="linearGradient7012-661-145-733-759-865-745-661-970-94"><stop id="stop3618" style="stop-color:#edd563;stop-opacity:1" offset="0"/><stop id="stop3620" style="stop-color:#e08223;stop-opacity:1" offset="1"/></linearGradient><radialGradient id="radialGradient2777" cx="63.969" cy="14.113" r="23.097" fx="63.969" fy="14.113" gradientTransform="matrix(1.5646925,-9.5143002e-8,6.1772287e-8,1.015888,-86.212573,8.1461173)" gradientUnits="userSpaceOnUse" xlink:href="#linearGradient7012-661-145-733-759-865-745-661-970-94"/><linearGradient id="linearGradient6129-963-697-142-998-580-273"><stop id="stop2661" style="stop-color:#0a0a0a;stop-opacity:.498" offset="0"/><stop id="stop2663" style="stop-color:#0a0a0a;stop-opacity:0" offset="1"/></linearGradient><linearGradient id="linearGradient2774" x1="22.935" x2="22.809" y1="49.629" y2="36.658" gradientTransform="matrix(1.1446925,0,0,0.9977536,-3.4661413,1.0988425)" gradientUnits="userSpaceOnUse" xlink:href="#linearGradient6129-963-697-142-998-580-273"/><linearGradient id="linearGradient6087-437-184-795-110-662-495"><stop id="stop2693" style="stop-color:white;stop-opacity:.40000001" offset="0"/><stop id="stop2695" style="stop-color:white;stop-opacity:0" offset="1"/></linearGradient><radialGradient id="radialGradient2771" cx="7.265" cy="8.302" r="20.98" fx="7.265" fy="8.302" gradientTransform="matrix(0,1.2079744,-1.6271642,0,26.371748,8.2664685)" gradientUnits="userSpaceOnUse" xlink:href="#linearGradient6087-437-184-795-110-662-495"/><linearGradient id="linearGradient8265-821-176-38-919-66-249"><stop id="stop2687" style="stop-color:white;stop-opacity:.27450982" offset="0"/><stop id="stop2689" style="stop-color:white;stop-opacity:.07843138" offset="1"/></linearGradient><linearGradient id="linearGradient2768" x1="11.566" x2="15.215" y1="22.292" y2="33.955" gradientUnits="userSpaceOnUse" xlink:href="#linearGradient8265-821-176-38-919-66-249"/><linearGradient id="linearGradient2091"><stop id="stop2093" style="stop-color:black;stop-opacity:1" offset="0"/><stop id="stop2095" style="stop-color:black;stop-opacity:0" offset="1"/></linearGradient><radialGradient id="radialGradient2903" cx="23.071" cy="35.127" r="10.319" fx="23.071" fy="35.127" gradientTransform="matrix(1.0638029,0.0137236,-0.00955296,0.2316828,11.922927,37.073472)" gradientUnits="userSpaceOnUse" xlink:href="#linearGradient2091"/><linearGradient id="linearGradient3497"><stop id="stop3499" style="stop-color:#699536;stop-opacity:1" offset="0"/><stop id="stop3501" style="stop-color:#587d2d;stop-opacity:1" offset="1"/></linearGradient><linearGradient id="linearGradient2877" x1="28.857" x2="28.857" y1="26" y2="46.073" gradientUnits="userSpaceOnUse" xlink:href="#linearGradient3497"/><linearGradient id="linearGradient2264"><stop id="stop2266" style="stop-color:#d7e866;stop-opacity:1" offset="0"/><stop id="stop2268" style="stop-color:#8cab2a;stop-opacity:1" offset="1"/></linearGradient><linearGradient id="linearGradient2875" x1="24.104" x2="24.104" y1="15.169" y2="32.485" gradientTransform="matrix(0.8988874,0,0,0.8934652,14.536296,15.434027)" gradientUnits="userSpaceOnUse" xlink:href="#linearGradient2264"/><linearGradient id="linearGradient4222"><stop id="stop4224" style="stop-color:white;stop-opacity:1" offset="0"/><stop id="stop4226" style="stop-color:white;stop-opacity:0" offset="1"/></linearGradient><linearGradient id="linearGradient2872" x1="24.139" x2="24.139" y1="6.532" y2="47.273" gradientTransform="matrix(0.5399382,0,0,0.5366811,23.151077,23.493801)" gradientUnits="userSpaceOnUse" xlink:href="#linearGradient4222"/></defs><g id="layer1"><path id="path3468" d="m 3.5062498,8.4999995 c -0.690271,0.00767 -1.0004418,0.3421461 -1.0004418,1 0,5.5144545 0.026278,9.7395765 -0.00581,14.7504305 1.4354706,0 42.999998,-3.699732 42.999998,-5.292264 l 0,-6.451519 c 0,-0.657853 -0.554204,-1.007671 -1.244479,-1 l -20.255519,0 c -2.047483,0 -3.498891,-3.0066475 -5,-3.0066475 l -15.4937503,0 z" style="fill:url(#linearGradient2786);fill-opacity:1;stroke:url(#radialGradient2788);stroke-width:1.00000012;stroke-linecap:round;stroke-linejoin:round;stroke-miterlimit:4;stroke-opacity:1;stroke-dasharray:none;display:inline"/><g id="g7591" transform="matrix(0.9583333,0,0,0.6666667,1.0000008,15)" style="opacity:.4"><rect id="rect4173" width="40" height="9" x="4" y="39" style="fill:url(#linearGradient7596-975);fill-opacity:1;fill-rule:nonzero;stroke:none;stroke-width:1;marker:none;visibility:visible;display:inline;overflow:visible"/><path id="path5058" d="m 44,39.00031 c 0,0 0,8.999504 0,8.999504 1.654593,0.01694 4.000001,-2.016333 4,-4.500331 0,-2.483999 -1.846402,-4.499173 -4,-4.499173 z" style="fill:url(#radialGradient7598-526);fill-opacity:1;fill-rule:nonzero;stroke:none;stroke-width:1;marker:none;visibility:visible;display:inline;overflow:visible"/><path id="path5018" d="m 4,39.00031 c 0,0 0,8.999504 0,8.999504 C 2.3454068,48.016755 0,45.983481 0,43.499483 0,41.015484 1.8464008,39.00031 4,39.00031 z" style="fill:url(#radialGradient7600-312);fill-opacity:1;fill-rule:nonzero;stroke:none;stroke-width:1;marker:none;visibility:visible;display:inline;overflow:visible"/></g><path id="path3388" d="m 2.1628556,16.525193 c -1.072707,0.123694 -0.49977,1.402118 -0.585297,2.121012 0.392532,8.47009 0.788932,16.769455 1.179047,25.239602 0.341836,0.965693 1.594435,0.47116 2.388117,0.59375 13.1935444,0 26.3870894,0 39.5806354,0 1.08938,-0.106651 0.63646,-1.407681 0.7897,-2.152262 0.39254,-8.47009 0.78894,-16.769455 1.17905,-25.239602 -0.25117,-0.954289 -1.51951,-0.424014 -2.263123,-0.5625 -14.089374,0 -28.178751,0 -42.2681294,0 z" style="fill:url(#radialGradient2777);fill-opacity:1;stroke:url(#linearGradient2779);stroke-width:1;stroke-linecap:round;stroke-linejoin:round;stroke-miterlimit:4;stroke-opacity:1;stroke-dashoffset:0"/><path id="path6127" d="m 2.0582428,16.065146 43.8964752,4.03e-4 c 0.63416,0 1.045155,0.444611 1.045155,0.997367 L 45.755637,44.002247 C 45.755637,44.555002 45.245105,45 44.610947,45 L 3.4020122,45 C 2.7678523,45 2.2573195,44.555002 2.2573195,44.002247 L 1.0130886,17.0629 c 0,-0.552757 0.4109943,-0.997754 1.0451542,-0.997754 z" style="opacity:.4;fill:url(#linearGradient2774);fill-opacity:1;stroke:none"/><path id="path2435" d="m 46.5,17.5 c -13.53125,0 -30.46875,0 -44,0 0.3854167,8.177083 0.7708333,16.354167 1.15625,24.53125" style="fill:none;stroke:url(#radialGradient2771);stroke-width:.99999976;stroke-linecap:round;stroke-linejoin:round;stroke-miterlimit:4;stroke-opacity:1;stroke-dasharray:none"/><path id="path3455" d="M 45.75,16 C 31.20041,16.073348 16.645416,15.978851 2.09375,16 0.28698984,16.411117 1.2593433,18.46661 1.1213236,19.771525 1.3433531,23.934872 1.4443903,28.116464 1.7417851,32.268407 16.742298,29.905609 31.66833,27.661153 46.40625,25.21875 47.187241,22.632172 47.193628,19.548156 47.063607,16.789526 46.834471,16.284964 46.276599,15.988682 45.75,16 z" style="fill:url(#linearGradient2768);fill-opacity:1;stroke:none"/><rect id="rect3562" width="13" height="2" x="5" y="10" rx="1" ry="1" style="fill:#edbd74;fill-opacity:1;fill-rule:nonzero;stroke:none;stroke-width:1;marker:none;visibility:visible;display:block;overflow:visible;enable-background:accumulate"/><path id="path2447" d="m 48,45.482937 c 0,1.390135 -5.372583,2.517062 -12,2.517062 -6.627417,0 -12,-1.126927 -12,-2.517062 0,-1.390136 5.372583,-2.517063 12,-2.517063 6.627417,0 12,1.126927 12,2.517063 z" style="opacity:.3;fill:url(#radialGradient2903);fill-opacity:1;stroke:none;display:inline"/><path id="path2262" d="m 32.56638,32.494819 0,-5.994819 6.93362,0 0,5.994819 6,0 0,7.005181 -6,0 0,6 -6.939728,0 -0.02787,-6 -6.032403,0 0,-7.005181 6.06638,0 z" style="fill:url(#linearGradient2875);fill-opacity:1;fill-rule:evenodd;stroke:url(#linearGradient2877);stroke-width:1;stroke-linecap:butt;stroke-linejoin:round;stroke-miterlimit:4;stroke-opacity:1;stroke-dasharray:none;display:inline"/><path id="path2272" d="m 33.5,33.494819 0,-5.994819 5,0 0,5.994819 6,0 0,5.005181 -6,0 0,6 -5,0 0,-6 -6,0 0,-5.005181 6,0 z" style="opacity:.4;fill:none;stroke:url(#linearGradient2872);stroke-width:1;stroke-linecap:butt;stroke-linejoin:miter;stroke-miterlimit:4;stroke-opacity:1;stroke-dasharray:none;display:inline"/></g></svg>