<svg xmlns="http://www.w3.org/2000/svg" xmlns:svg="http://www.w3.org/2000/svg" xmlns:xlink="http://www.w3.org/1999/xlink" id="svg2405" width="48" height="48" version="1.1"><defs id="defs2407"><linearGradient id="linearGradient2091"><stop id="stop2093" style="stop-color:black;stop-opacity:1" offset="0"/><stop id="stop2095" style="stop-color:black;stop-opacity:0" offset="1"/></linearGradient><radialGradient id="radialGradient2177" cx="23.071" cy="35.127" r="10.319" fx="23.071" fy="35.127" gradientTransform="matrix(0.914812,0.01265023,-0.00821502,0.213562,2.253914,27.18889)" gradientUnits="userSpaceOnUse" xlink:href="#linearGradient2091"/><linearGradient id="linearGradient7916"><stop id="stop7918" style="stop-color:white;stop-opacity:1" offset="0"/><stop id="stop7920" style="stop-color:white;stop-opacity:.34020618" offset="1"/></linearGradient><linearGradient id="linearGradient2181" x1="31.865" x2="16.145" y1="17.13" y2="32.85" gradientTransform="matrix(1.0317991,-1.0287411,1.0317991,1.0287411,-26.552863,23.963668)" gradientUnits="userSpaceOnUse" xlink:href="#linearGradient7916"/><linearGradient id="linearGradient1322"><stop id="stop1324" style="stop-color:#b4b4b4;stop-opacity:1" offset="0"/><stop id="stop1326" style="stop-color:#505050;stop-opacity:1" offset="1"/></linearGradient><linearGradient id="linearGradient2179" x1="49.882" x2="34.163" y1="30.701" y2="46.421" gradientTransform="matrix(1.0317991,-1.0287411,1.0317991,1.0287411,-59.146403,28.538123)" gradientUnits="userSpaceOnUse" xlink:href="#linearGradient1322"/></defs><g id="layer1"><path id="path1361" d="m 33.278212,34.94062 a 10.31934,2.320194 0 1 1 -20.63868,0 10.31934,2.320194 0 1 1 20.63868,0 z" transform="matrix(2.3012055,0,0,1.9190478,-28.833071,-24.804743)" style="opacity:.2557078;fill:url(#radialGradient2177);fill-opacity:1;stroke:none"/><path id="text1314" d="M 41.892473,35.010753 31.5,24.993816 41.5,14.5 34.291383,8 24,18 13.5,8 6,14.739081 16.5,24.951073 6,35 13.5,42 23.987815,31.5 34.5,42 41.892473,35.010753 z" style="font-size:59.90107727px;font-style:normal;font-variant:normal;font-weight:700;font-stretch:normal;text-align:start;line-height:125%;writing-mode:lr-tb;text-anchor:start;fill:#555753;fill-opacity:1;stroke:#4d4d4d;stroke-width:.98169869;stroke-linecap:butt;stroke-linejoin:round;stroke-miterlimit:4;stroke-opacity:1;stroke-dasharray:none;font-family:Bitstream Vera Sans"/><path id="path7076" d="M 40.5,35 30,25 40,14.5 34.29224,9.5414417 24,19.5 13.5,9.5 7.5,15 18,24.944661 7.5,35 13.5,40.5 24,30 34.5,40.5 40.5,35 z" style="font-size:59.90107727px;font-style:normal;font-variant:normal;font-weight:700;font-stretch:normal;text-align:start;line-height:125%;writing-mode:lr-tb;text-anchor:start;opacity:.40860213;fill:url(#linearGradient2179);fill-opacity:1;stroke:url(#linearGradient2181);stroke-width:.98169869;stroke-linecap:butt;stroke-linejoin:round;stroke-miterlimit:4;stroke-opacity:1;stroke-dasharray:none;font-family:Bitstream Vera Sans"/></g></svg>