<svg xmlns="http://www.w3.org/2000/svg" xmlns:svg="http://www.w3.org/2000/svg" xmlns:xlink="http://www.w3.org/1999/xlink" id="svg2453" width="36" height="36" version="1.0"><metadata id="metadata77"/><defs id="defs2455"><linearGradient id="linearGradient3484"><stop id="stop3486" style="stop-color:#bdbdbd;stop-opacity:1" offset="0"/><stop id="stop3488" style="stop-color:#d0d0d0;stop-opacity:1" offset="1"/></linearGradient><radialGradient id="radialGradient2788" cx="2.25" cy="3.763" r="15.75" fx="2.25" fy="3.763" gradientTransform="matrix(-1.274898e-8,1.7142916,-2.159331,-1.4599595e-8,9.60702075,2.142750825)" gradientUnits="userSpaceOnUse" xlink:href="#linearGradient3484"/><linearGradient id="linearGradient6404"><stop id="stop6406" style="stop-color:#f9f9f9;stop-opacity:1" offset="0"/><stop id="stop6408" style="stop-color:#c9c9c9;stop-opacity:1" offset="1"/></linearGradient><linearGradient id="linearGradient2786" x1="47.242" x2="47.242" y1="9.887" y2="12.143" gradientTransform="translate(-38.2056735,0)" gradientUnits="userSpaceOnUse" xlink:href="#linearGradient6404"/><linearGradient id="linearGradient5060-820"><stop id="stop2681" style="stop-color:black;stop-opacity:1" offset="0"/><stop id="stop2683" style="stop-color:black;stop-opacity:0" offset="1"/></linearGradient><radialGradient id="radialGradient7600-312" cx="454.286" cy="364.986" r="87.857" fx="454.286" fy="364.986" gradientTransform="matrix(-0.03212956,0,0,0.03705882,17.52241125,19.05934575)" gradientUnits="userSpaceOnUse" xlink:href="#linearGradient5060-820"/><linearGradient id="linearGradient5060-179"><stop id="stop2675" style="stop-color:black;stop-opacity:1" offset="0"/><stop id="stop2677" style="stop-color:black;stop-opacity:0" offset="1"/></linearGradient><radialGradient id="radialGradient7598-526" cx="454.286" cy="364.986" r="87.857" fx="454.286" fy="364.986" gradientTransform="matrix(0.03212956,0,0,0.03705882,18.47758875,19.05934575)" gradientUnits="userSpaceOnUse" xlink:href="#linearGradient5060-179"/><linearGradient id="linearGradient5048-585"><stop id="stop2667" style="stop-color:black;stop-opacity:0" offset="0"/><stop id="stop2669" style="stop-color:black;stop-opacity:1" offset=".5"/><stop id="stop2671" style="stop-color:black;stop-opacity:0" offset="1"/></linearGradient><linearGradient id="linearGradient7596-975" x1="227.143" x2="227.143" y1="274.986" y2="457.129" gradientTransform="matrix(0.08284024,0,0,0.03705882,-4.455621375,19.05934575)" gradientUnits="userSpaceOnUse" xlink:href="#linearGradient5048-585"/><linearGradient id="linearGradient3390-178-986-453"><stop id="stop3624" style="stop-color:#bb5e12;stop-opacity:1" offset="0"/><stop id="stop3626" style="stop-color:#cd8033;stop-opacity:1" offset="1"/></linearGradient><linearGradient id="linearGradient2779" x1="61.84" x2="49.005" y1="33.836" y2="11.958" gradientTransform="translate(-40.32404475,-0.085644675)" gradientUnits="userSpaceOnUse" xlink:href="#linearGradient3390-178-986-453"/><linearGradient id="linearGradient7012-661-145-733-759-865-745-661-970-94"><stop id="stop3618" style="stop-color:#edd563;stop-opacity:1" offset="0"/><stop id="stop3620" style="stop-color:#e08223;stop-opacity:1" offset="1"/></linearGradient><radialGradient id="radialGradient2777" cx="47.977" cy="10.585" r="17.323" fx="47.977" fy="10.585" gradientTransform="matrix(1.5646925,-9.5143002e-8,6.1772287e-8,1.015888,-64.65942975,6.109587975)" gradientUnits="userSpaceOnUse" xlink:href="#linearGradient7012-661-145-733-759-865-745-661-970-94"/><linearGradient id="linearGradient6129-963-697-142-998-580-273"><stop id="stop2661" style="stop-color:#0a0a0a;stop-opacity:.498" offset="0"/><stop id="stop2663" style="stop-color:#0a0a0a;stop-opacity:0" offset="1"/></linearGradient><linearGradient id="linearGradient2774" x1="17.201" x2="17.107" y1="37.222" y2="27.493" gradientTransform="matrix(1.1446925,0,0,0.9977536,-2.599605975,0.824131875)" gradientUnits="userSpaceOnUse" xlink:href="#linearGradient6129-963-697-142-998-580-273"/><linearGradient id="linearGradient6087-437-184-795-110-662-495"><stop id="stop2693" style="stop-color:white;stop-opacity:.40000001" offset="0"/><stop id="stop2695" style="stop-color:white;stop-opacity:0" offset="1"/></linearGradient><radialGradient id="radialGradient2771" cx="5.448" cy="6.227" r="15.735" fx="5.448" fy="6.227" gradientTransform="matrix(0,1.2079744,-1.6271642,0,19.778811,6.199851375)" gradientUnits="userSpaceOnUse" xlink:href="#linearGradient6087-437-184-795-110-662-495"/><linearGradient id="linearGradient8265-821-176-38-919-66-249"><stop id="stop2687" style="stop-color:white;stop-opacity:.27450982" offset="0"/><stop id="stop2689" style="stop-color:white;stop-opacity:.07843138" offset="1"/></linearGradient><linearGradient id="linearGradient2768" x1="8.675" x2="11.411" y1="16.719" y2="25.466" gradientUnits="userSpaceOnUse" xlink:href="#linearGradient8265-821-176-38-919-66-249"/><linearGradient id="linearGradient2091"><stop id="stop2093" style="stop-color:black;stop-opacity:1" offset="0"/><stop id="stop2095" style="stop-color:black;stop-opacity:0" offset="1"/></linearGradient><radialGradient id="radialGradient2903" cx="17.303" cy="26.346" r="7.74" fx="17.303" fy="26.346" gradientTransform="matrix(1.0638029,0.0137236,-0.00955296,0.2316828,8.94219525,27.805104)" gradientUnits="userSpaceOnUse" xlink:href="#linearGradient2091"/><linearGradient id="linearGradient3497"><stop id="stop3499" style="stop-color:#699536;stop-opacity:1" offset="0"/><stop id="stop3501" style="stop-color:#587d2d;stop-opacity:1" offset="1"/></linearGradient><linearGradient id="linearGradient2877" x1="21.643" x2="21.643" y1="19.5" y2="34.555" gradientUnits="userSpaceOnUse" xlink:href="#linearGradient3497"/><linearGradient id="linearGradient2264"><stop id="stop2266" style="stop-color:#d7e866;stop-opacity:1" offset="0"/><stop id="stop2268" style="stop-color:#8cab2a;stop-opacity:1" offset="1"/></linearGradient><linearGradient id="linearGradient2875" x1="18.078" x2="18.078" y1="11.377" y2="24.364" gradientTransform="matrix(0.8988874,0,0,0.8934652,10.902222,11.57552025)" gradientUnits="userSpaceOnUse" xlink:href="#linearGradient2264"/><linearGradient id="linearGradient4222"><stop id="stop4224" style="stop-color:white;stop-opacity:1" offset="0"/><stop id="stop4226" style="stop-color:white;stop-opacity:0" offset="1"/></linearGradient><linearGradient id="linearGradient2872" x1="18.104" x2="18.104" y1="4.899" y2="35.455" gradientTransform="matrix(0.5399382,0,0,0.5366811,17.36330775,17.62035075)" gradientUnits="userSpaceOnUse" xlink:href="#linearGradient4222"/></defs><g id="layer1"><path id="path3468" d="m 2.62968735,6.374999625 c -0.51770325,0.0057525 -0.75033135,0.256609575 -0.75033135,0.75 0,4.135840875 0.0197085,7.304682375 -0.0043575,11.062822875 1.07660295,0 32.2499985,-2.774799 32.2499985,-3.969198 l 0,-4.83863925 c 0,-0.49338975 -0.415653,-0.75575325 -0.93335925,-0.75 l -15.19163925,0 c -1.53561225,0 -2.62416825,-2.254985625 -3.75,-2.254985625 l -11.620312725,0 z" style="fill:url(#linearGradient2786);fill-opacity:1;stroke:url(#radialGradient2788);stroke-width:.75000009;stroke-linecap:round;stroke-linejoin:round;stroke-miterlimit:4;stroke-opacity:1;stroke-dasharray:none;display:inline"/><g id="g7591" transform="matrix(0.9583333,0,0,0.6666667,0.7500006,11.25)" style="opacity:.4"><rect id="rect4173" width="30" height="6.75" x="3" y="29.25" style="fill:url(#linearGradient7596-975);fill-opacity:1;fill-rule:nonzero;stroke:none;stroke-width:.75;marker:none;visibility:visible;display:inline;overflow:visible"/><path id="path5058" d="m 33,29.2502325 c 0,0 0,6.749628 0,6.749628 1.24094475,0.012705 3.00000075,-1.51224975 3,-3.37524825 0,-1.86299925 -1.3848015,-3.37437975 -3,-3.37437975 z" style="fill:url(#radialGradient7598-526);fill-opacity:1;fill-rule:nonzero;stroke:none;stroke-width:.75;marker:none;visibility:visible;display:inline;overflow:visible"/><path id="path5018" d="m 3,29.2502325 c 0,0 0,6.749628 0,6.749628 C 1.7590551,36.01256625 0,34.48761075 0,32.62461225 0,30.761613 1.3848006,29.2502325 3,29.2502325 z" style="fill:url(#radialGradient7600-312);fill-opacity:1;fill-rule:nonzero;stroke:none;stroke-width:.75;marker:none;visibility:visible;display:inline;overflow:visible"/></g><path id="path3388" d="m 1.6221417,12.39389475 c -0.80453025,0.0927705 -0.3748275,1.0515885 -0.43897275,1.590759 0.294399,6.3525675 0.591699,12.57709125 0.88428525,18.9297015 0.256377,0.72426975 1.19582625,0.35337 1.79108775,0.4453125 9.8951583,0 19.79031705,0 29.68547655,0 0.817035,-0.07998825 0.477345,-1.05576075 0.592275,-1.6141965 0.294405,-6.3525675 0.591705,-12.57709125 0.8842875,-18.9297015 -0.1883775,-0.71571675 -1.1396325,-0.3180105 -1.69734225,-0.421875 -10.5670305,0 -21.13406325,0 -31.70109705,0 z" style="fill:url(#radialGradient2777);fill-opacity:1;stroke:url(#linearGradient2779);stroke-width:.75;stroke-linecap:round;stroke-linejoin:round;stroke-miterlimit:4;stroke-opacity:1;stroke-dashoffset:0"/><path id="path6127" d="m 1.5436821,12.0488595 32.9223564,0.00030225 c 0.47562,0 0.78386625,0.33345825 0.78386625,0.74802525 L 34.31672775,33.00168525 C 34.31672775,33.4162515 33.93382875,33.75 33.45821025,33.75 L 2.55150915,33.75 C 2.075889225,33.75 1.692989625,33.4162515 1.692989625,33.00168525 L 0.75981645,12.797175 c 0,-0.41456775 0.308245725,-0.7483155 0.78386565,-0.7483155 z" style="opacity:.4;fill:url(#linearGradient2774);fill-opacity:1;stroke:none"/><path id="path2435" d="m 34.875,13.125 c -10.1484375,0 -22.8515625,0 -33,0 0.289062525,6.13281225 0.578124975,12.26562525 0.8671875,18.3984375" style="fill:none;stroke:url(#radialGradient2771);stroke-width:.74999982;stroke-linecap:round;stroke-linejoin:round;stroke-miterlimit:4;stroke-opacity:1;stroke-dasharray:none"/><path id="path3455" d="M 34.3125,12 C 23.4003075,12.055011 12.484062,11.98413825 1.5703125,12 0.21524238,12.30833775 0.944507475,13.8499575 0.8409927,14.82864375 1.007514825,17.951154 1.083292725,21.087348 1.306338825,24.20130525 12.5567235,22.42920675 23.7512475,20.74586475 34.8046875,18.9140625 35.39043075,16.974129 35.395221,14.661117 35.29770525,12.5921445 35.12585325,12.213723 34.70744925,11.9915115 34.3125,12 z" style="fill:url(#linearGradient2768);fill-opacity:1;stroke:none"/><rect id="rect3562" width="9.75" height="1.5" x="3.75" y="7.5" rx=".75" ry=".75" style="fill:#edbd74;fill-opacity:1;fill-rule:nonzero;stroke:none;stroke-width:.75;marker:none;visibility:visible;display:block;overflow:visible;enable-background:accumulate"/><path id="path2447" d="m 36,34.11220275 c 0,1.04260125 -4.02943725,1.8877965 -9,1.8877965 -4.97056275,0 -9,-0.84519525 -9,-1.8877965 0,-1.042602 4.02943725,-1.88779725 9,-1.88779725 4.97056275,0 9,0.84519525 9,1.88779725 z" style="opacity:.3;fill:url(#radialGradient2903);fill-opacity:1;stroke:none;display:inline"/></g></svg>