<svg xmlns="http://www.w3.org/2000/svg" xmlns:svg="http://www.w3.org/2000/svg" xmlns:xlink="http://www.w3.org/1999/xlink" id="svg3858" width="36" height="36" version="1.1"><metadata id="metadata115"/><defs id="defs3860"><linearGradient id="linearGradient8589"><stop id="stop8591" style="stop-color:#fefefe;stop-opacity:1" offset="0"/><stop id="stop8593" style="stop-color:#cbcbcb;stop-opacity:1" offset="1"/></linearGradient><linearGradient id="linearGradient5573" x1="24.669" x2="27.269" y1="6.044" y2="4.092" gradientTransform="matrix(0.9976985,0,0,1.0642049,59.94333,8.46075525)" gradientUnits="userSpaceOnUse" xlink:href="#linearGradient8589"/><linearGradient id="linearGradient3931"><stop id="stop3933" style="stop-color:#8d8f8a;stop-opacity:1" offset="0"/><stop id="stop3935" style="stop-color:#cbcbcb;stop-opacity:1" offset="1"/></linearGradient><linearGradient id="linearGradient5571" x1="-38.84" x2="-38.84" y1="38.09" y2="2.18" gradientTransform="matrix(0.8074968,0,0,0.9358511,104.3781525,4.72934055)" gradientUnits="userSpaceOnUse" xlink:href="#linearGradient3931"/><linearGradient id="linearGradient3600"><stop id="stop3602" style="stop-color:#f4f4f4;stop-opacity:1" offset="0"/><stop id="stop3604" style="stop-color:#dbdbdb;stop-opacity:1" offset="1"/></linearGradient><linearGradient id="linearGradient5569" x1="18.849" x2="18.849" y1="5.047" y2="35.26" gradientTransform="translate(59.82048,5.56520055)" gradientUnits="userSpaceOnUse" xlink:href="#linearGradient3600"/><radialGradient id="radialGradient5567" cx="454.286" cy="364.986" r="87.857" fx="454.286" fy="364.986" gradientTransform="matrix(0.02409717,0,0,0.01537476,19.858188,28.97177925)" gradientUnits="userSpaceOnUse" xlink:href="#linearGradient5060"/><linearGradient id="linearGradient5060"><stop id="stop5062" style="stop-color:#000;stop-opacity:1" offset="0"/><stop id="stop5064" style="stop-color:#000;stop-opacity:0" offset="1"/></linearGradient><radialGradient id="radialGradient5565" cx="454.286" cy="364.986" r="87.857" fx="454.286" fy="364.986" gradientTransform="matrix(-0.02409717,0,0,0.01537476,16.141809,28.97177925)" gradientUnits="userSpaceOnUse" xlink:href="#linearGradient5060"/><linearGradient id="linearGradient5048"><stop id="stop5050" style="stop-color:#000;stop-opacity:0" offset="0"/><stop id="stop5056" style="stop-color:#000;stop-opacity:1" offset=".5"/><stop id="stop5052" style="stop-color:#000;stop-opacity:0" offset="1"/></linearGradient><linearGradient id="linearGradient5563" x1="227.143" x2="227.143" y1="274.986" y2="457.129" gradientTransform="matrix(0.0704142,0,0,0.01537476,-1.087278525,28.97175525)" gradientUnits="userSpaceOnUse" xlink:href="#linearGradient5048"/><linearGradient id="linearGradient4873"><stop id="stop4875" style="stop-color:#fff;stop-opacity:1" offset="0"/><stop id="stop4877" style="stop-color:#fff;stop-opacity:0" offset="1"/></linearGradient><linearGradient id="linearGradient2509" x1="16.222" x2="16.684" y1="1.583" y2="32.525" gradientTransform="matrix(0.4873978,0,0,0.4781595,-8.91717075,1.27553385)" gradientUnits="userSpaceOnUse" xlink:href="#linearGradient4873"/><linearGradient id="linearGradient3533"><stop id="stop3535" style="stop-color:#93b9dd;stop-opacity:1" offset="0"/><stop id="stop3545" style="stop-color:#6396cd;stop-opacity:1" offset="1"/></linearGradient><linearGradient id="linearGradient2517" x1="11.53" x2="11.53" y1="3.785" y2="16.95" gradientTransform="matrix(0.4873978,0,0,0.4781595,-8.91717075,1.27553385)" gradientUnits="userSpaceOnUse" xlink:href="#linearGradient3533"/></defs><g id="layer1"><g id="g5516" transform="translate(-59.82048,-7.06520175)" style="display:inline"><g id="g2877" transform="matrix(0.80159266,0,0,0.9561265,65.36211825,7.14464805)"><rect id="rect2879" width="25.5" height="2.8" x="5.25" y="33.2" style="opacity:.40206185;fill:url(#linearGradient5563);fill-opacity:1;fill-rule:nonzero;stroke:none;stroke-width:.75;marker:none;visibility:visible;display:inline;overflow:visible"/><path id="path2881" d="m 5.25,33.19971825 c 0,0 0,2.80024875 0,2.80024875 -0.9307086,0.00525 -2.25,-0.62739375 -2.25,-1.40030475 0,-0.77291025 1.038600525,-1.39994325 2.25,-1.399944 z" style="opacity:.40206185;fill:url(#radialGradient5565);fill-opacity:1;fill-rule:nonzero;stroke:none;stroke-width:.75;marker:none;visibility:visible;display:inline;overflow:visible"/><path id="path2883" d="m 30.75,33.19971825 c 0,0 0,2.80024875 0,2.80024875 0.930708,0.00525 2.25,-0.62739375 2.25,-1.40030475 0,-0.77291025 -1.03860075,-1.39994325 -2.25,-1.399944 z" style="opacity:.40206185;fill:url(#radialGradient5567);fill-opacity:1;fill-rule:nonzero;stroke:none;stroke-width:.75;marker:none;visibility:visible;display:inline;overflow:visible"/></g><path id="rect2594" d="m 67.69548,9.69017025 c 6.0152175,0 9.0304125,0 15.04563,0 1.055205,0.364035 6.724095,4.511355 8.2044,7.38297 0,8.789025 0,14.5780575 0,23.36709 -8.7500175,0 -14.5000125,0 -23.25003,0 0,-11.2500225 0,-19.5000375 0,-30.75006 z" style="fill:url(#linearGradient5569);fill-opacity:1;stroke:url(#linearGradient5571);stroke-width:.74994135;stroke-linecap:butt;stroke-linejoin:round;stroke-miterlimit:4;stroke-opacity:1;stroke-dasharray:none;stroke-dashoffset:0"/><path id="path8596" d="m 82.146135,9.92616525 c 0.478125,3.093795 0.457095,6.7758525 0.457095,6.7758525 0,0 3.6522975,-0.083625 8.1639375,0.4454475 -3.67266,-3.59085 -6.2463375,-5.088135 -8.6210325,-7.2213 z" style="fill:#000;fill-opacity:.32663317;fill-rule:evenodd;stroke:#000;stroke-width:.375;stroke-linecap:butt;stroke-linejoin:round;stroke-miterlimit:4;stroke-opacity:.16582917;stroke-dasharray:none;display:inline"/><path id="path12038" d="m 82.06392,9.69614775 c 1.059165,3.091875 0.9713175,6.195525 0.9713175,6.195525 0,0 5.87475,0.4104825 7.631355,1.1954475 0,-1.283355 -6.973125,-7.369065 -8.6026725,-7.3909725 z" style="fill:url(#linearGradient5573);fill-opacity:1;fill-rule:evenodd;stroke:none;display:inline"/></g><rect id="rect2874" width="18" height=".75" x="10.5" y="13.5" rx=".321" ry=".375" style="fill:#babdb6;fill-opacity:1;stroke:none;display:inline"/><rect id="rect2890" width="18" height=".75" x="10.5" y="15.75" rx=".321" ry=".375" style="fill:#babdb6;fill-opacity:1;stroke:none;display:inline"/><rect id="rect2892" width="18" height=".75" x="10.5" y="18" rx=".321" ry=".375" style="fill:#babdb6;fill-opacity:1;stroke:none;display:inline"/><rect id="rect2894" width="18" height=".75" x="10.5" y="22.5" rx=".321" ry=".375" style="fill:#babdb6;fill-opacity:1;stroke:none;display:inline"/><rect id="rect2898" width="18" height=".75" x="10.5" y="24.75" rx=".321" ry=".375" style="fill:#babdb6;fill-opacity:1;stroke:none;display:inline"/><rect id="rect2900" width="18" height=".75" x="10.5" y="27" rx=".321" ry=".375" style="fill:#babdb6;fill-opacity:1;stroke:none;display:inline"/><rect id="rect1984" width="18" height=".75" x="10.5" y="20.25" rx=".321" ry=".375" style="fill:#babdb6;fill-opacity:1;stroke:none;display:inline"/></g></svg>