<svg xmlns="http://www.w3.org/2000/svg" xmlns:svg="http://www.w3.org/2000/svg" xmlns:xlink="http://www.w3.org/1999/xlink" id="svg3221" width="48" height="48" version="1.0"><defs id="defs3223"><linearGradient id="linearGradient2804"><stop id="stop2806" style="stop-color:black;stop-opacity:0" offset="0"/><stop id="stop2812" style="stop-color:black;stop-opacity:1" offset=".5"/><stop id="stop2808" style="stop-color:black;stop-opacity:0" offset="1"/></linearGradient><linearGradient id="linearGradient3936" x1="21.875" x2="21.875" y1="48.001" y2="40" gradientUnits="userSpaceOnUse" xlink:href="#linearGradient2804"/><radialGradient id="radialGradient3934" cx="1" cy="44" r="5" fx="1" fy="44" gradientTransform="matrix(2,0,0,0.8,36,8.8)" gradientUnits="userSpaceOnUse" xlink:href="#linearGradient2781"/><linearGradient id="linearGradient2781"><stop id="stop2783" style="stop-color:black;stop-opacity:1" offset="0"/><stop id="stop2785" style="stop-color:black;stop-opacity:0" offset="1"/></linearGradient><radialGradient id="radialGradient3932" cx="1" cy="44" r="5" fx="1" fy="44" gradientTransform="matrix(2,0,0,0.8,-13,-79.2)" gradientUnits="userSpaceOnUse" xlink:href="#linearGradient2781"/><linearGradient id="linearGradient6375"><stop id="stop6377" style="stop-color:#040404;stop-opacity:1" offset="0"/><stop id="stop6379" style="stop-color:#606060;stop-opacity:1" offset="1"/></linearGradient><linearGradient id="linearGradient2475" x1="3.626" x2="41.968" y1="2.585" y2="40.926" gradientTransform="matrix(-1.03302,0,0,-1.0330201,47.242952,48.242957)" gradientUnits="userSpaceOnUse" xlink:href="#linearGradient6375"/><linearGradient id="linearGradient2388"><stop id="stop2390" style="stop-color:#010306;stop-opacity:1" offset="0"/><stop id="stop2392" style="stop-color:#010306;stop-opacity:.39607844" offset="1"/></linearGradient><linearGradient id="linearGradient2472" x1="33.349" x2="35.974" y1="28.693" y2="33.049" gradientTransform="matrix(-1.0465566,0,0,-1.0194947,48.617356,47.680519)" gradientUnits="userSpaceOnUse" xlink:href="#linearGradient2388"/><linearGradient id="linearGradient2294"><stop id="stop2296" style="stop-color:#262626;stop-opacity:1" offset="0"/><stop id="stop2298" style="stop-color:#122339;stop-opacity:0" offset="1"/></linearGradient><linearGradient id="linearGradient4733" x1="18.75" x2="18.827" y1="27.655" y2="36.775" gradientTransform="matrix(1.0625761,0,0,1.019071,-48.78281,-47.665691)" gradientUnits="userSpaceOnUse" xlink:href="#linearGradient2294"/><linearGradient id="linearGradient4235"><stop id="stop4237" style="stop-color:#d4d4dc;stop-opacity:1" offset="0"/><stop id="stop4239" style="stop-color:#848489;stop-opacity:1" offset="1"/></linearGradient><linearGradient id="linearGradient4731" x1="10" x2="31" y1="27.996" y2="42" gradientTransform="matrix(-1.062576,0,0,-1.019071,48.782807,47.66569)" gradientUnits="userSpaceOnUse" xlink:href="#linearGradient4235"/><linearGradient id="linearGradient2249"><stop id="stop2251" style="stop-color:#010306;stop-opacity:1" offset="0"/><stop id="stop2253" style="stop-color:#010306;stop-opacity:0" offset="1"/></linearGradient><linearGradient id="linearGradient4727" x1="37.625" x2="37.625" y1="7.625" y2="3.483" gradientTransform="matrix(1.041515,0,0,-1.0566113,0.5659129,48.320867)" gradientUnits="userSpaceOnUse" xlink:href="#linearGradient2249"/><linearGradient id="linearGradient2268"><stop id="stop2270" style="stop-color:#eeeeec;stop-opacity:1" offset="0"/><stop id="stop2272" style="stop-color:white;stop-opacity:1" offset="1"/></linearGradient><linearGradient id="linearGradient4725" x1="21.875" x2="21.875" y1="7.606" y2="18.514" gradientTransform="matrix(1.0444099,0,0,1.0592128,0.5007808,-48.328987)" gradientUnits="userSpaceOnUse" xlink:href="#linearGradient2268"/><linearGradient id="linearGradient2555"><stop id="stop2557" style="stop-color:white;stop-opacity:1" offset="0"/><stop id="stop2561" style="stop-color:#e6e6e6;stop-opacity:1" offset=".5"/><stop id="stop2563" style="stop-color:white;stop-opacity:1" offset=".75"/><stop id="stop2565" style="stop-color:#e1e1e1;stop-opacity:1" offset=".842"/><stop id="stop2559" style="stop-color:white;stop-opacity:1" offset="1"/></linearGradient><linearGradient id="linearGradient4723" x1="10" x2="31" y1="27.996" y2="42" gradientTransform="matrix(-1.062576,0,0,-1.019071,48.782807,47.66569)" gradientUnits="userSpaceOnUse" xlink:href="#linearGradient2555"/><linearGradient id="linearGradient2319"><stop id="stop2321" style="stop-color:white;stop-opacity:1" offset="0"/><stop id="stop2323" style="stop-color:white;stop-opacity:0" offset="1"/></linearGradient><linearGradient id="linearGradient3219" x1="20.485" x2="20.485" y1="40.865" y2="29.135" gradientTransform="matrix(-1.093999,0,0,-1.0598351,49.384174,49.092432)" gradientUnits="userSpaceOnUse" xlink:href="#linearGradient2319"/></defs><g id="layer1"><g id="g2822" transform="matrix(1.0212766,0,0,1.037397,-1.0212767,-1.795056)" style="opacity:.3"><rect id="rect1892" width="10" height="8" x="-11" y="-48" transform="scale(-1,-1)" style="fill:url(#radialGradient3932);fill-opacity:1;fill-rule:nonzero;stroke:none;stroke-width:1;marker:none;visibility:visible;display:inline;overflow:visible"/><rect id="rect2789" width="10" height="8" x="38" y="40" style="fill:url(#radialGradient3934);fill-opacity:1;fill-rule:nonzero;stroke:none;stroke-width:1;marker:none;visibility:visible;display:inline;overflow:visible"/><rect id="rect2793" width="27" height="8" x="11" y="40" style="fill:url(#linearGradient3936);fill-opacity:1;fill-rule:nonzero;stroke:none;stroke-width:1;marker:none;visibility:visible;display:inline;overflow:visible"/></g><path id="rect1314" d="m 42.832089,44.627381 -37.6641738,0 c -0.8599294,0 -0.795296,0.06464 -0.795296,-0.795291 l 0,-37.6641778 c 0,-0.8599306 -0.064633,-0.7952929 0.795296,-0.7952929 l 34.8438978,0 3.615568,3.6155716 0,34.8438991 c 0,0.859928 0.06464,0.795291 -0.795292,0.795291 z" style="fill:url(#linearGradient2475);fill-opacity:1;fill-rule:nonzero;stroke:#121212;stroke-width:.74303091;stroke-linecap:round;stroke-linejoin:round;stroke-miterlimit:4;stroke-opacity:1;stroke-dasharray:none;stroke-dashoffset:0;marker:none;visibility:visible;display:inline;overflow:visible"/><path id="rect2194" d="m 34.943988,18.624919 -23.934537,0 c -0.907433,0 -1.6379654,-0.711646 -1.6379654,-1.595615 l 0,-11.6578184 27.2104724,0 0,11.6578184 c 0,0.883969 -0.730533,1.595615 -1.63797,1.595615 z" style="opacity:.26190473;fill:none;stroke:url(#linearGradient2472);stroke-width:.74297124;stroke-linecap:round;stroke-linejoin:round;stroke-miterlimit:4;stroke-opacity:1;stroke-dasharray:none;stroke-dashoffset:0;marker:none;visibility:visible;display:inline;overflow:visible"/><rect id="rect2284" width="7.438" height="10.191" x="-34.438" y="-17.603" transform="scale(-1,-1)" style="fill:url(#linearGradient4733);fill-opacity:1;fill-rule:nonzero;stroke:none;stroke-width:.75;marker:none;visibility:visible;display:inline;overflow:visible"/><path id="rect2192" d="m 36.23113,18.622166 c 0.320361,-0.03883 0.631795,-0.189914 0.863342,-0.382154 0.321031,-0.279721 0.531288,-0.695788 0.531288,-1.146455 l 0,-11.7193169 -21.251519,0 0,11.7193169 c 0,0.848319 0.709329,1.528609 1.593864,1.528609 l 18.063792,0 c 0.0691,0 0.132489,0.0081 0.199233,0 z m -3.320552,-2.038145 c -0.03916,0.0076 -0.09124,0 -0.132821,0 l -4.117482,0 c -0.135142,0 -0.265133,-0.05566 -0.365261,-0.127386 -0.02963,-0.02343 -0.07518,-0.06712 -0.09962,-0.09553 -0.07479,-0.09603 -0.132822,-0.220697 -0.132822,-0.350305 l 0,-7.0061144 c 0,-0.1296085 0.05803,-0.2542743 0.132822,-0.3503048 0.02444,-0.028419 0.06998,-0.072105 0.09962,-0.09554 0.100128,-0.071724 0.230119,-0.1273835 0.365261,-0.1273835 l 4.117482,0 c 0.135142,0 0.265133,0.055659 0.365259,0.1273835 0.02963,0.023435 0.07518,0.067122 0.09962,0.09554 0.07479,0.09603 0.132824,0.2206963 0.132824,0.3503048 l 0,7.0061144 c 0,0.129608 -0.05803,0.254275 -0.132824,0.350305 -0.02443,0.02842 -0.06998,0.0721 -0.09962,0.09553 -0.06932,0.04966 -0.144332,0.110182 -0.232438,0.127386 z" style="fill:url(#linearGradient4731);fill-opacity:1;fill-rule:nonzero;stroke:#555753;stroke-width:.74848032;stroke-linecap:round;stroke-linejoin:round;stroke-miterlimit:4;stroke-opacity:1;stroke-dasharray:none;stroke-dashoffset:0;marker:none;visibility:visible;display:inline;overflow:visible"/><rect id="rect2278" width="2.066" height="2.066" x="5.922" y="-42.045" transform="scale(1,-1)" style="opacity:.2;fill:#fff;fill-opacity:1;fill-rule:nonzero;stroke:none;stroke-width:.75;marker:none;visibility:visible;display:inline;overflow:visible"/><rect id="rect2276" width="1.033" height="1.033" x="5.922" y="-42.045" transform="scale(1,-1)" style="fill:#010306;fill-opacity:1;fill-rule:nonzero;stroke:none;stroke-width:.75;marker:none;visibility:visible;display:inline;overflow:visible"/><rect id="rect2280" width="2.066" height="2.066" x="40.012" y="-42.045" transform="scale(1,-1)" style="opacity:.2;fill:#fff;fill-opacity:1;fill-rule:nonzero;stroke:none;stroke-width:.75;marker:none;visibility:visible;display:inline;overflow:visible"/><rect id="rect2282" width="1.033" height="1.033" x="40.012" y="-42.045" transform="scale(1,-1)" style="fill:#010306;fill-opacity:1;fill-rule:nonzero;stroke:none;stroke-width:.75;marker:none;visibility:visible;display:inline;overflow:visible"/><path id="rect2247" d="m 39.622725,44.622725 0,-21.644391 c 0,-0.886986 -0.703871,-1.601058 -1.578181,-1.601058 l -28.0890871,0 c -0.8743124,0 -1.5781813,0.714072 -1.5781813,1.601058 l 0,21.644391 31.2454494,0 z" style="opacity:.6;fill:none;stroke:url(#linearGradient4727);stroke-width:.75455093;stroke-linecap:round;stroke-linejoin:round;stroke-miterlimit:4;stroke-opacity:1;stroke-dasharray:none;stroke-dashoffset:0;marker:none;visibility:visible;display:inline;overflow:visible"/><rect id="rect2257" width="29.243" height="22.243" x="9.378" y="-44.622" rx=".197" ry=".2" transform="scale(1,-1)" style="fill:url(#linearGradient4725);fill-opacity:1;fill-rule:nonzero;stroke:#e2e2df;stroke-width:.75652844;stroke-linecap:round;stroke-linejoin:round;stroke-miterlimit:4;stroke-opacity:1;stroke-dasharray:none;stroke-dashoffset:0;marker:none;visibility:visible;display:inline;overflow:visible"/><path id="path2264" d="m 9.4148795,44.626915 29.1702415,0" style="fill:#3f6cff;fill-opacity:.75;fill-rule:evenodd;stroke:#575757;stroke-width:.746171;stroke-linecap:round;stroke-linejoin:round;stroke-miterlimit:4;stroke-opacity:1;stroke-dasharray:none;display:inline"/><path id="path2329" d="m 9.3744109,36.500663 29.2511781,0" style="fill:none;stroke:#d3d7cf;stroke-width:.86457807;stroke-linecap:round;stroke-linejoin:round;stroke-miterlimit:4;stroke-opacity:1;stroke-dasharray:none;display:inline"/><path id="path2331" d="m 9.3744109,28.500663 29.2511781,0" style="fill:none;stroke:#d3d7cf;stroke-width:.86457807;stroke-linecap:round;stroke-linejoin:round;stroke-miterlimit:4;stroke-opacity:1;stroke-dasharray:none;display:inline"/><path id="path7255" d="m 36.23113,18.622166 c 0.320361,-0.03883 0.631795,-0.189914 0.863342,-0.382154 0.321031,-0.279721 0.531288,-0.695788 0.531288,-1.146455 l 0,-11.7193169 -21.251519,0 0,11.7193169 c 0,0.848319 0.709329,1.528609 1.593864,1.528609 l 18.063792,0 c 0.0691,0 0.132489,0.0081 0.199233,0 z m -3.320552,-2.038145 c -0.03916,0.0076 -0.09124,0 -0.132821,0 l -4.117482,0 c -0.135142,0 -0.265133,-0.05566 -0.365261,-0.127386 -0.02963,-0.02343 -0.07518,-0.06712 -0.09962,-0.09553 -0.07479,-0.09603 -0.132822,-0.220697 -0.132822,-0.350305 l 0,-7.0061144 c 0,-0.1296085 0.05803,-0.2542743 0.132822,-0.3503048 0.02444,-0.028419 0.06998,-0.072105 0.09962,-0.09554 0.100128,-0.071724 0.230119,-0.1273835 0.365261,-0.1273835 l 4.117482,0 c 0.135142,0 0.265133,0.055659 0.365259,0.1273835 0.02963,0.023435 0.07518,0.067122 0.09962,0.09554 0.07479,0.09603 0.132824,0.2206963 0.132824,0.3503048 l 0,7.0061144 c 0,0.129608 -0.05803,0.254275 -0.132824,0.350305 -0.02443,0.02842 -0.06998,0.0721 -0.09962,0.09553 -0.06932,0.04966 -0.144332,0.110182 -0.232438,0.127386 z" style="opacity:.5;fill:url(#linearGradient4723);fill-opacity:1;fill-rule:nonzero;stroke:#555753;stroke-width:.74848032;stroke-linecap:round;stroke-linejoin:round;stroke-miterlimit:4;stroke-opacity:1;stroke-dasharray:none;stroke-dashoffset:0;marker:none;visibility:visible;display:inline;overflow:visible"/><path id="rect2316" d="m 36.256187,17.827295 -18.564803,0 c -0.321418,0 -0.58018,-0.250681 -0.58018,-0.562063 l 0,-11.0961234 19.725161,0 0,11.0961234 c 0,0.311382 -0.258759,0.562063 -0.580178,0.562063 z" style="opacity:.4;fill:none;stroke:url(#linearGradient3219);stroke-width:.7745077;stroke-linecap:round;stroke-linejoin:round;stroke-miterlimit:4;stroke-opacity:1;stroke-dasharray:none;stroke-dashoffset:0;marker:none;visibility:visible;display:inline;overflow:visible"/></g></svg>