<svg xmlns="http://www.w3.org/2000/svg" xmlns:svg="http://www.w3.org/2000/svg" xmlns:xlink="http://www.w3.org/1999/xlink" id="svg3823" width="48" height="48" version="1.0"><defs id="defs3825"><linearGradient id="linearGradient3484"><stop id="stop3486" style="stop-color:#bdbdbd;stop-opacity:1" offset="0"/><stop id="stop3488" style="stop-color:#d0d0d0;stop-opacity:1" offset="1"/></linearGradient><radialGradient id="radialGradient2833" cx="3" cy="5.017" r="21" fx="3" fy="5.017" gradientTransform="matrix(-1.274898e-8,1.7142916,-2.159331,-1.4599595e-8,12.809361,2.8570011)" gradientUnits="userSpaceOnUse" xlink:href="#linearGradient3484"/><linearGradient id="linearGradient6404"><stop id="stop6406" style="stop-color:#f9f9f9;stop-opacity:1" offset="0"/><stop id="stop6408" style="stop-color:#c9c9c9;stop-opacity:1" offset="1"/></linearGradient><linearGradient id="linearGradient2831" x1="62.989" x2="62.989" y1="18" y2="21.008" gradientTransform="translate(-50.940898,0)" gradientUnits="userSpaceOnUse" xlink:href="#linearGradient6404"/><linearGradient id="linearGradient5060-820"><stop id="stop2681" style="stop-color:black;stop-opacity:1" offset="0"/><stop id="stop2683" style="stop-color:black;stop-opacity:0" offset="1"/></linearGradient><radialGradient id="radialGradient7600-312" cx="605.714" cy="486.648" r="117.143" fx="605.714" fy="486.648" gradientTransform="matrix(-0.03212956,0,0,0.03705882,23.363215,25.412461)" gradientUnits="userSpaceOnUse" xlink:href="#linearGradient5060-820"/><linearGradient id="linearGradient5060-179"><stop id="stop2675" style="stop-color:black;stop-opacity:1" offset="0"/><stop id="stop2677" style="stop-color:black;stop-opacity:0" offset="1"/></linearGradient><radialGradient id="radialGradient7598-526" cx="605.714" cy="486.648" r="117.143" fx="605.714" fy="486.648" gradientTransform="matrix(0.03212956,0,0,0.03705882,24.636785,25.412461)" gradientUnits="userSpaceOnUse" xlink:href="#linearGradient5060-179"/><linearGradient id="linearGradient5048-585"><stop id="stop2667" style="stop-color:black;stop-opacity:0" offset="0"/><stop id="stop2669" style="stop-color:black;stop-opacity:1" offset=".5"/><stop id="stop2671" style="stop-color:black;stop-opacity:0" offset="1"/></linearGradient><linearGradient id="linearGradient7596-975" x1="302.857" x2="302.857" y1="366.648" y2="609.505" gradientTransform="matrix(0.08284024,0,0,0.03705882,-5.9408285,25.412461)" gradientUnits="userSpaceOnUse" xlink:href="#linearGradient5048-585"/><linearGradient id="linearGradient2264-691-644-798-66-603"><stop id="stop3706" style="stop-color:white;stop-opacity:1" offset="0"/><stop id="stop3708" style="stop-color:#a2a2a2;stop-opacity:1" offset="1"/></linearGradient><linearGradient id="linearGradient2803-447-221-60-703-383" x1="8.245" x2="47.572" y1="23.891" y2="23.891" gradientTransform="matrix(0,0.5567853,0.5581051,0.0036,10.666334,-0.110064)" gradientUnits="userSpaceOnUse" xlink:href="#linearGradient2264-691-644-798-66-603"/><linearGradient id="linearGradient4222"><stop id="stop4224" style="stop-color:white;stop-opacity:1" offset="0"/><stop id="stop4226" style="stop-color:white;stop-opacity:0" offset="1"/></linearGradient><linearGradient id="linearGradient2800" x1="40.924" x2="-11.267" y1="27.532" y2="27.532" gradientTransform="matrix(0,-0.6696118,0.6680999,0.01710833,6.678864,29.022764)" gradientUnits="userSpaceOnUse" xlink:href="#linearGradient4222"/><linearGradient id="linearGradient6087-437-184-795-110"><stop id="stop4655" style="stop-color:white;stop-opacity:1" offset="0"/><stop id="stop4657" style="stop-color:white;stop-opacity:0" offset="1"/></linearGradient><radialGradient id="radialGradient2603" cx="7.265" cy="8.302" r="20.98" fx="7.265" fy="8.302" gradientTransform="matrix(0,0.9862682,-1.6271642,0,-25.127044,13.600721)" gradientUnits="userSpaceOnUse" xlink:href="#linearGradient6087-437-184-795-110"/><linearGradient id="linearGradient8265-821-176-38-919"><stop id="stop4667" style="stop-color:white;stop-opacity:1" offset="0"/><stop id="stop4669" style="stop-color:white;stop-opacity:0" offset="1"/></linearGradient><linearGradient id="linearGradient2601" x1="13.08" x2="16.362" y1="20.73" y2="32.979" gradientTransform="matrix(1.1446925,0,0,0.8040948,-54.964933,7.9066416)" gradientUnits="userSpaceOnUse" xlink:href="#linearGradient8265-821-176-38-919"/><linearGradient id="linearGradient6129-963-697-142-998"><stop id="stop4661" style="stop-color:black;stop-opacity:.498" offset="0"/><stop id="stop4663" style="stop-color:black;stop-opacity:0" offset="1"/></linearGradient><linearGradient id="linearGradient2599" x1="22.935" x2="22.809" y1="49.629" y2="36.658" gradientTransform="matrix(1.1446925,0,0,0.8146303,-54.964933,7.7486085)" gradientUnits="userSpaceOnUse" xlink:href="#linearGradient6129-963-697-142-998"/><linearGradient id="linearGradient3390-178-986-453"><stop id="stop3624" style="stop-color:#bb5e12;stop-opacity:1" offset="0"/><stop id="stop3626" style="stop-color:#cd8033;stop-opacity:1" offset="1"/></linearGradient><linearGradient id="linearGradient2597" x1="34.954" x2="25.474" y1="45.114" y2="20.981" gradientTransform="translate(-51.502145,-1.3368493)" gradientUnits="userSpaceOnUse" xlink:href="#linearGradient3390-178-986-453"/><linearGradient id="linearGradient7012-661-145-733-759-865-745-661-970-94"><stop id="stop3618" style="stop-color:#edd563;stop-opacity:1" offset="0"/><stop id="stop3620" style="stop-color:#e08223;stop-opacity:1" offset="1"/></linearGradient><radialGradient id="radialGradient2595" cx="13.857" cy="19.544" r="24.097" fx="13.857" fy="19.544" gradientTransform="matrix(1.4880117,0,0,0.7912602,-58.264593,9.4843017)" gradientUnits="userSpaceOnUse" xlink:href="#linearGradient7012-661-145-733-759-865-745-661-970-94"/></defs><g id="layer1"><path id="path3468" d="m 3.5062498,8.4999995 c -0.690271,0.00767 -1.0004418,0.3421461 -1.0004418,1 0,5.5144545 0.026278,9.7395765 -0.00581,14.7504305 C 3.9354707,24.25043 45,24.592532 45,23 l 0.499998,-10.493353 c 0,-0.657853 -0.554204,-1.007671 -1.244479,-1 l -20.255519,0 c -2.047483,0 -3.498891,-3.0066475 -5,-3.0066475 l -15.4937502,0 z" style="fill:url(#linearGradient2831);fill-opacity:1;stroke:url(#radialGradient2833);stroke-width:1.00000012;stroke-linecap:round;stroke-linejoin:round;stroke-miterlimit:4;stroke-opacity:1;stroke-dasharray:none;display:inline"/><g id="g7591" transform="matrix(0.9583333,0,0,0.6666667,1.0000008,15)" style="opacity:.4"><rect id="rect4173" width="40" height="9" x="4" y="39" style="fill:url(#linearGradient7596-975);fill-opacity:1;fill-rule:nonzero;stroke:none;stroke-width:1;marker:none;visibility:visible;display:inline;overflow:visible"/><path id="path5058" d="m 44,39.00031 c 0,0 0,8.999504 0,8.999504 1.654593,0.01694 4.000001,-2.016333 4,-4.500331 0,-2.483999 -1.846402,-4.499173 -4,-4.499173 z" style="fill:url(#radialGradient7598-526);fill-opacity:1;fill-rule:nonzero;stroke:none;stroke-width:1;marker:none;visibility:visible;display:inline;overflow:visible"/><path id="path5018" d="m 4,39.00031 c 0,0 0,8.999504 0,8.999504 C 2.3454068,48.016755 0,45.983481 0,43.499483 0,41.015484 1.8464008,39.00031 4,39.00031 z" style="fill:url(#radialGradient7600-312);fill-opacity:1;fill-rule:nonzero;stroke:none;stroke-width:1;marker:none;visibility:visible;display:inline;overflow:visible"/></g><rect id="rect3562" width="13" height="2" x="5" y="10" rx="1" ry="1" style="fill:#edbd74;fill-opacity:1;fill-rule:nonzero;stroke:none;stroke-width:1;marker:none;visibility:visible;display:block;overflow:visible;enable-background:accumulate"/><path id="path5656" d="M 12.999966,13.495697 24.027636,0.99566297 35.000034,13.495697 l -5.500034,0 0,23.500034 -11,-0.0735 0,-23.426535 -5.500034,0 z" style="fill:url(#linearGradient2803-447-221-60-703-383);fill-opacity:1;fill-rule:nonzero;stroke:#7f7f7f;stroke-width:.99993217;stroke-linecap:butt;stroke-linejoin:round;stroke-miterlimit:4;stroke-opacity:1;stroke-dasharray:none;stroke-dashoffset:0;marker:none;visibility:visible;display:inline;overflow:visible"/><path id="path4360" d="M 15.234059,12.495697 24,2.51794 l 8.781616,9.977757 -4.281616,0 0,24.040101 -9,-0.256256 0,-23.783845 -4.265941,0 z" style="opacity:.4;fill:none;stroke:url(#linearGradient2800);stroke-width:.99993217;stroke-linecap:butt;stroke-linejoin:miter;stroke-miterlimit:4;stroke-opacity:1;stroke-dasharray:none;stroke-dashoffset:0;marker:none;visibility:visible;display:inline;overflow:visible"/><g id="g2629" transform="translate(51.502145,1.2226528)"><path id="path7314" d="m -50.436792,20.163151 c -1.072707,0.100992 -0.499473,1.279221 -0.585,1.866173 0.300461,1.216969 1.976422,19.433868 2.17925,20.746557 0.341836,0.788453 1.594434,0.384685 2.388117,0.484775 13.193544,0 26.387089,0 39.580633,0 1.089379,-0.08708 0.636457,-1.149321 0.789703,-1.757245 0.062067,-0.884547 1.706566,-14.739761 2.179297,-20.746557 -0.251172,-0.779143 -1.487747,-0.593703 -2.263,-0.593703 -14.089378,0 -30.179622,0 -44.269,0 z" style="fill:url(#radialGradient2595);fill-opacity:1;stroke:url(#linearGradient2597);stroke-width:1.00000024;stroke-linecap:round;stroke-linejoin:round;stroke-miterlimit:4;stroke-opacity:1;stroke-dashoffset:0"/><path id="path2541" d="m -50.440792,19.968063 45.897,0.00033 c 0.63416,0 1.045,0.363009 1.045,0.814314 l -2.244363,21.995005 c 0,0.451305 -0.510532,0.81463 -1.14469,0.81463 l -41.208935,0 c -0.63416,0 -1.144693,-0.363325 -1.144693,-0.81463 l -2.244319,-21.995018 c 0,-0.451306 0.41084,-0.814631 1.045,-0.814631 z" style="opacity:.4;fill:url(#linearGradient2599);fill-opacity:1;stroke:none"/><path id="path8263" d="m -50.440792,19.663151 45.897,0 c 0.63416,0 1.045,0.663907 1.045,1.109377 l -0.46,6.002915 -46.843,5.828538 -0.684,-11.831824 c 0,-0.445468 0.41084,-1.109006 1.045,-1.109006 z" style="opacity:.2;fill:url(#linearGradient2601);fill-opacity:1;stroke:none"/><path id="path2544" d="m -4.998792,21.163151 c -13.53125,0 -31.46875,0 -45,0 0.220184,0.893165 1.92721,19.690463 2.23001,21.161942" style="opacity:.4;fill:none;stroke:url(#radialGradient2603);stroke-width:.99999982;stroke-linecap:round;stroke-linejoin:round;stroke-miterlimit:4;stroke-opacity:1;stroke-dasharray:none"/></g></g></svg>