<svg xmlns="http://www.w3.org/2000/svg" xmlns:svg="http://www.w3.org/2000/svg" xmlns:xlink="http://www.w3.org/1999/xlink" id="svg2453" width="18" height="18" version="1.0"><metadata id="metadata77"/><defs id="defs2455"><linearGradient id="linearGradient3484"><stop id="stop3486" style="stop-color:#bdbdbd;stop-opacity:1" offset="0"/><stop id="stop3488" style="stop-color:#d0d0d0;stop-opacity:1" offset="1"/></linearGradient><radialGradient id="radialGradient2788" cx="1.125" cy="1.881" r="7.875" fx="1.125" fy="1.881" gradientTransform="matrix(-1.274898e-8,1.7142916,-2.159331,-1.4599595e-8,4.803510375,1.0713754125)" gradientUnits="userSpaceOnUse" xlink:href="#linearGradient3484"/><linearGradient id="linearGradient6404"><stop id="stop6406" style="stop-color:#f9f9f9;stop-opacity:1" offset="0"/><stop id="stop6408" style="stop-color:#c9c9c9;stop-opacity:1" offset="1"/></linearGradient><linearGradient id="linearGradient2786" x1="23.621" x2="23.621" y1="4.943" y2="6.071" gradientTransform="translate(-19.10283675,0)" gradientUnits="userSpaceOnUse" xlink:href="#linearGradient6404"/><linearGradient id="linearGradient5060-820"><stop id="stop2681" style="stop-color:black;stop-opacity:1" offset="0"/><stop id="stop2683" style="stop-color:black;stop-opacity:0" offset="1"/></linearGradient><radialGradient id="radialGradient7600-312" cx="227.143" cy="182.493" r="43.929" fx="227.143" fy="182.493" gradientTransform="matrix(-0.03212956,0,0,0.03705882,8.761205625,9.529672875)" gradientUnits="userSpaceOnUse" xlink:href="#linearGradient5060-820"/><linearGradient id="linearGradient5060-179"><stop id="stop2675" style="stop-color:black;stop-opacity:1" offset="0"/><stop id="stop2677" style="stop-color:black;stop-opacity:0" offset="1"/></linearGradient><radialGradient id="radialGradient7598-526" cx="227.143" cy="182.493" r="43.929" fx="227.143" fy="182.493" gradientTransform="matrix(0.03212956,0,0,0.03705882,9.238794375,9.529672875)" gradientUnits="userSpaceOnUse" xlink:href="#linearGradient5060-179"/><linearGradient id="linearGradient5048-585"><stop id="stop2667" style="stop-color:black;stop-opacity:0" offset="0"/><stop id="stop2669" style="stop-color:black;stop-opacity:1" offset=".5"/><stop id="stop2671" style="stop-color:black;stop-opacity:0" offset="1"/></linearGradient><linearGradient id="linearGradient7596-975" x1="113.571" x2="113.571" y1="137.493" y2="228.564" gradientTransform="matrix(0.08284024,0,0,0.03705882,-2.2278106875,9.529672875)" gradientUnits="userSpaceOnUse" xlink:href="#linearGradient5048-585"/><linearGradient id="linearGradient3390-178-986-453"><stop id="stop3624" style="stop-color:#bb5e12;stop-opacity:1" offset="0"/><stop id="stop3626" style="stop-color:#cd8033;stop-opacity:1" offset="1"/></linearGradient><linearGradient id="linearGradient2779" x1="30.92" x2="24.503" y1="16.918" y2="5.979" gradientTransform="translate(-20.162022375,-0.0428223375)" gradientUnits="userSpaceOnUse" xlink:href="#linearGradient3390-178-986-453"/><linearGradient id="linearGradient7012-661-145-733-759-865-745-661-970-94"><stop id="stop3618" style="stop-color:#edd563;stop-opacity:1" offset="0"/><stop id="stop3620" style="stop-color:#e08223;stop-opacity:1" offset="1"/></linearGradient><radialGradient id="radialGradient2777" cx="23.988" cy="5.293" r="8.661" fx="23.988" fy="5.293" gradientTransform="matrix(1.5646925,-9.5143002e-8,6.1772287e-8,1.015888,-32.329714875,3.0547939875)" gradientUnits="userSpaceOnUse" xlink:href="#linearGradient7012-661-145-733-759-865-745-661-970-94"/><linearGradient id="linearGradient6129-963-697-142-998-580-273"><stop id="stop2661" style="stop-color:#0a0a0a;stop-opacity:.498" offset="0"/><stop id="stop2663" style="stop-color:#0a0a0a;stop-opacity:0" offset="1"/></linearGradient><linearGradient id="linearGradient2774" x1="8.601" x2="8.554" y1="18.611" y2="13.747" gradientTransform="matrix(1.1446925,0,0,0.9977536,-1.2998029875,0.4120659375)" gradientUnits="userSpaceOnUse" xlink:href="#linearGradient6129-963-697-142-998-580-273"/><linearGradient id="linearGradient6087-437-184-795-110-662-495"><stop id="stop2693" style="stop-color:white;stop-opacity:.40000001" offset="0"/><stop id="stop2695" style="stop-color:white;stop-opacity:0" offset="1"/></linearGradient><radialGradient id="radialGradient2771" cx="2.724" cy="3.113" r="7.867" fx="2.724" fy="3.113" gradientTransform="matrix(0,1.2079744,-1.6271642,0,9.8894055,3.0999256875)" gradientUnits="userSpaceOnUse" xlink:href="#linearGradient6087-437-184-795-110-662-495"/><linearGradient id="linearGradient8265-821-176-38-919-66-249"><stop id="stop2687" style="stop-color:white;stop-opacity:.27450982" offset="0"/><stop id="stop2689" style="stop-color:white;stop-opacity:.07843138" offset="1"/></linearGradient><linearGradient id="linearGradient2768" x1="4.337" x2="5.705" y1="8.36" y2="12.733" gradientUnits="userSpaceOnUse" xlink:href="#linearGradient8265-821-176-38-919-66-249"/><linearGradient id="linearGradient2091"><stop id="stop2093" style="stop-color:black;stop-opacity:1" offset="0"/><stop id="stop2095" style="stop-color:black;stop-opacity:0" offset="1"/></linearGradient><radialGradient id="radialGradient2903" cx="8.652" cy="13.173" r="3.87" fx="8.652" fy="13.173" gradientTransform="matrix(1.0638029,0.0137236,-0.00955296,0.2316828,4.471097625,13.902552)" gradientUnits="userSpaceOnUse" xlink:href="#linearGradient2091"/><linearGradient id="linearGradient3497"><stop id="stop3499" style="stop-color:#699536;stop-opacity:1" offset="0"/><stop id="stop3501" style="stop-color:#587d2d;stop-opacity:1" offset="1"/></linearGradient><linearGradient id="linearGradient2877" x1="10.821" x2="10.821" y1="9.75" y2="17.278" gradientUnits="userSpaceOnUse" xlink:href="#linearGradient3497"/><linearGradient id="linearGradient2264"><stop id="stop2266" style="stop-color:#d7e866;stop-opacity:1" offset="0"/><stop id="stop2268" style="stop-color:#8cab2a;stop-opacity:1" offset="1"/></linearGradient><linearGradient id="linearGradient2875" x1="9.039" x2="9.039" y1="5.688" y2="12.182" gradientTransform="matrix(0.8988874,0,0,0.8934652,5.451111,5.787760125)" gradientUnits="userSpaceOnUse" xlink:href="#linearGradient2264"/><linearGradient id="linearGradient4222"><stop id="stop4224" style="stop-color:white;stop-opacity:1" offset="0"/><stop id="stop4226" style="stop-color:white;stop-opacity:0" offset="1"/></linearGradient><linearGradient id="linearGradient2872" x1="9.052" x2="9.052" y1="2.449" y2="17.727" gradientTransform="matrix(0.5399382,0,0,0.5366811,8.681653875,8.810175375)" gradientUnits="userSpaceOnUse" xlink:href="#linearGradient4222"/></defs><g id="layer1"><path id="path3468" d="m 1.314843675,3.1874998125 c -0.258851625,0.00287625 -0.375165675,0.1283047875 -0.375165675,0.375 0,2.0679204375 0.00985425,3.6523411875 -0.00217875,5.5314114375 0.538301475,0 16.12499925,-1.3873995 16.12499925,-1.984599 l 0,-2.419319625 c 0,-0.246694875 -0.2078265,-0.377876625 -0.466679625,-0.375 l -7.595819625,0 c -0.767806125,0 -1.312084125,-1.1274928125 -1.875,-1.1274928125 l -5.8101563625,0 z" style="fill:url(#linearGradient2786);fill-opacity:1;stroke:url(#radialGradient2788);stroke-width:.375000045;stroke-linecap:round;stroke-linejoin:round;stroke-miterlimit:4;stroke-opacity:1;stroke-dasharray:none;display:inline"/><g id="g7591" transform="matrix(0.9583333,0,0,0.6666667,0.3750003,5.625)" style="opacity:.4"><rect id="rect4173" width="15" height="3.375" x="1.5" y="14.625" style="fill:url(#linearGradient7596-975);fill-opacity:1;fill-rule:nonzero;stroke:none;stroke-width:.375;marker:none;visibility:visible;display:inline;overflow:visible"/><path id="path5058" d="m 16.5,14.62511625 c 0,0 0,3.374814 0,3.374814 0.620472375,0.0063525 1.500000375,-0.756124875 1.5,-1.687624125 0,-0.931499625 -0.69240075,-1.687189875 -1.5,-1.687189875 z" style="fill:url(#radialGradient7598-526);fill-opacity:1;fill-rule:nonzero;stroke:none;stroke-width:.375;marker:none;visibility:visible;display:inline;overflow:visible"/><path id="path5018" d="m 1.5,14.62511625 c 0,0 0,3.374814 0,3.374814 C 0.87952755,18.006283125 0,17.243805375 0,16.312306125 0,15.3808065 0.6924003,14.62511625 1.5,14.62511625 z" style="fill:url(#radialGradient7600-312);fill-opacity:1;fill-rule:nonzero;stroke:none;stroke-width:.375;marker:none;visibility:visible;display:inline;overflow:visible"/></g><path id="path3388" d="m 0.81107085,6.196947375 c -0.402265125,0.04638525 -0.18741375,0.52579425 -0.219486375,0.7953795 0.1471995,3.17628375 0.2958495,6.288545625 0.442142625,9.46485075 0.1281885,0.362134875 0.597913125,0.176685 0.895543875,0.22265625 4.94757915,0 9.895158525,0 14.842738275,0 0.4085175,-0.039994125 0.2386725,-0.527880375 0.2961375,-0.80709825 0.1472025,-3.17628375 0.2958525,-6.288545625 0.44214375,-9.46485075 -0.09418875,-0.357858375 -0.56981625,-0.15900525 -0.848671125,-0.2109375 -5.28351525,0 -10.567031625,0 -15.850548525,0 z" style="fill:url(#radialGradient2777);fill-opacity:1;stroke:url(#linearGradient2779);stroke-width:.375;stroke-linecap:round;stroke-linejoin:round;stroke-miterlimit:4;stroke-opacity:1;stroke-dashoffset:0"/><path id="path6127" d="m 0.77184105,6.02442975 16.4611782,0.000151125 c 0.23781,0 0.391933125,0.166729125 0.391933125,0.374012625 L 17.158363875,16.500842625 C 17.158363875,16.70812575 16.966914375,16.875 16.729105125,16.875 L 1.275754575,16.875 C 1.0379446125,16.875 0.8464948125,16.70812575 0.8464948125,16.500842625 L 0.379908225,6.3985875 c 0,-0.207283875 0.1541228625,-0.37415775 0.391932825,-0.37415775 z" style="opacity:.4;fill:url(#linearGradient2774);fill-opacity:1;stroke:none"/><path id="path2435" d="m 17.4375,6.5625 c -5.07421875,0 -11.42578125,0 -16.5,0 0.1445312625,3.066406125 0.2890624875,6.132812625 0.43359375,9.19921875" style="fill:none;stroke:url(#radialGradient2771);stroke-width:.37499991;stroke-linecap:round;stroke-linejoin:round;stroke-miterlimit:4;stroke-opacity:1;stroke-dasharray:none"/><path id="path3455" d="M 17.15625,6 C 11.70015375,6.0275055 6.242031,5.992069125 0.78515625,6 0.10762119,6.154168875 0.4722537375,6.92497875 0.42049635,7.414321875 0.5037574125,8.975577 0.5416463625,10.543674 0.6531694125,12.100652625 6.27836175,11.214603375 11.87562375,10.372932375 17.40234375,9.45703125 17.695215375,8.4870645 17.6976105,7.3305585 17.648852625,6.29607225 17.562926625,6.1068615 17.353724625,5.99575575 17.15625,6 z" style="fill:url(#linearGradient2768);fill-opacity:1;stroke:none"/><rect id="rect3562" width="4.875" height=".75" x="1.875" y="3.75" rx=".375" ry=".375" style="fill:#edbd74;fill-opacity:1;fill-rule:nonzero;stroke:none;stroke-width:.375;marker:none;visibility:visible;display:block;overflow:visible;enable-background:accumulate"/><path id="path2447" d="m 18,17.056101375 c 0,0.521300625 -2.014718625,0.94389825 -4.5,0.94389825 -2.485281375,0 -4.5,-0.422597625 -4.5,-0.94389825 0,-0.521301 2.014718625,-0.943898625 4.5,-0.943898625 2.485281375,0 4.5,0.422597625 4.5,0.943898625 z" style="opacity:.3;fill:url(#radialGradient2903);fill-opacity:1;stroke:none;display:inline"/></g></svg>