<svg xmlns="http://www.w3.org/2000/svg" xmlns:svg="http://www.w3.org/2000/svg" xmlns:xlink="http://www.w3.org/1999/xlink" id="svg3823" width="24" height="24" version="1.0"><defs id="defs3825"><linearGradient id="linearGradient3484"><stop id="stop3486" style="stop-color:#bdbdbd;stop-opacity:1" offset="0"/><stop id="stop3488" style="stop-color:#d0d0d0;stop-opacity:1" offset="1"/></linearGradient><radialGradient id="radialGradient2833" cx="1.5" cy="2.509" r="10.5" fx="1.5" fy="2.509" gradientTransform="matrix(-1.274898e-8,1.7142916,-2.159331,-1.4599595e-8,6.4046805,1.42850055)" gradientUnits="userSpaceOnUse" xlink:href="#linearGradient3484"/><linearGradient id="linearGradient6404"><stop id="stop6406" style="stop-color:#f9f9f9;stop-opacity:1" offset="0"/><stop id="stop6408" style="stop-color:#c9c9c9;stop-opacity:1" offset="1"/></linearGradient><linearGradient id="linearGradient2831" x1="31.494" x2="31.494" y1="9" y2="10.504" gradientTransform="translate(-25.470449,0)" gradientUnits="userSpaceOnUse" xlink:href="#linearGradient6404"/><linearGradient id="linearGradient5060-820"><stop id="stop2681" style="stop-color:black;stop-opacity:1" offset="0"/><stop id="stop2683" style="stop-color:black;stop-opacity:0" offset="1"/></linearGradient><radialGradient id="radialGradient7600-312" cx="302.857" cy="243.324" r="58.571" fx="302.857" fy="243.324" gradientTransform="matrix(-0.03212956,0,0,0.03705882,11.6816075,12.7062305)" gradientUnits="userSpaceOnUse" xlink:href="#linearGradient5060-820"/><linearGradient id="linearGradient5060-179"><stop id="stop2675" style="stop-color:black;stop-opacity:1" offset="0"/><stop id="stop2677" style="stop-color:black;stop-opacity:0" offset="1"/></linearGradient><radialGradient id="radialGradient7598-526" cx="302.857" cy="243.324" r="58.571" fx="302.857" fy="243.324" gradientTransform="matrix(0.03212956,0,0,0.03705882,12.3183925,12.7062305)" gradientUnits="userSpaceOnUse" xlink:href="#linearGradient5060-179"/><linearGradient id="linearGradient5048-585"><stop id="stop2667" style="stop-color:black;stop-opacity:0" offset="0"/><stop id="stop2669" style="stop-color:black;stop-opacity:1" offset=".5"/><stop id="stop2671" style="stop-color:black;stop-opacity:0" offset="1"/></linearGradient><linearGradient id="linearGradient7596-975" x1="151.429" x2="151.429" y1="183.324" y2="304.753" gradientTransform="matrix(0.08284024,0,0,0.03705882,-2.97041425,12.7062305)" gradientUnits="userSpaceOnUse" xlink:href="#linearGradient5048-585"/><linearGradient id="linearGradient2264-691-644-798-66-603"><stop id="stop3706" style="stop-color:white;stop-opacity:1" offset="0"/><stop id="stop3708" style="stop-color:#a2a2a2;stop-opacity:1" offset="1"/></linearGradient><linearGradient id="linearGradient2803-447-221-60-703-383" x1="4.122" x2="23.786" y1="11.945" y2="11.945" gradientTransform="matrix(0,0.5567853,0.5581051,0.0036,5.333167,-0.055032)" gradientUnits="userSpaceOnUse" xlink:href="#linearGradient2264-691-644-798-66-603"/><linearGradient id="linearGradient4222"><stop id="stop4224" style="stop-color:white;stop-opacity:1" offset="0"/><stop id="stop4226" style="stop-color:white;stop-opacity:0" offset="1"/></linearGradient><linearGradient id="linearGradient2800" x1="20.462" x2="-5.633" y1="13.766" y2="13.766" gradientTransform="matrix(0,-0.6696118,0.6680999,0.01710833,3.339432,14.511382)" gradientUnits="userSpaceOnUse" xlink:href="#linearGradient4222"/><linearGradient id="linearGradient6087-437-184-795-110"><stop id="stop4655" style="stop-color:white;stop-opacity:1" offset="0"/><stop id="stop4657" style="stop-color:white;stop-opacity:0" offset="1"/></linearGradient><radialGradient id="radialGradient2603" cx="3.632" cy="4.151" r="10.49" fx="3.632" fy="4.151" gradientTransform="matrix(0,0.9862682,-1.6271642,0,-12.563522,6.8003605)" gradientUnits="userSpaceOnUse" xlink:href="#linearGradient6087-437-184-795-110"/><linearGradient id="linearGradient8265-821-176-38-919"><stop id="stop4667" style="stop-color:white;stop-opacity:1" offset="0"/><stop id="stop4669" style="stop-color:white;stop-opacity:0" offset="1"/></linearGradient><linearGradient id="linearGradient2601" x1="6.54" x2="8.181" y1="10.365" y2="16.49" gradientTransform="matrix(1.1446925,0,0,0.8040948,-27.4824665,3.9533208)" gradientUnits="userSpaceOnUse" xlink:href="#linearGradient8265-821-176-38-919"/><linearGradient id="linearGradient6129-963-697-142-998"><stop id="stop4661" style="stop-color:black;stop-opacity:.498" offset="0"/><stop id="stop4663" style="stop-color:black;stop-opacity:0" offset="1"/></linearGradient><linearGradient id="linearGradient2599" x1="11.467" x2="11.405" y1="24.815" y2="18.329" gradientTransform="matrix(1.1446925,0,0,0.8146303,-27.4824665,3.87430425)" gradientUnits="userSpaceOnUse" xlink:href="#linearGradient6129-963-697-142-998"/><linearGradient id="linearGradient3390-178-986-453"><stop id="stop3624" style="stop-color:#bb5e12;stop-opacity:1" offset="0"/><stop id="stop3626" style="stop-color:#cd8033;stop-opacity:1" offset="1"/></linearGradient><linearGradient id="linearGradient2597" x1="17.477" x2="12.737" y1="22.557" y2="10.49" gradientTransform="translate(-25.7510725,-0.66842465)" gradientUnits="userSpaceOnUse" xlink:href="#linearGradient3390-178-986-453"/><linearGradient id="linearGradient7012-661-145-733-759-865-745-661-970-94"><stop id="stop3618" style="stop-color:#edd563;stop-opacity:1" offset="0"/><stop id="stop3620" style="stop-color:#e08223;stop-opacity:1" offset="1"/></linearGradient><radialGradient id="radialGradient2595" cx="6.929" cy="9.772" r="12.049" fx="6.929" fy="9.772" gradientTransform="matrix(1.4880117,0,0,0.7912602,-29.1322965,4.74215085)" gradientUnits="userSpaceOnUse" xlink:href="#linearGradient7012-661-145-733-759-865-745-661-970-94"/></defs><g id="layer1"><path id="path3468" d="m 1.7531249,4.24999975 c -0.3451355,0.003835 -0.5002209,0.17107305 -0.5002209,0.5 0,2.75722725 0.013139,4.86978825 -0.002905,7.37521525 C 1.96773535,12.125215 22.5,12.296266 22.5,11.5 l 0.249999,-5.2466765 c 0,-0.3289265 -0.277102,-0.5038355 -0.6222395,-0.5 l -10.1277595,0 c -1.0237415,0 -1.7494455,-1.50332375 -2.5,-1.50332375 l -7.7468751,0 z" style="fill:url(#linearGradient2831);fill-opacity:1;stroke:url(#radialGradient2833);stroke-width:.50000006;stroke-linecap:round;stroke-linejoin:round;stroke-miterlimit:4;stroke-opacity:1;stroke-dasharray:none;display:inline"/><g id="g7591" transform="matrix(0.9583333,0,0,0.6666667,0.5000004,7.5)" style="opacity:.4"><rect id="rect4173" width="20" height="4.5" x="2" y="19.5" style="fill:url(#linearGradient7596-975);fill-opacity:1;fill-rule:nonzero;stroke:none;stroke-width:.5;marker:none;visibility:visible;display:inline;overflow:visible"/><path id="path5058" d="m 22,19.500155 c 0,0 0,4.499752 0,4.499752 0.8272965,0.00847 2.0000005,-1.0081665 2,-2.2501655 0,-1.2419995 -0.923201,-2.2495865 -2,-2.2495865 z" style="fill:url(#radialGradient7598-526);fill-opacity:1;fill-rule:nonzero;stroke:none;stroke-width:.5;marker:none;visibility:visible;display:inline;overflow:visible"/><path id="path5018" d="m 2,19.500155 c 0,0 0,4.499752 0,4.499752 C 1.1727034,24.0083775 0,22.9917405 0,21.7497415 0,20.507742 0.9232004,19.500155 2,19.500155 z" style="fill:url(#radialGradient7600-312);fill-opacity:1;fill-rule:nonzero;stroke:none;stroke-width:.5;marker:none;visibility:visible;display:inline;overflow:visible"/></g><rect id="rect3562" width="6.5" height="1" x="2.5" y="5" rx=".5" ry=".5" style="fill:#edbd74;fill-opacity:1;fill-rule:nonzero;stroke:none;stroke-width:.5;marker:none;visibility:visible;display:block;overflow:visible;enable-background:accumulate"/><path id="path5656" d="M 6.499983,6.7478485 12.013818,0.497831485 17.500017,6.7478485 l -2.750017,0 0,11.750017 -5.5,-0.03675 0,-11.7132675 -2.750017,0 z" style="fill:url(#linearGradient2803-447-221-60-703-383);fill-opacity:1;fill-rule:nonzero;stroke:#7f7f7f;stroke-width:.499966085;stroke-linecap:butt;stroke-linejoin:round;stroke-miterlimit:4;stroke-opacity:1;stroke-dasharray:none;stroke-dashoffset:0;marker:none;visibility:visible;display:inline;overflow:visible"/><path id="path4360" d="M 7.6170295,6.2478485 12,1.25897 l 4.390808,4.9888785 -2.140808,0 0,12.0200505 -4.5,-0.128128 0,-11.8919225 -2.1329705,0 z" style="opacity:.4;fill:none;stroke:url(#linearGradient2800);stroke-width:.499966085;stroke-linecap:butt;stroke-linejoin:miter;stroke-miterlimit:4;stroke-opacity:1;stroke-dasharray:none;stroke-dashoffset:0;marker:none;visibility:visible;display:inline;overflow:visible"/><g id="g2629" transform="translate(25.7510725,0.6113264)"><path id="path7314" d="m -25.218396,10.0815755 c -0.5363535,0.050496 -0.2497365,0.6396105 -0.2925,0.9330865 0.1502305,0.6084845 0.988211,9.716934 1.089625,10.3732785 0.170918,0.3942265 0.797217,0.1923425 1.1940585,0.2423875 6.596772,0 13.1935445,0 19.7903165,0 0.5446895,-0.04354 0.3182285,-0.5746605 0.3948515,-0.8786225 0.0310335,-0.4422735 0.853283,-7.3698805 1.0896485,-10.3732785 -0.125586,-0.3895715 -0.7438735,-0.2968515 -1.1315,-0.2968515 -7.044689,0 -15.089811,0 -22.1345,0 z" style="fill:url(#radialGradient2595);fill-opacity:1;stroke:url(#linearGradient2597);stroke-width:.50000012;stroke-linecap:round;stroke-linejoin:round;stroke-miterlimit:4;stroke-opacity:1;stroke-dashoffset:0"/><path id="path2541" d="m -25.220396,9.9840315 22.9485,0.000165 c 0.31708,0 0.5225,0.1815045 0.5225,0.407157 l -1.1221815,10.9975025 c 0,0.2256525 -0.255266,0.407315 -0.572345,0.407315 l -20.6044675,0 c -0.31708,0 -0.5723465,-0.1816625 -0.5723465,-0.407315 l -1.1221595,-10.997509 c 0,-0.225653 0.20542,-0.4073155 0.5225,-0.4073155 z" style="opacity:.4;fill:url(#linearGradient2599);fill-opacity:1;stroke:none"/><path id="path8263" d="m -25.220396,9.8315755 22.9485,0 c 0.31708,0 0.5225,0.3319535 0.5225,0.5546885 l -0.23,3.0014575 -23.4215,2.914269 -0.342,-5.915912 c 0,-0.222734 0.20542,-0.554503 0.5225,-0.554503 z" style="opacity:.2;fill:url(#linearGradient2601);fill-opacity:1;stroke:none"/><path id="path2544" d="m -2.499396,10.5815755 c -6.765625,0 -15.734375,0 -22.5,0 0.110092,0.4465825 0.963605,9.8452315 1.115005,10.580971" style="opacity:.4;fill:none;stroke:url(#radialGradient2603);stroke-width:.49999991;stroke-linecap:round;stroke-linejoin:round;stroke-miterlimit:4;stroke-opacity:1;stroke-dasharray:none"/></g></g></svg>