<svg xmlns="http://www.w3.org/2000/svg" xmlns:svg="http://www.w3.org/2000/svg" xmlns:xlink="http://www.w3.org/1999/xlink" id="svg3858" width="18" height="18" version="1.1"><metadata id="metadata115"/><defs id="defs3860"><linearGradient id="linearGradient8589"><stop id="stop8591" style="stop-color:#fefefe;stop-opacity:1" offset="0"/><stop id="stop8593" style="stop-color:#cbcbcb;stop-opacity:1" offset="1"/></linearGradient><linearGradient id="linearGradient5573" x1="12.335" x2="13.634" y1="3.022" y2="2.046" gradientTransform="matrix(0.9976985,0,0,1.0642049,29.971665,4.230377625)" gradientUnits="userSpaceOnUse" xlink:href="#linearGradient8589"/><linearGradient id="linearGradient3931"><stop id="stop3933" style="stop-color:#8d8f8a;stop-opacity:1" offset="0"/><stop id="stop3935" style="stop-color:#cbcbcb;stop-opacity:1" offset="1"/></linearGradient><linearGradient id="linearGradient5571" x1="-19.42" x2="-19.42" y1="19.045" y2="1.09" gradientTransform="matrix(0.8074968,0,0,0.9358511,52.18907625,2.364670275)" gradientUnits="userSpaceOnUse" xlink:href="#linearGradient3931"/><linearGradient id="linearGradient3600"><stop id="stop3602" style="stop-color:#f4f4f4;stop-opacity:1" offset="0"/><stop id="stop3604" style="stop-color:#dbdbdb;stop-opacity:1" offset="1"/></linearGradient><linearGradient id="linearGradient5569" x1="9.425" x2="9.425" y1="2.523" y2="17.63" gradientTransform="translate(29.91024,2.782600275)" gradientUnits="userSpaceOnUse" xlink:href="#linearGradient3600"/><radialGradient id="radialGradient5567" cx="227.143" cy="182.493" r="43.929" fx="227.143" fy="182.493" gradientTransform="matrix(0.02409717,0,0,0.01537476,9.929094,14.485889625)" gradientUnits="userSpaceOnUse" xlink:href="#linearGradient5060"/><linearGradient id="linearGradient5060"><stop id="stop5062" style="stop-color:#000;stop-opacity:1" offset="0"/><stop id="stop5064" style="stop-color:#000;stop-opacity:0" offset="1"/></linearGradient><radialGradient id="radialGradient5565" cx="227.143" cy="182.493" r="43.929" fx="227.143" fy="182.493" gradientTransform="matrix(-0.02409717,0,0,0.01537476,8.0709045,14.485889625)" gradientUnits="userSpaceOnUse" xlink:href="#linearGradient5060"/><linearGradient id="linearGradient5048"><stop id="stop5050" style="stop-color:#000;stop-opacity:0" offset="0"/><stop id="stop5056" style="stop-color:#000;stop-opacity:1" offset=".5"/><stop id="stop5052" style="stop-color:#000;stop-opacity:0" offset="1"/></linearGradient><linearGradient id="linearGradient5563" x1="113.571" x2="113.571" y1="137.493" y2="228.564" gradientTransform="matrix(0.0704142,0,0,0.01537476,-0.5436392625,14.485877625)" gradientUnits="userSpaceOnUse" xlink:href="#linearGradient5048"/><linearGradient id="linearGradient4873"><stop id="stop4875" style="stop-color:#fff;stop-opacity:1" offset="0"/><stop id="stop4877" style="stop-color:#fff;stop-opacity:0" offset="1"/></linearGradient><linearGradient id="linearGradient2509" x1="8.111" x2="8.342" y1=".791" y2="16.262" gradientTransform="matrix(0.4873978,0,0,0.4781595,-4.458585375,0.637766925)" gradientUnits="userSpaceOnUse" xlink:href="#linearGradient4873"/><linearGradient id="linearGradient3533"><stop id="stop3535" style="stop-color:#93b9dd;stop-opacity:1" offset="0"/><stop id="stop3545" style="stop-color:#6396cd;stop-opacity:1" offset="1"/></linearGradient><linearGradient id="linearGradient2517" x1="5.765" x2="5.765" y1="1.893" y2="8.475" gradientTransform="matrix(0.4873978,0,0,0.4781595,-4.458585375,0.637766925)" gradientUnits="userSpaceOnUse" xlink:href="#linearGradient3533"/></defs><g id="layer1"><g id="g5516" transform="translate(-29.91024,-3.532600875)" style="display:inline"><g id="g2877" transform="matrix(0.80159266,0,0,0.9561265,32.681059125,3.572324025)"><rect id="rect2879" width="12.75" height="1.4" x="2.625" y="16.6" style="opacity:.40206185;fill:url(#linearGradient5563);fill-opacity:1;fill-rule:nonzero;stroke:none;stroke-width:.375;marker:none;visibility:visible;display:inline;overflow:visible"/><path id="path2881" d="m 2.625,16.599859125 c 0,0 0,1.400124375 0,1.400124375 -0.4653543,0.002625 -1.125,-0.313696875 -1.125,-0.700152375 0,-0.386455125 0.5193002625,-0.699971625 1.125,-0.699972 z" style="opacity:.40206185;fill:url(#radialGradient5565);fill-opacity:1;fill-rule:nonzero;stroke:none;stroke-width:.375;marker:none;visibility:visible;display:inline;overflow:visible"/><path id="path2883" d="m 15.375,16.599859125 c 0,0 0,1.400124375 0,1.400124375 0.465354,0.002625 1.125,-0.313696875 1.125,-0.700152375 0,-0.386455125 -0.519300375,-0.699971625 -1.125,-0.699972 z" style="opacity:.40206185;fill:url(#radialGradient5567);fill-opacity:1;fill-rule:nonzero;stroke:none;stroke-width:.375;marker:none;visibility:visible;display:inline;overflow:visible"/></g><path id="rect2594" d="m 33.84774,4.845085125 c 3.00760875,0 4.51520625,0 7.522815,0 0.5276025,0.1820175 3.3620475,2.2556775 4.1022,3.691485 0,4.3945125 0,7.28902875 0,11.683545 -4.37500875,0 -7.25000625,0 -11.625015,0 0,-5.62501125 0,-9.75001875 0,-15.37503 z" style="fill:url(#linearGradient5569);fill-opacity:1;stroke:url(#linearGradient5571);stroke-width:.374970675;stroke-linecap:butt;stroke-linejoin:round;stroke-miterlimit:4;stroke-opacity:1;stroke-dasharray:none;stroke-dashoffset:0"/><path id="path8596" d="m 41.0730675,4.963082625 c 0.2390625,1.5468975 0.2285475,3.38792625 0.2285475,3.38792625 0,0 1.82614875,-0.0418125 4.08196875,0.22272375 -1.83633,-1.795425 -3.12316875,-2.5440675 -4.31051625,-3.61065 z" style="fill:#000;fill-opacity:.32663317;fill-rule:evenodd;stroke:#000;stroke-width:.1875;stroke-linecap:butt;stroke-linejoin:round;stroke-miterlimit:4;stroke-opacity:.16582917;stroke-dasharray:none;display:inline"/><path id="path12038" d="m 41.03196,4.848073875 c 0.5295825,1.5459375 0.48565875,3.0977625 0.48565875,3.0977625 0,0 2.937375,0.20524125 3.8156775,0.59772375 0,-0.6416775 -3.4865625,-3.6845325 -4.30133625,-3.69548625 z" style="fill:url(#linearGradient5573);fill-opacity:1;fill-rule:evenodd;stroke:none;display:inline"/></g><rect id="rect2874" width="9" height=".375" x="5.25" y="6.75" rx=".161" ry=".188" style="fill:#babdb6;fill-opacity:1;stroke:none;display:inline"/><rect id="rect2890" width="9" height=".375" x="5.25" y="7.875" rx=".161" ry=".188" style="fill:#babdb6;fill-opacity:1;stroke:none;display:inline"/><rect id="rect2892" width="9" height=".375" x="5.25" y="9" rx=".161" ry=".188" style="fill:#babdb6;fill-opacity:1;stroke:none;display:inline"/><rect id="rect2894" width="9" height=".375" x="5.25" y="11.25" rx=".161" ry=".188" style="fill:#babdb6;fill-opacity:1;stroke:none;display:inline"/><rect id="rect2898" width="9" height=".375" x="5.25" y="12.375" rx=".161" ry=".188" style="fill:#babdb6;fill-opacity:1;stroke:none;display:inline"/><rect id="rect2900" width="9" height=".375" x="5.25" y="13.5" rx=".161" ry=".188" style="fill:#babdb6;fill-opacity:1;stroke:none;display:inline"/><rect id="rect1984" width="9" height=".375" x="5.25" y="10.125" rx=".161" ry=".188" style="fill:#babdb6;fill-opacity:1;stroke:none;display:inline"/></g></svg>