<svg xmlns="http://www.w3.org/2000/svg" xmlns:svg="http://www.w3.org/2000/svg" xmlns:xlink="http://www.w3.org/1999/xlink" id="svg3221" width="24" height="24" version="1.0"><defs id="defs3223"><linearGradient id="linearGradient2804"><stop id="stop2806" style="stop-color:black;stop-opacity:0" offset="0"/><stop id="stop2812" style="stop-color:black;stop-opacity:1" offset=".5"/><stop id="stop2808" style="stop-color:black;stop-opacity:0" offset="1"/></linearGradient><linearGradient id="linearGradient3936" x1="10.938" x2="10.938" y1="24" y2="20" gradientUnits="userSpaceOnUse" xlink:href="#linearGradient2804"/><radialGradient id="radialGradient3934" cx=".5" cy="22" r="2.5" fx=".5" fy="22" gradientTransform="matrix(2,0,0,0.8,18,4.4)" gradientUnits="userSpaceOnUse" xlink:href="#linearGradient2781"/><linearGradient id="linearGradient2781"><stop id="stop2783" style="stop-color:black;stop-opacity:1" offset="0"/><stop id="stop2785" style="stop-color:black;stop-opacity:0" offset="1"/></linearGradient><radialGradient id="radialGradient3932" cx=".5" cy="22" r="2.5" fx=".5" fy="22" gradientTransform="matrix(2,0,0,0.8,-6.5,-39.6)" gradientUnits="userSpaceOnUse" xlink:href="#linearGradient2781"/><linearGradient id="linearGradient6375"><stop id="stop6377" style="stop-color:#040404;stop-opacity:1" offset="0"/><stop id="stop6379" style="stop-color:#606060;stop-opacity:1" offset="1"/></linearGradient><linearGradient id="linearGradient2475" x1="1.813" x2="20.984" y1="1.292" y2="20.463" gradientTransform="matrix(-1.03302,0,0,-1.0330201,23.621476,24.1214785)" gradientUnits="userSpaceOnUse" xlink:href="#linearGradient6375"/><linearGradient id="linearGradient2388"><stop id="stop2390" style="stop-color:#010306;stop-opacity:1" offset="0"/><stop id="stop2392" style="stop-color:#010306;stop-opacity:.39607844" offset="1"/></linearGradient><linearGradient id="linearGradient2472" x1="16.675" x2="17.987" y1="14.347" y2="16.525" gradientTransform="matrix(-1.0465566,0,0,-1.0194947,24.308678,23.8402595)" gradientUnits="userSpaceOnUse" xlink:href="#linearGradient2388"/><linearGradient id="linearGradient2294"><stop id="stop2296" style="stop-color:#262626;stop-opacity:1" offset="0"/><stop id="stop2298" style="stop-color:#122339;stop-opacity:0" offset="1"/></linearGradient><linearGradient id="linearGradient4733" x1="9.375" x2="9.413" y1="13.827" y2="18.387" gradientTransform="matrix(1.0625761,0,0,1.019071,-24.391405,-23.8328455)" gradientUnits="userSpaceOnUse" xlink:href="#linearGradient2294"/><linearGradient id="linearGradient4235"><stop id="stop4237" style="stop-color:#d4d4dc;stop-opacity:1" offset="0"/><stop id="stop4239" style="stop-color:#848489;stop-opacity:1" offset="1"/></linearGradient><linearGradient id="linearGradient4731" x1="5" x2="15.5" y1="13.998" y2="21" gradientTransform="matrix(-1.062576,0,0,-1.019071,24.3914035,23.832845)" gradientUnits="userSpaceOnUse" xlink:href="#linearGradient4235"/><linearGradient id="linearGradient2249"><stop id="stop2251" style="stop-color:#010306;stop-opacity:1" offset="0"/><stop id="stop2253" style="stop-color:#010306;stop-opacity:0" offset="1"/></linearGradient><linearGradient id="linearGradient4727" x1="18.813" x2="18.813" y1="3.813" y2="1.741" gradientTransform="matrix(1.041515,0,0,-1.0566113,0.28295645,24.1604335)" gradientUnits="userSpaceOnUse" xlink:href="#linearGradient2249"/><linearGradient id="linearGradient2268"><stop id="stop2270" style="stop-color:#eeeeec;stop-opacity:1" offset="0"/><stop id="stop2272" style="stop-color:white;stop-opacity:1" offset="1"/></linearGradient><linearGradient id="linearGradient4725" x1="10.938" x2="10.938" y1="3.803" y2="9.257" gradientTransform="matrix(1.0444099,0,0,1.0592128,0.2503904,-24.1644935)" gradientUnits="userSpaceOnUse" xlink:href="#linearGradient2268"/><linearGradient id="linearGradient2555"><stop id="stop2557" style="stop-color:white;stop-opacity:1" offset="0"/><stop id="stop2561" style="stop-color:#e6e6e6;stop-opacity:1" offset=".5"/><stop id="stop2563" style="stop-color:white;stop-opacity:1" offset=".75"/><stop id="stop2565" style="stop-color:#e1e1e1;stop-opacity:1" offset=".842"/><stop id="stop2559" style="stop-color:white;stop-opacity:1" offset="1"/></linearGradient><linearGradient id="linearGradient4723" x1="5" x2="15.5" y1="13.998" y2="21" gradientTransform="matrix(-1.062576,0,0,-1.019071,24.3914035,23.832845)" gradientUnits="userSpaceOnUse" xlink:href="#linearGradient2555"/><linearGradient id="linearGradient2319"><stop id="stop2321" style="stop-color:white;stop-opacity:1" offset="0"/><stop id="stop2323" style="stop-color:white;stop-opacity:0" offset="1"/></linearGradient><linearGradient id="linearGradient3219" x1="10.242" x2="10.242" y1="20.433" y2="14.567" gradientTransform="matrix(-1.093999,0,0,-1.0598351,24.692087,24.546216)" gradientUnits="userSpaceOnUse" xlink:href="#linearGradient2319"/></defs><g id="layer1"><g id="g2822" transform="matrix(1.0212766,0,0,1.037397,-0.51063835,-0.897528)" style="opacity:.3"><rect id="rect1892" width="5" height="4" x="-5.5" y="-24" transform="scale(-1,-1)" style="fill:url(#radialGradient3932);fill-opacity:1;fill-rule:nonzero;stroke:none;stroke-width:.5;marker:none;visibility:visible;display:inline;overflow:visible"/><rect id="rect2789" width="5" height="4" x="19" y="20" style="fill:url(#radialGradient3934);fill-opacity:1;fill-rule:nonzero;stroke:none;stroke-width:.5;marker:none;visibility:visible;display:inline;overflow:visible"/><rect id="rect2793" width="13.5" height="4" x="5.5" y="20" style="fill:url(#linearGradient3936);fill-opacity:1;fill-rule:nonzero;stroke:none;stroke-width:.5;marker:none;visibility:visible;display:inline;overflow:visible"/></g><path id="rect1314" d="m 21.4160445,22.3136905 -18.8320869,0 c -0.4299647,0 -0.397648,0.03232 -0.397648,-0.3976455 l 0,-18.8320889 c 0,-0.4299653 -0.0323165,-0.39764645 0.397648,-0.39764645 l 17.4219489,0 1.807784,1.8077858 0,17.42194955 c 0,0.429964 0.03232,0.3976455 -0.397646,0.3976455 z" style="fill:url(#linearGradient2475);fill-opacity:1;fill-rule:nonzero;stroke:#121212;stroke-width:.371515455;stroke-linecap:round;stroke-linejoin:round;stroke-miterlimit:4;stroke-opacity:1;stroke-dasharray:none;stroke-dashoffset:0;marker:none;visibility:visible;display:inline;overflow:visible"/><path id="rect2194" d="m 17.471994,9.3124595 -11.9672685,0 c -0.4537165,0 -0.8189827,-0.355823 -0.8189827,-0.7978075 l 0,-5.8289092 13.6052362,0 0,5.8289092 c 0,0.4419845 -0.3652665,0.7978075 -0.818985,0.7978075 z" style="opacity:.26190473;fill:none;stroke:url(#linearGradient2472);stroke-width:.37148562;stroke-linecap:round;stroke-linejoin:round;stroke-miterlimit:4;stroke-opacity:1;stroke-dasharray:none;stroke-dashoffset:0;marker:none;visibility:visible;display:inline;overflow:visible"/><rect id="rect2284" width="3.719" height="5.095" x="-17.219" y="-8.802" transform="scale(-1,-1)" style="fill:url(#linearGradient4733);fill-opacity:1;fill-rule:nonzero;stroke:none;stroke-width:.375;marker:none;visibility:visible;display:inline;overflow:visible"/><path id="rect2192" d="m 18.115565,9.311083 c 0.1601805,-0.019415 0.3158975,-0.094957 0.431671,-0.191077 0.1605155,-0.1398605 0.265644,-0.347894 0.265644,-0.5732275 l 0,-5.85965845 -10.6257595,0 0,5.85965845 c 0,0.4241595 0.3546645,0.7643045 0.796932,0.7643045 l 9.031896,0 c 0.03455,0 0.0662445,0.00405 0.0996165,0 z m -1.660276,-1.0190725 c -0.01958,0.0038 -0.04562,0 -0.0664105,0 l -2.058741,0 c -0.067571,0 -0.1325665,-0.02783 -0.1826305,-0.063693 -0.014815,-0.011715 -0.03759,-0.03356 -0.04981,-0.047765 -0.037395,-0.048015 -0.066411,-0.1103485 -0.066411,-0.1751525 l 0,-3.5030572 c 0,-0.06480425 0.029015,-0.12713715 0.066411,-0.1751524 0.01222,-0.0142095 0.03499,-0.0360525 0.04981,-0.04777 0.050064,-0.035862 0.1150595,-0.06369175 0.1826305,-0.06369175 l 2.058741,0 c 0.067571,0 0.1325665,0.0278295 0.1826295,0.06369175 0.014815,0.0117175 0.03759,0.033561 0.04981,0.04777 0.037395,0.048015 0.066412,0.11034815 0.066412,0.1751524 l 0,3.5030572 c 0,0.064804 -0.029015,0.1271375 -0.066412,0.1751525 -0.012215,0.01421 -0.03499,0.03605 -0.04981,0.047765 -0.03466,0.02483 -0.072166,0.055091 -0.116219,0.063693 z" style="fill:url(#linearGradient4731);fill-opacity:1;fill-rule:nonzero;stroke:#555753;stroke-width:.37424016;stroke-linecap:round;stroke-linejoin:round;stroke-miterlimit:4;stroke-opacity:1;stroke-dasharray:none;stroke-dashoffset:0;marker:none;visibility:visible;display:inline;overflow:visible"/><rect id="rect2278" width="1.033" height="1.033" x="2.961" y="-21.022" transform="scale(1,-1)" style="opacity:.2;fill:#fff;fill-opacity:1;fill-rule:nonzero;stroke:none;stroke-width:.375;marker:none;visibility:visible;display:inline;overflow:visible"/><rect id="rect2276" width=".517" height=".517" x="2.961" y="-21.022" transform="scale(1,-1)" style="fill:#010306;fill-opacity:1;fill-rule:nonzero;stroke:none;stroke-width:.375;marker:none;visibility:visible;display:inline;overflow:visible"/><rect id="rect2280" width="1.033" height="1.033" x="20.006" y="-21.022" transform="scale(1,-1)" style="opacity:.2;fill:#fff;fill-opacity:1;fill-rule:nonzero;stroke:none;stroke-width:.375;marker:none;visibility:visible;display:inline;overflow:visible"/><rect id="rect2282" width=".517" height=".517" x="20.006" y="-21.022" transform="scale(1,-1)" style="fill:#010306;fill-opacity:1;fill-rule:nonzero;stroke:none;stroke-width:.375;marker:none;visibility:visible;display:inline;overflow:visible"/><path id="rect2247" d="m 19.8113625,22.3113625 0,-10.8221955 c 0,-0.443493 -0.3519355,-0.800529 -0.7890905,-0.800529 l -14.04454355,0 c -0.4371562,0 -0.78909065,0.357036 -0.78909065,0.800529 l 0,10.8221955 15.6227247,0 z" style="opacity:.6;fill:none;stroke:url(#linearGradient4727);stroke-width:.377275465;stroke-linecap:round;stroke-linejoin:round;stroke-miterlimit:4;stroke-opacity:1;stroke-dasharray:none;stroke-dashoffset:0;marker:none;visibility:visible;display:inline;overflow:visible"/><rect id="rect2257" width="14.622" height="11.122" x="4.689" y="-22.311" rx=".099" ry=".1" transform="scale(1,-1)" style="fill:url(#linearGradient4725);fill-opacity:1;fill-rule:nonzero;stroke:#e2e2df;stroke-width:.37826422;stroke-linecap:round;stroke-linejoin:round;stroke-miterlimit:4;stroke-opacity:1;stroke-dasharray:none;stroke-dashoffset:0;marker:none;visibility:visible;display:inline;overflow:visible"/><path id="path2264" d="m 4.70743975,22.3134575 14.58512075,0" style="fill:#3f6cff;fill-opacity:.75;fill-rule:evenodd;stroke:#575757;stroke-width:.3730855;stroke-linecap:round;stroke-linejoin:round;stroke-miterlimit:4;stroke-opacity:1;stroke-dasharray:none;display:inline"/><path id="path2329" d="m 4.68720545,18.2503315 14.62558905,0" style="fill:none;stroke:#d3d7cf;stroke-width:.432289035;stroke-linecap:round;stroke-linejoin:round;stroke-miterlimit:4;stroke-opacity:1;stroke-dasharray:none;display:inline"/><path id="path2331" d="m 4.68720545,14.2503315 14.62558905,0" style="fill:none;stroke:#d3d7cf;stroke-width:.432289035;stroke-linecap:round;stroke-linejoin:round;stroke-miterlimit:4;stroke-opacity:1;stroke-dasharray:none;display:inline"/><path id="path7255" d="m 18.115565,9.311083 c 0.1601805,-0.019415 0.3158975,-0.094957 0.431671,-0.191077 0.1605155,-0.1398605 0.265644,-0.347894 0.265644,-0.5732275 l 0,-5.85965845 -10.6257595,0 0,5.85965845 c 0,0.4241595 0.3546645,0.7643045 0.796932,0.7643045 l 9.031896,0 c 0.03455,0 0.0662445,0.00405 0.0996165,0 z m -1.660276,-1.0190725 c -0.01958,0.0038 -0.04562,0 -0.0664105,0 l -2.058741,0 c -0.067571,0 -0.1325665,-0.02783 -0.1826305,-0.063693 -0.014815,-0.011715 -0.03759,-0.03356 -0.04981,-0.047765 -0.037395,-0.048015 -0.066411,-0.1103485 -0.066411,-0.1751525 l 0,-3.5030572 c 0,-0.06480425 0.029015,-0.12713715 0.066411,-0.1751524 0.01222,-0.0142095 0.03499,-0.0360525 0.04981,-0.04777 0.050064,-0.035862 0.1150595,-0.06369175 0.1826305,-0.06369175 l 2.058741,0 c 0.067571,0 0.1325665,0.0278295 0.1826295,0.06369175 0.014815,0.0117175 0.03759,0.033561 0.04981,0.04777 0.037395,0.048015 0.066412,0.11034815 0.066412,0.1751524 l 0,3.5030572 c 0,0.064804 -0.029015,0.1271375 -0.066412,0.1751525 -0.012215,0.01421 -0.03499,0.03605 -0.04981,0.047765 -0.03466,0.02483 -0.072166,0.055091 -0.116219,0.063693 z" style="opacity:.5;fill:url(#linearGradient4723);fill-opacity:1;fill-rule:nonzero;stroke:#555753;stroke-width:.37424016;stroke-linecap:round;stroke-linejoin:round;stroke-miterlimit:4;stroke-opacity:1;stroke-dasharray:none;stroke-dashoffset:0;marker:none;visibility:visible;display:inline;overflow:visible"/><path id="rect2316" d="m 18.1280935,8.9136475 -9.2824015,0 c -0.160709,0 -0.29009,-0.1253405 -0.29009,-0.2810315 l 0,-5.5480617 9.8625805,0 0,5.5480617 c 0,0.155691 -0.1293795,0.2810315 -0.290089,0.2810315 z" style="opacity:.4;fill:none;stroke:url(#linearGradient3219);stroke-width:.38725385;stroke-linecap:round;stroke-linejoin:round;stroke-miterlimit:4;stroke-opacity:1;stroke-dasharray:none;stroke-dashoffset:0;marker:none;visibility:visible;display:inline;overflow:visible"/></g></svg>