<svg xmlns="http://www.w3.org/2000/svg" xmlns:svg="http://www.w3.org/2000/svg" xmlns:xlink="http://www.w3.org/1999/xlink" id="svg11300" width="24" height="24" version="1.0"><defs id="defs3"><linearGradient id="linearGradient4956"><stop id="stop4958" style="stop-color:#f8b17e;stop-opacity:1" offset="0"/><stop id="stop4960" style="stop-color:#e35d4f;stop-opacity:1" offset=".262"/><stop id="stop4962" style="stop-color:#c6262e;stop-opacity:1" offset=".663"/><stop id="stop4964" style="stop-color:#690b54;stop-opacity:1" offset="1"/></linearGradient><linearGradient id="linearGradient4099"><stop id="stop4101" style="stop-color:#edd563;stop-opacity:1" offset="0"/><stop id="stop4103" style="stop-color:#e08223;stop-opacity:1" offset="1"/></linearGradient><linearGradient id="linearGradient4093"><stop id="stop4095" style="stop-color:#bb5e12;stop-opacity:1" offset="0"/><stop id="stop4097" style="stop-color:#cd8033;stop-opacity:1" offset="1"/></linearGradient><linearGradient id="linearGradient6221"><stop id="stop6223" style="stop-color:black;stop-opacity:1" offset="0"/><stop id="stop6225" style="stop-color:black;stop-opacity:0" offset="1"/></linearGradient><linearGradient id="linearGradient5443"><stop id="stop5445" style="stop-color:white;stop-opacity:1" offset="0"/><stop id="stop5447" style="stop-color:white;stop-opacity:0" offset="1"/></linearGradient><radialGradient id="radialGradient2912" cx="10.98" cy="17.249" r="6.364" fx="10.98" fy="17.249" gradientTransform="matrix(0.23695139,0,0,0.0905974,17.8448035,20.645388)" gradientUnits="userSpaceOnUse" xlink:href="#linearGradient6221"/><radialGradient id="radialGradient2915" cx="10.98" cy="17.249" r="6.364" fx="10.98" fy="17.249" gradientTransform="matrix(0.57921468,0,0,0.23991807,13.95399,17.885011)" gradientUnits="userSpaceOnUse" xlink:href="#linearGradient6221"/><radialGradient id="radialGradient2918" cx="10.98" cy="17.249" r="6.364" fx="10.98" fy="17.249" gradientTransform="matrix(0.18131971,0,0,0.07549778,0.9167373,21.1386095)" gradientUnits="userSpaceOnUse" xlink:href="#linearGradient6221"/><radialGradient id="radialGradient2921" cx="10.98" cy="17.249" r="6.364" fx="10.98" fy="17.249" gradientTransform="matrix(0.46337318,0,0,0.19993169,-2.0368143,18.8208445)" gradientUnits="userSpaceOnUse" xlink:href="#linearGradient6221"/><linearGradient id="linearGradient4434"><stop id="stop4436" style="stop-color:#d3d7cf;stop-opacity:1" offset="0"/><stop id="stop4438" style="stop-color:#babdb6;stop-opacity:1" offset=".183"/><stop id="stop4440" style="stop-color:white;stop-opacity:1" offset=".319"/><stop id="stop4442" style="stop-color:#babdb6;stop-opacity:1" offset=".876"/><stop id="stop4444" style="stop-color:#eeeeec;stop-opacity:1" offset="1"/></linearGradient><linearGradient id="linearGradient7444"><stop id="stop7446" style="stop-color:#888a85;stop-opacity:1" offset="0"/><stop id="stop7448" style="stop-color:#555753;stop-opacity:1" offset="1"/></linearGradient><linearGradient id="linearGradient7381"><stop id="stop7383" style="stop-color:#babdb6;stop-opacity:1" offset="0"/><stop id="stop7385" style="stop-color:white;stop-opacity:1" offset="1"/></linearGradient><linearGradient id="linearGradient7421"><stop id="stop7423" style="stop-color:white;stop-opacity:1" offset="0"/><stop id="stop7425" style="stop-color:white;stop-opacity:0" offset="1"/></linearGradient><linearGradient id="linearGradient4665" x1="-3.154" x2="-4.887" y1="22.114" y2="22.07" gradientTransform="matrix(0.50045082,-0.49965052,0.84917342,0.84785213,-0.055605975,-4.5048275)" gradientUnits="userSpaceOnUse" xlink:href="#linearGradient6221"/><linearGradient id="linearGradient4668" x1="48.721" x2="45.11" y1="17.576" y2="17.54" gradientTransform="matrix(0.82274296,-0.82218552,0.71961224,0.71912451,-36.051353,40.77338)" gradientUnits="userSpaceOnUse" xlink:href="#linearGradient4956"/><linearGradient id="linearGradient4734" x1="151.146" x2="154.325" y1="29.221" y2="30.384" gradientTransform="matrix(1.3630182,0,0,1.3616941,-201.90832,-33.979232)" gradientUnits="userSpaceOnUse" xlink:href="#linearGradient7381"/><linearGradient id="linearGradient4737" x1="152.381" x2="167.65" y1="32.148" y2="40.963" gradientTransform="matrix(1.3630182,0,0,1.3616941,-201.90832,-33.979232)" gradientUnits="userSpaceOnUse" xlink:href="#linearGradient4434"/><linearGradient id="linearGradient4739" x1="162.249" x2="165.03" y1="35.141" y2="49.637" gradientTransform="matrix(1.3630182,0,0,1.3616941,-201.90832,-33.979232)" gradientUnits="userSpaceOnUse" xlink:href="#linearGradient7444"/><linearGradient id="linearGradient4758" x1="163.301" x2="158.581" y1="37.788" y2="44.003" gradientTransform="matrix(1.3630182,0,0,1.3616941,-201.90832,-33.979232)" gradientUnits="userSpaceOnUse" xlink:href="#linearGradient7421"/><linearGradient id="linearGradient2490"><stop id="stop2492" style="stop-color:#791235;stop-opacity:1" offset="0"/><stop id="stop2494" style="stop-color:#dd3b27;stop-opacity:1" offset="1"/></linearGradient><linearGradient id="linearGradient4972" x1="14.639" x2="18" y1="17.011" y2="13.636" gradientUnits="userSpaceOnUse" xlink:href="#linearGradient2490"/><linearGradient id="linearGradient4987" x1="27.383" x2="27.36" y1=".5" y2="6.292" gradientTransform="matrix(-0.73220338,-0.7338647,0.73220338,-0.7338647,21.7684485,42.617874)" gradientUnits="userSpaceOnUse" xlink:href="#linearGradient5443"/><linearGradient id="linearGradient4990" x1="29.274" x2="28.223" y1="18.751" y2="18.793" gradientTransform="matrix(1.0366781,0,0,2.1488993,-45.529738,-33.41179)" gradientUnits="userSpaceOnUse" xlink:href="#linearGradient5443"/><linearGradient id="linearGradient4993" x1="-3.549" x2="-5.09" y1="20.162" y2="20.155" gradientTransform="matrix(0.50479505,0,0,1.4199623,-14.9560185,-20.951598)" gradientUnits="userSpaceOnUse" xlink:href="#linearGradient6221"/><linearGradient id="linearGradient4996" x1="-5.47" x2="-3.465" y1="18.456" y2="18.446" gradientTransform="matrix(0.60312184,0,0,1.4585579,-15.702608,-22.123564)" gradientUnits="userSpaceOnUse" xlink:href="#linearGradient6221"/><linearGradient id="linearGradient4999" x1="12.786" x2="13.684" y1="10.381" y2="11.238" gradientTransform="matrix(-1.0423996,0,0,-1.0378417,22.2507185,26.738045)" gradientUnits="userSpaceOnUse" xlink:href="#linearGradient7381"/><linearGradient id="linearGradient5001" x1="11.188" x2="15.544" y1="17.812" y2="13.443" gradientTransform="matrix(1.0468682,0,0,1.0468717,-3.1993712,-3.16007225)" gradientUnits="userSpaceOnUse" xlink:href="#linearGradient7444"/><radialGradient id="radialGradient5004" cx="-19.729" cy="5.92" r="1.953" fx="-19.729" fy="5.92" gradientTransform="matrix(2.3533908,-0.16336681,0.28682268,5.972601,29.5323405,-32.6832575)" gradientUnits="userSpaceOnUse" xlink:href="#linearGradient5443"/><linearGradient id="linearGradient5007" x1="-1.098" x2="-5.283" y1="20.486" y2="20.474" gradientTransform="matrix(0.84492232,-2.9977401e-8,0,1.6837108,-13.564776,-28.561624)" gradientUnits="userSpaceOnUse" xlink:href="#linearGradient4099"/><linearGradient id="linearGradient5009" x1="-22.784" x2="-18.041" y1="3.857" y2="6.162" gradientTransform="matrix(1.0468699,0,0,1.04687,4.49687175,-0.00309372)" gradientUnits="userSpaceOnUse" xlink:href="#linearGradient4093"/><radialGradient id="radialGradient5017" cx="12.989" cy="10.811" r="1" fx="12.989" fy="10.811" gradientTransform="matrix(0.80803421,-0.02610843,0.00943568,1.3973911,2.37990275,-3.95446645)" gradientUnits="userSpaceOnUse" xlink:href="#linearGradient6221"/></defs><path id="path6912" d="M 6.078125,1.21875 C 5.996209,1.21467385 5.914107,1.2478127 5.859375,1.3125 5.7863925,1.3987293 5.7865045,1.52665845 5.84375,1.625 L 7.375,4.359375 c 0.1375015,0.2457926 0.0653635,0.5673046 -0.15625,0.890625 -0.223712,0.3263845 -0.601873,0.6469085 -1.078125,0.90625 -0.476348,0.2593825 -0.9455715,0.408428 -1.34375,0.421875 -0.3958273,0.013415 -0.70590115,-0.0973105 -0.84375,-0.34375 L 2.40625,3.46875 C 2.36331495,3.39223645 2.2905149,3.35390825 2.203125,3.34375 2.1157419,3.3336054 2.02704625,3.3571264 1.96875,3.421875 c -0.0314855,0.033634 -0.05173215,0.08024795 -0.0625,0.125 -0.29653825,1.27669035 -0.15621305,2.7445185 0.40625,3.75 0.76814255,1.3731735 2.37093545,2.0271665 3.9375,1.75 0.6401415,0.215148 1.7280745,0.588897 2.7345,1.587625 l 2.075,-2.2095 C 10.1522345,7.524682 9.7282395,6.70319 9.484375,6.09375 9.6959565,5.2512495 9.60148,4.3584306 9.15625,3.5625 8.5940185,2.5574472 7.422172,1.66774095 6.171875,1.234375 6.1450525,1.22457075 6.1054305,1.2201087 6.078125,1.21875 z" style="fill:url(#linearGradient4737);fill-opacity:1;fill-rule:evenodd;stroke:url(#linearGradient4739);stroke-width:.49999994;stroke-linecap:round;stroke-linejoin:round;stroke-miterlimit:4;stroke-opacity:1;stroke-dasharray:none;stroke-dashoffset:.3612;display:inline;enable-background:new"/><path id="path7379" d="m 6.079736,1.46736735 c 0.012745,0.004765 0.00475,0.0212425 0,0.0213105 l 1.5333955,2.74466465 c 0.206858,0.36975445 0.0576555,0.8064295 -0.1916745,1.170206 -0.251811,0.367378 -0.641982,0.723332 -1.150047,0.999994 -0.509155,0.2772545 -1.0431995,0.410408 -1.49080095,0.4255295 -0.44662015,0.015115 -0.86583685,-0.1122785 -1.06485795,-0.4680825 L 2.1823556,3.5950484 c -0.0087915,-0.00136 -0.0227625,0.00136 -0.021331,0 0.014039,-0.0149785 0.002725,0.0108935 0,0.0213105 -0.28277175,1.21744305 -0.136111,2.6245631 0.38334885,3.5531706 0.710555,1.270229 2.1940572,1.876925 3.66311105,1.6170115 1.4621575,-0.2614585 2.712379,-1.534064 3.024197,-2.7446645 0.1968945,-0.78405 0.1130145,-1.6266389 -0.2981605,-2.36168815 C 8.415472,2.7541206 7.275839,1.8820304 6.0797015,1.4674354 l 3.45E-5,-6.805E-5 z" style="fill:url(#linearGradient4734);fill-opacity:1;fill-rule:evenodd;stroke:none;display:inline;enable-background:new"/><path id="path4756" d="m 6.84375,2.234375 1.03125,1.84375 c 0.2907045,0.5196245 0.0797355,1.0873165 -0.203125,1.5 -0.285784,0.416946 -0.7034775,0.780523 -1.25,1.078125 -0.5488195,0.298852 -1.1176505,0.4672355 -1.625,0.484375 -0.50802415,0.01717 -1.07077835,-0.136992 -1.34375,-0.625 L 2.390625,4.59375 c -0.0453885,0.897431 0.05851,1.80023 0.40625,2.421875 0.6409389,1.1457775 1.99257635,1.707807 3.34375,1.46875 0.098914,-0.01952 0.2017365,-0.0021 0.296875,0.03125 0.732343,0.246128 1.646711,0.7485485 2.703125,1.796875 l 0.5,0.5 1.546875,-1.546875 -0.484375,-0.484375 c -0.9524565,-0.945156 -1.474234,-1.779594 -1.75,-2.46875 C 8.911555,6.2047355 8.909695,6.096464 8.9375,5.984375 9.11665,5.2709885 9.04188,4.48957675 8.671875,3.828125 8.3337035,3.22360295 7.6213585,2.67174025 6.84375,2.234375 z" style="fill:none;stroke:url(#linearGradient4758);stroke-width:.349999935;stroke-linecap:round;stroke-linejoin:miter;stroke-miterlimit:4;stroke-opacity:1;stroke-dasharray:none;stroke-dashoffset:.3612;display:inline;enable-background:new"/><path id="rect7166" d="m 9.0625,8.140625 c -0.0684525,0.00586 -0.128886,0.01955 -0.171875,0.0625 l -0.3125,0.328125 c -0.1719565,0.1717895 -0.04663,0.594328 0.296875,0.9375 l 1.0625,1.046875 0.9375,-0.953125 -1.046875,-1.046875 c -0.2576295,-0.257379 -0.560267,-0.392583 -0.765625,-0.375 z" style="opacity:.07999998;fill:#000;fill-opacity:1;fill-rule:evenodd;stroke:none;display:inline;enable-background:new"/><path id="path5331" d="M 6,22.250001 A 3.0000001,1.2500001 0 1 1 -1.07539E-8,22.250001 3.0000001,1.2500001 0 1 1 6,22.250001 z" style="opacity:.25;fill:url(#radialGradient2921);fill-opacity:1;stroke:none"/><path id="path6769" d="m 4.06157375,22.43352 a 1.1739116,0.47202235 0 1 1 -2.34782315,0 1.1739116,0.47202235 0 1 1 2.34782315,0 z" style="opacity:.3;fill:url(#radialGradient2918);fill-opacity:1;stroke:none"/><path id="path6765" d="m 23.999977,21.9999995 a 3.7499885,1.5000004 0 0 1 -7.499977,0 3.7499885,1.5000004 0 1 1 7.499977,0 z" style="opacity:.25;fill:url(#radialGradient2915);fill-opacity:1;stroke:none"/><path id="path6773" d="m 21.954524,22.199282 a 1.53408575,0.56642725 0 1 1 -3.0681715,0 1.53408575,0.56642725 0 1 1 3.0681715,0 z" style="opacity:.3;fill:url(#radialGradient2912);fill-opacity:1;stroke:none"/><path id="path6899" d="m 8.763948,10.4322345 10.6352435,11.347819 c 0.6976625,0.6971925 1.8921105,0.6059155 2.68976,-0.191192 0.797649,-0.79711 0.888985,-1.9907465 0.191322,-2.6879375 L 10.9247595,8.2728875 8.763938,10.4322245 z m 11.1641915,8.9972795 c 0.396533,-0.3962635 1.0440095,-0.3962635 1.4405415,0 0.396532,0.396264 0.396532,1.0433015 5.0E-7,1.4395645 -0.396533,0.3962625 -1.044009,0.3962635 -1.440542,0 -0.3965315,-0.396264 -0.396532,-1.0433005 0,-1.4395645 z" style="fill:url(#linearGradient4668);fill-opacity:1;stroke:url(#linearGradient4972);stroke-width:.49981639;stroke-linecap:round;stroke-linejoin:round;stroke-miterlimit:4;stroke-opacity:1;stroke-dasharray:none;stroke-dashoffset:.7;display:inline;enable-background:new"/><path id="rect6533" d="m 10.7328525,10.2641275 c 0.277249,-0.2768045 0.7847485,-0.2157915 1.1378935,0.1368 l 7.345848,6.667121 c 0.3531425,0.3525945 0.0802585,1.1931315 -0.1969905,1.469936 -0.277251,0.2768075 -1.1189185,0.549815 -1.472062,0.197222 L 10.869842,11.4002305 C 10.5167,11.047635 10.4556015,10.5409355 10.7328525,10.2641275 z" style="opacity:.23106061;fill:url(#linearGradient4665);fill-opacity:1;stroke:none;display:inline"/><rect id="rect5288" width="4.628" height="15.009" x="-19.268" y="-1.056" rx="1.978" ry="1.978" transform="matrix(-0.71097924,-0.703213,0.70748499,-0.70672837,0,0)" style="fill:url(#linearGradient5007);fill-opacity:1;stroke:url(#linearGradient5009);stroke-width:.5000931;stroke-linecap:round;stroke-linejoin:round;stroke-miterlimit:4;stroke-opacity:1;stroke-dasharray:none"/><path id="path4983" d="m 14,11.25 a 1,1.25 0 1 1 -2,0 1,1.25 0 1 1 2,0 z" transform="matrix(-1.2190264,-1.2555774,0.57397825,-0.55726921,22.1123065,33.820158)" style="opacity:.3;fill:url(#radialGradient5017);fill-opacity:1;stroke:none"/><rect id="rect5292" width="3.589" height="13.969" x="-18.749" y="-.571" rx="1.484" ry="1.484" transform="matrix(-0.71239463,-0.70177909,0.70750329,-0.70671005,0,0)" style="opacity:.6;fill:none;stroke:url(#radialGradient5004);stroke-width:.500008105;stroke-linecap:round;stroke-linejoin:round;stroke-miterlimit:4;stroke-opacity:1;stroke-dasharray:none"/><path id="path5286" d="M 2.31099545,22.7499555 4.7669163,21.0533725 5.0650365,20.0290105 12.677521,12.404569 c 0.517746,-0.583787 -0.45845,-1.6197175 -1.1056315,-1.1007975 L 3.9565367,18.9179955 2.9275563,19.209839 1.24986505,21.675746 c 0,0 1.0611304,1.0742095 1.0611304,1.0742095 z" style="fill:url(#linearGradient4999);fill-opacity:1;stroke:url(#linearGradient5001);stroke-width:.5;stroke-linecap:round;stroke-linejoin:round;stroke-miterlimit:4;stroke-opacity:1;stroke-dasharray:none"/><rect id="rect2804" width=".736" height="11.403" x="-18.718" y="1.213" rx=".495" ry=".544" transform="matrix(-0.71258595,-0.70158482,0.70777179,-0.70644115,0,0)" style="opacity:.3;fill:url(#linearGradient4996);fill-opacity:1;stroke:none"/><rect id="rect5290" width="1.01" height="11.36" x="-17.48" y="1.768" rx=".495" ry=".544" transform="matrix(-0.71337531,-0.70078219,0.70733391,-0.70687958,0,0)" style="opacity:.3;fill:url(#linearGradient4993);fill-opacity:1;stroke:none"/><rect id="rect5398" width=".736" height="11.403" x="-15.916" y="1.238" rx=".495" ry=".544" transform="matrix(-0.71258595,-0.70158482,0.70777179,-0.70644115,0,0)" style="opacity:.25;fill:url(#linearGradient4990);fill-opacity:1;stroke:none"/><path id="path5450" d="M 2.33546755,22.4069315 4.5215477,20.940277 4.7662866,20.006984 C 4.9676025,19.774156 4.17824505,19.038959 3.96543875,19.204319 l -0.91973915,0.256761 -1.4633035,2.191071 c 0.2872917,0.287943 0.46577995,0.4668365 0.75307145,0.7547805 z" style="fill:url(#linearGradient4987);fill-opacity:1;stroke:none"/><path id="path4979" d="m 12.358825,12.0575055 c 0.038355,-0.1914225 -0.228467,-0.4311535 -0.411322,-0.430515 -2.584688,2.51031 -5.1719665,5.1501275 -7.71772375,7.701392 l -1.01823165,0.306737 c -0.446717,0.6566225 -0.893434,1.3132445 -1.34015095,1.969867 0.16902575,0.1744785 0.338051,0.3489575 0.5070768,0.523436 0.6651973,-0.4580065 1.33039515,-0.916013 1.9955925,-1.3740195 0.09082575,-0.2868635 0.1542173,-0.589916 0.26171705,-0.8669405" style="opacity:.7;fill:none;stroke:#fff;stroke-width:.5;stroke-linecap:round;stroke-linejoin:round;stroke-miterlimit:4;stroke-opacity:1"/></svg>