<svg xmlns="http://www.w3.org/2000/svg" xmlns:svg="http://www.w3.org/2000/svg" xmlns:xlink="http://www.w3.org/1999/xlink" id="svg3858" width="48" height="48" version="1.1"><metadata id="metadata115"/><defs id="defs3860"><linearGradient id="linearGradient8589"><stop id="stop8591" style="stop-color:#fefefe;stop-opacity:1" offset="0"/><stop id="stop8593" style="stop-color:#cbcbcb;stop-opacity:1" offset="1"/></linearGradient><linearGradient id="linearGradient5573" x1="32.892" x2="36.358" y1="8.059" y2="5.457" gradientTransform="matrix(0.9976985,0,0,1.0642049,79.92444,11.281007)" gradientUnits="userSpaceOnUse" xlink:href="#linearGradient8589"/><linearGradient id="linearGradient3931"><stop id="stop3933" style="stop-color:#8d8f8a;stop-opacity:1" offset="0"/><stop id="stop3935" style="stop-color:#cbcbcb;stop-opacity:1" offset="1"/></linearGradient><linearGradient id="linearGradient5571" x1="-51.786" x2="-51.786" y1="50.786" y2="2.906" gradientTransform="matrix(0.8074968,0,0,0.9358511,139.17087,6.3057874)" gradientUnits="userSpaceOnUse" xlink:href="#linearGradient3931"/><linearGradient id="linearGradient3600"><stop id="stop3602" style="stop-color:#f4f4f4;stop-opacity:1" offset="0"/><stop id="stop3604" style="stop-color:#dbdbdb;stop-opacity:1" offset="1"/></linearGradient><linearGradient id="linearGradient5569" x1="25.132" x2="25.132" y1="6.729" y2="47.013" gradientTransform="translate(79.76064,7.4202674)" gradientUnits="userSpaceOnUse" xlink:href="#linearGradient3600"/><radialGradient id="radialGradient5567" cx="605.714" cy="486.648" r="117.143" fx="605.714" fy="486.648" gradientTransform="matrix(0.02409717,0,0,0.01537476,26.477584,38.629039)" gradientUnits="userSpaceOnUse" xlink:href="#linearGradient5060"/><linearGradient id="linearGradient5060"><stop id="stop5062" style="stop-color:#000;stop-opacity:1" offset="0"/><stop id="stop5064" style="stop-color:#000;stop-opacity:0" offset="1"/></linearGradient><radialGradient id="radialGradient5565" cx="605.714" cy="486.648" r="117.143" fx="605.714" fy="486.648" gradientTransform="matrix(-0.02409717,0,0,0.01537476,21.522412,38.629039)" gradientUnits="userSpaceOnUse" xlink:href="#linearGradient5060"/><linearGradient id="linearGradient5048"><stop id="stop5050" style="stop-color:#000;stop-opacity:0" offset="0"/><stop id="stop5056" style="stop-color:#000;stop-opacity:1" offset=".5"/><stop id="stop5052" style="stop-color:#000;stop-opacity:0" offset="1"/></linearGradient><linearGradient id="linearGradient5563" x1="302.857" x2="302.857" y1="366.648" y2="609.505" gradientTransform="matrix(0.0704142,0,0,0.01537476,-1.4497047,38.629007)" gradientUnits="userSpaceOnUse" xlink:href="#linearGradient5048"/><linearGradient id="linearGradient4873"><stop id="stop4875" style="stop-color:#fff;stop-opacity:1" offset="0"/><stop id="stop4877" style="stop-color:#fff;stop-opacity:0" offset="1"/></linearGradient><linearGradient id="linearGradient2509" x1="21.629" x2="22.245" y1="2.11" y2="43.366" gradientTransform="matrix(0.4873978,0,0,0.4781595,-11.889561,1.7007118)" gradientUnits="userSpaceOnUse" xlink:href="#linearGradient4873"/><linearGradient id="linearGradient3533"><stop id="stop3535" style="stop-color:#93b9dd;stop-opacity:1" offset="0"/><stop id="stop3545" style="stop-color:#6396cd;stop-opacity:1" offset="1"/></linearGradient><linearGradient id="linearGradient2517" x1="15.373" x2="15.373" y1="5.047" y2="22.6" gradientTransform="matrix(0.4873978,0,0,0.4781595,-11.889561,1.7007118)" gradientUnits="userSpaceOnUse" xlink:href="#linearGradient3533"/><linearGradient id="linearGradient2863" x1="9" x2="9" y1="29.057" y2="26.03" gradientTransform="matrix(1.1213238,-1.1263648,1.3858308,1.3783152,-38.432508,7.0054061)" gradientUnits="userSpaceOnUse" xlink:href="#linearGradient3290"/><linearGradient id="linearGradient3290"><stop id="stop3292" style="stop-color:#e4db7b;stop-opacity:1" offset="0"/><stop id="stop3294" style="stop-color:#f4f0c8;stop-opacity:1" offset="1"/></linearGradient><linearGradient id="linearGradient2865" x1="5.518" x2="9.522" y1="37.372" y2="41.392" gradientTransform="matrix(0.9421616,0,0,0.9409994,0.92425798,-0.79067298)" gradientUnits="userSpaceOnUse" xlink:href="#linearGradient3191"/><linearGradient id="linearGradient3191"><stop id="stop3193" style="stop-color:#cbbd27;stop-opacity:1" offset="0"/><stop id="stop3195" style="stop-color:#9b901d;stop-opacity:1" offset="1"/></linearGradient><linearGradient id="linearGradient2868" x1="30.038" x2="30.038" y1="24.99" y2="30" gradientTransform="matrix(1.1213238,-1.1263648,1.3858308,1.3783152,-36.090497,4.652865)" gradientUnits="userSpaceOnUse" xlink:href="#linearGradient3223"/><linearGradient id="linearGradient3223"><stop id="stop3225" style="stop-color:#999;stop-opacity:1" offset="0"/><stop id="stop3231" style="stop-color:white;stop-opacity:1" offset=".5"/><stop id="stop3227" style="stop-color:#777;stop-opacity:1" offset="1"/></linearGradient><linearGradient id="linearGradient2871" x1="30.038" x2="30.038" y1="24.99" y2="30" gradientTransform="matrix(1.1213238,-1.1263648,1.3858308,1.3783152,-35.769364,4.33029)" gradientUnits="userSpaceOnUse" xlink:href="#linearGradient3240"/><linearGradient id="linearGradient3240"><stop id="stop3242" style="stop-color:#3e3e3e;stop-opacity:1" offset="0"/><stop id="stop3244" style="stop-color:#828282;stop-opacity:1" offset=".5"/><stop id="stop3246" style="stop-color:#3c3c3c;stop-opacity:1" offset="1"/></linearGradient><linearGradient id="linearGradient2874" x1="30.038" x2="30.038" y1="24.99" y2="30" gradientTransform="matrix(1.1213238,-1.1263648,1.3858308,1.3783152,-37.21182,5.77923)" gradientUnits="userSpaceOnUse" xlink:href="#linearGradient3223"/><linearGradient id="linearGradient3058"><stop id="stop3060" style="stop-color:#999;stop-opacity:1" offset="0"/><stop id="stop3062" style="stop-color:white;stop-opacity:1" offset=".5"/><stop id="stop3064" style="stop-color:#777;stop-opacity:1" offset="1"/></linearGradient><linearGradient id="linearGradient2877" x1="30.038" x2="30.038" y1="24.99" y2="30" gradientTransform="matrix(1.1213238,-1.1263648,1.3858308,1.3783152,-36.890688,5.456654)" gradientUnits="userSpaceOnUse" xlink:href="#linearGradient3240"/><linearGradient id="linearGradient3067"><stop id="stop3069" style="stop-color:#3e3e3e;stop-opacity:1" offset="0"/><stop id="stop3071" style="stop-color:#828282;stop-opacity:1" offset=".5"/><stop id="stop3073" style="stop-color:#3c3c3c;stop-opacity:1" offset="1"/></linearGradient><linearGradient id="linearGradient2880" x1="30.038" x2="30.038" y1="24.99" y2="30" gradientTransform="matrix(1.1213238,-1.1263648,1.3858308,1.3783152,-38.327749,6.9001771)" gradientUnits="userSpaceOnUse" xlink:href="#linearGradient3223"/><linearGradient id="linearGradient3076"><stop id="stop3078" style="stop-color:#999;stop-opacity:1" offset="0"/><stop id="stop3080" style="stop-color:white;stop-opacity:1" offset=".5"/><stop id="stop3082" style="stop-color:#777;stop-opacity:1" offset="1"/></linearGradient><linearGradient id="linearGradient2883" x1="30.038" x2="30.038" y1="24.99" y2="30" gradientTransform="matrix(1.1213238,-1.1263648,1.3858308,1.3783152,-38.006617,6.5776021)" gradientUnits="userSpaceOnUse" xlink:href="#linearGradient3240"/><linearGradient id="linearGradient3085"><stop id="stop3087" style="stop-color:#3e3e3e;stop-opacity:1" offset="0"/><stop id="stop3089" style="stop-color:#828282;stop-opacity:1" offset=".5"/><stop id="stop3091" style="stop-color:#3c3c3c;stop-opacity:1" offset="1"/></linearGradient><linearGradient id="linearGradient2888" x1="23.576" x2="23.576" y1="25.357" y2="31.211" gradientTransform="matrix(1.1539441,-1.1591317,1.184149,1.1777273,-34.199129,12.0896)" gradientUnits="userSpaceOnUse" spreadMethod="pad" xlink:href="#linearGradient3155"/><linearGradient id="linearGradient3155"><stop id="stop3157" style="stop-color:black;stop-opacity:1" offset="0"/><stop id="stop3171" style="stop-color:#c3c3c3;stop-opacity:1" offset=".135"/><stop id="stop3173" style="stop-color:#8c8c8c;stop-opacity:1" offset=".202"/><stop id="stop3163" style="stop-color:white;stop-opacity:1" offset=".27"/><stop id="stop3165" style="stop-color:#757575;stop-opacity:1" offset=".447"/><stop id="stop3167" style="stop-color:#7d7d7d;stop-opacity:1" offset=".571"/><stop id="stop3169" style="stop-color:#b6b6b6;stop-opacity:1" offset=".72"/><stop id="stop3159" style="stop-color:black;stop-opacity:1" offset="1"/></linearGradient><filter id="filter3699" width="1.12" height="1.481" x="-.06" y="-.24" color-interpolation-filters="sRGB"><feGaussianBlur id="feGaussianBlur3701" stdDeviation="1.001"/></filter><filter id="filter3699-0" width="1.12" height="1.481" x="-.06" y="-.24" color-interpolation-filters="sRGB"><feGaussianBlur id="feGaussianBlur3701-6" stdDeviation="1.001"/></filter><linearGradient id="linearGradient3285-9" x1="23.576" x2="23.576" y1="25.357" y2="31.211" gradientTransform="matrix(0.79708517,-0.79124093,0.81794916,0.80393457,-7.3945831,17.762975)" gradientUnits="userSpaceOnUse" spreadMethod="pad" xlink:href="#linearGradient3155-0"/><linearGradient id="linearGradient3155-0"><stop id="stop3157-6" style="stop-color:black;stop-opacity:1" offset="0"/><stop id="stop3171-0" style="stop-color:#c3c3c3;stop-opacity:1" offset=".135"/><stop id="stop3173-2" style="stop-color:#8c8c8c;stop-opacity:1" offset=".202"/><stop id="stop3163-3" style="stop-color:white;stop-opacity:1" offset=".27"/><stop id="stop3165-8" style="stop-color:#757575;stop-opacity:1" offset=".447"/><stop id="stop3167-9" style="stop-color:#7d7d7d;stop-opacity:1" offset=".571"/><stop id="stop3169-9" style="stop-color:#b6b6b6;stop-opacity:1" offset=".72"/><stop id="stop3159-3" style="stop-color:black;stop-opacity:1" offset="1"/></linearGradient><linearGradient id="linearGradient3287-5" x1="30.038" x2="30.038" y1="24.99" y2="30" gradientTransform="matrix(0.77455274,-0.76887375,0.95726056,0.94085893,-10.0246,14.000402)" gradientUnits="userSpaceOnUse" xlink:href="#linearGradient3240-0"/><linearGradient id="linearGradient3240-0"><stop id="stop3242-0" style="stop-color:#3e3e3e;stop-opacity:1" offset="0"/><stop id="stop3244-8" style="stop-color:#828282;stop-opacity:1" offset=".5"/><stop id="stop3246-1" style="stop-color:#3c3c3c;stop-opacity:1" offset="1"/></linearGradient><linearGradient id="linearGradient3289-3" x1="30.038" x2="30.038" y1="24.99" y2="30" gradientTransform="matrix(0.77455274,-0.76887375,0.95726056,0.94085893,-10.246421,14.220596)" gradientUnits="userSpaceOnUse" xlink:href="#linearGradient3223-7"/><linearGradient id="linearGradient3223-7"><stop id="stop3225-9" style="stop-color:#999;stop-opacity:1" offset="0"/><stop id="stop3231-3" style="stop-color:white;stop-opacity:1" offset=".5"/><stop id="stop3227-1" style="stop-color:#777;stop-opacity:1" offset="1"/></linearGradient><linearGradient id="linearGradient3291-1" x1="30.038" x2="30.038" y1="24.99" y2="30" gradientTransform="matrix(0.77455274,-0.76887375,0.95726056,0.94085893,-9.2537736,13.235225)" gradientUnits="userSpaceOnUse" xlink:href="#linearGradient3240-0"/><linearGradient id="linearGradient3408"><stop id="stop3410" style="stop-color:#3e3e3e;stop-opacity:1" offset="0"/><stop id="stop3412" style="stop-color:#828282;stop-opacity:1" offset=".5"/><stop id="stop3414" style="stop-color:#3c3c3c;stop-opacity:1" offset="1"/></linearGradient><linearGradient id="linearGradient3293-8" x1="30.038" x2="30.038" y1="24.99" y2="30" gradientTransform="matrix(0.77455274,-0.76887375,0.95726056,0.94085893,-9.475595,13.455421)" gradientUnits="userSpaceOnUse" xlink:href="#linearGradient3223-7"/><linearGradient id="linearGradient3417"><stop id="stop3419" style="stop-color:#999;stop-opacity:1" offset="0"/><stop id="stop3421" style="stop-color:white;stop-opacity:1" offset=".5"/><stop id="stop3423" style="stop-color:#777;stop-opacity:1" offset="1"/></linearGradient><linearGradient id="linearGradient3295-3" x1="30.038" x2="30.038" y1="24.99" y2="30" gradientTransform="matrix(0.77455274,-0.76887375,0.95726056,0.94085893,-8.4792207,12.466352)" gradientUnits="userSpaceOnUse" xlink:href="#linearGradient3240-0"/><linearGradient id="linearGradient3426"><stop id="stop3428" style="stop-color:#3e3e3e;stop-opacity:1" offset="0"/><stop id="stop3430" style="stop-color:#828282;stop-opacity:1" offset=".5"/><stop id="stop3432" style="stop-color:#3c3c3c;stop-opacity:1" offset="1"/></linearGradient><linearGradient id="linearGradient3297-2" x1="30.038" x2="30.038" y1="24.99" y2="30" gradientTransform="matrix(0.77455274,-0.76887375,0.95726056,0.94085893,-8.7010428,12.686547)" gradientUnits="userSpaceOnUse" xlink:href="#linearGradient3223-7"/><linearGradient id="linearGradient3435"><stop id="stop3437" style="stop-color:#999;stop-opacity:1" offset="0"/><stop id="stop3439" style="stop-color:white;stop-opacity:1" offset=".5"/><stop id="stop3441" style="stop-color:#777;stop-opacity:1" offset="1"/></linearGradient><linearGradient id="linearGradient3299-8" x1="9" x2="9" y1="29.057" y2="26.03" gradientTransform="matrix(0.77455274,-0.76887374,0.95726056,0.94085893,-10.318783,14.292427)" gradientUnits="userSpaceOnUse" xlink:href="#linearGradient3290-1"/><linearGradient id="linearGradient3290-1"><stop id="stop3292-4" style="stop-color:#e4db7b;stop-opacity:1" offset="0"/><stop id="stop3294-6" style="stop-color:#f4f0c8;stop-opacity:1" offset="1"/></linearGradient><linearGradient id="linearGradient3301-9" x1="5.518" x2="9.522" y1="37.372" y2="41.392" gradientTransform="matrix(0.65079672,0,0,0.6423405,16.866844,8.9707052)" gradientUnits="userSpaceOnUse" xlink:href="#linearGradient3191-6"/><linearGradient id="linearGradient3191-6"><stop id="stop3193-3" style="stop-color:#cbbd27;stop-opacity:1" offset="0"/><stop id="stop3195-0" style="stop-color:#9b901d;stop-opacity:1" offset="1"/></linearGradient></defs><g id="layer1"><g id="g3359" transform="matrix(0.76601766,0,0,0.71080146,-56.409321,8.4275669)"><g id="g4" transform="matrix(0.11258685,0,0,0.11853756,90.101695,-3.3984523)" style="fill:#a4c639"><use id="use6" xlink:href="#b" style="stroke:#fff;stroke-width:14.39999962" width="744.094" height="1052.362" x="0" y="0"/><use id="use8" width="744.094" height="1052.362" x="0" y="0" transform="scale(-1,1)" xlink:href="#a"/><g id="a" style="stroke:#fff;stroke-width:7.19999981"><rect id="rect11" width="13" height="86" x="14" y="-86" rx="6.5" transform="matrix(0.87461971,0.48480962,-0.48480962,0.87461971,0,0)"/><rect id="c" width="48" height="133" x="-143" y="41" rx="24"/><use id="use14" width="744.094" height="1052.362" x="85" y="97" xlink:href="#c"/></g><g id="b"><ellipse id="ellipse17" cx="0" cy="41" d="m 91,41 c 0,46.391919 -40.742088,84 -91,84 -50.257912,0 -91,-37.608081 -91,-84 0,-46.391919 40.742088,-84 91,-84 50.257912,0 91,37.608081 91,84 z" rx="91" ry="84"/><rect id="rect19" width="182" height="182" x="-91" y="20" rx="22"/></g></g><g id="g21" transform="matrix(0.11258685,0,0,0.11853756,90.101695,-3.3984523)" style="fill:#fff;stroke:#fff;stroke-width:7.19999981"><path id="path23" d="M -95,44.5 H 95"/><circle id="circle25" cx="-42" cy="0" r="4" d="m -38,0 c 0,2.209139 -1.790861,4 -4,4 -2.209139,0 -4,-1.790861 -4,-4 0,-2.209139 1.790861,-4 4,-4 2.209139,0 4,1.790861 4,4 z"/><circle id="circle27" cx="42" cy="0" r="4" d="m 46,0 c 0,2.209139 -1.790861,4 -4,4 -2.209139,0 -4,-1.790861 -4,-4 0,-2.209139 1.790861,-4 4,-4 2.209139,0 4,1.790861 4,4 z"/></g></g><g id="g5516" transform="matrix(-1.1897021,0,0,0.96676088,151.554,-5.7476381)" style="display:inline"><g id="g2877" transform="matrix(0.80159266,0,0,0.9561265,87.149491,9.5261974)"><rect id="rect2879" width="34" height="3.734" x="7" y="44.266" style="opacity:.40206185;fill:url(#linearGradient5563);fill-opacity:1;fill-rule:nonzero;stroke:none;stroke-width:1;marker:none;visibility:visible;display:inline;overflow:visible"/><path id="path2881" d="m 7,44.266291 c 0,0 0,3.733665 0,3.733665 -1.2409448,0.007 -3,-0.836525 -3,-1.867073 0,-1.030547 1.3848007,-1.866591 3,-1.866592 z" style="opacity:.40206185;fill:url(#radialGradient5565);fill-opacity:1;fill-rule:nonzero;stroke:none;stroke-width:1;marker:none;visibility:visible;display:inline;overflow:visible"/><path id="path2883" d="m 41,44.266291 c 0,0 0,3.733665 0,3.733665 1.240944,0.007 3,-0.836525 3,-1.867073 0,-1.030547 -1.384801,-1.866591 -3,-1.866592 z" style="opacity:.40206185;fill:url(#radialGradient5567);fill-opacity:1;fill-rule:nonzero;stroke:none;stroke-width:1;marker:none;visibility:visible;display:inline;overflow:visible"/></g><path id="rect2594" d="m 90.26064,12.920227 c 8.02029,0 12.04055,0 20.06084,0 1.40694,0.48538 8.96546,6.01514 10.9392,9.84396 0,11.7187 0,19.43741 0,31.15612 -11.66669,0 -19.33335,0 -31.00004,0 0,-15.00003 0,-26.00005 0,-41.00008 z" style="fill:url(#linearGradient5569);fill-opacity:1;stroke:url(#linearGradient5571);stroke-width:.9999218;stroke-linecap:butt;stroke-linejoin:round;stroke-miterlimit:4;stroke-opacity:1;stroke-dasharray:none;stroke-dashoffset:0"/><path id="path8596" d="m 109.52818,13.234887 c 0.6375,4.12506 0.60946,9.03447 0.60946,9.03447 0,0 4.86973,-0.1115 10.88525,0.59393 -4.89688,-4.7878 -8.32845,-6.78418 -11.49471,-9.6284 z" style="fill:#000;fill-opacity:.32663317;fill-rule:evenodd;stroke:#000;stroke-width:.5;stroke-linecap:butt;stroke-linejoin:round;stroke-miterlimit:4;stroke-opacity:.16582917;stroke-dasharray:none;display:inline"/><path id="path12038" d="m 109.41856,12.928197 c 1.41222,4.1225 1.29509,8.2607 1.29509,8.2607 0,0 7.833,0.54731 10.17514,1.59393 0,-1.71114 -9.2975,-9.82542 -11.47023,-9.85463 z" style="fill:url(#linearGradient5573);fill-opacity:1;fill-rule:evenodd;stroke:none;display:inline"/></g><g id="g3350" transform="matrix(1.2288135,0,0,1,49.979603,13.830508)"><rect style="fill:#babdb6;fill-opacity:1;stroke:none;display:inline" id="rect2874" width="24" height="1" x="-31.763" y="9.254" rx=".429" ry=".5"/><rect style="fill:#babdb6;fill-opacity:1;stroke:none;display:inline" id="rect2890" width="24" height="1" x="-31.763" y="12.254" rx=".429" ry=".5"/><rect style="fill:#babdb6;fill-opacity:1;stroke:none;display:inline" id="rect2892" width="24" height="1" x="-31.763" y="15.254" rx=".429" ry=".5"/><rect style="fill:#babdb6;fill-opacity:1;stroke:none;display:inline" id="rect2894" width="24" height="1" x="-31.763" y="21.254" rx=".429" ry=".5"/><rect style="fill:#babdb6;fill-opacity:1;stroke:none;display:inline" id="rect2898" width="24" height="1" x="-31.763" y="24.254" rx=".429" ry=".5"/><rect style="fill:#babdb6;fill-opacity:1;stroke:none;display:inline" id="rect2900" width="24" height="1" x="-31.763" y="27.254" rx=".429" ry=".5"/><rect style="fill:#babdb6;fill-opacity:1;stroke:none;display:inline" id="rect1984" width="24" height="1" x="-31.763" y="18.254" rx=".429" ry=".5"/></g><path style="opacity:.15;fill:#0c0c0c;fill-opacity:1;fill-rule:evenodd;stroke:none" id="path2422-3" d="m 39.035997,16.521283 c -0.240021,-0.12104 -0.415032,-0.07084 -0.526667,0.01585 l -14.873526,11.482441 -2.737046,2.118633 -0.08575,0.04525 -2.818908,8.171821 8.463513,-0.404225 0.0665,-0.05383 2.756299,-2.110064 14.863051,-11.570509 c 0.446553,-0.346767 -0.448953,-2.340921 -2.009418,-4.481351 -1.170354,-1.605312 -2.37797,-2.850895 -3.098042,-3.214032 l 0,0 z"/><g id="g3336" transform="matrix(1.1486611,-0.13956541,0.13493357,1.188091,-8.1649977,-4.3451524)"><path style="fill:url(#linearGradient3285-9);fill-opacity:1;stroke:#000;stroke-width:.68666989;stroke-linecap:butt;stroke-linejoin:round;stroke-miterlimit:4;stroke-opacity:1;stroke-dasharray:none;stroke-dashoffset:0" id="rect2383" d="m 22.23534,29.313611 c 0.535656,-0.40689 1.959945,0.252754 3.240318,1.511191 1.277311,1.255423 1.919211,2.629711 1.51607,3.163701 -0.0015,0.0021 0.03148,0.0274 0.02992,0.02941 L 46.458078,14.72398 C 46.951551,14.234124 46.28152,12.781207 44.960501,11.482822 43.639481,10.184436 42.16525,9.5298253 41.671772,10.019685 L 22.23534,29.313611 z"/><path style="opacity:.8;fill:#ff9de8;fill-opacity:1;stroke:#dd78c5;stroke-width:.68666989;stroke-linecap:butt;stroke-linejoin:round;stroke-miterlimit:4;stroke-opacity:1;stroke-dasharray:none;stroke-dashoffset:0" id="rect3175" d="m 39.299705,12.374361 c 0.535655,-0.406889 1.959947,0.252757 3.240318,1.511191 1.277311,1.255425 1.919212,2.629711 1.51607,3.163702 -0.0015,0.0021 0.03148,0.0274 0.02992,0.02941 l 2.372067,-2.354676 0.04841,-0.04806 c 0.0016,-0.0021 -0.03145,-0.02737 -0.02992,-0.0294 0.403142,-0.533994 -0.238759,-1.908282 -1.516069,-3.163706 -1.280373,-1.258435 -2.704663,-1.9180809 -3.240319,-1.5111917 l -0.04841,0.04805 -2.372067,2.354676 z"/><path style="opacity:.6;fill:#000;fill-opacity:1;stroke:none" id="path3208" d="m 22.23534,29.313611 c 0.535656,-0.40689 1.959945,0.252755 3.240318,1.511191 1.277311,1.255424 1.919211,2.629711 1.51607,3.163701 -0.0015,0.0021 0.03148,0.0274 0.02992,0.02941 l 13.385239,-13.287098 0.04841,-0.04806 c 0.0016,-0.0021 -0.03144,-0.02737 -0.02992,-0.02941 0.403141,-0.533992 -0.23876,-1.908278 -1.51607,-3.163702 -1.280372,-1.258434 -2.704663,-1.918081 -3.240319,-1.511192 l -0.04841,0.04806 -13.385239,13.287099 z"/><path style="fill:url(#linearGradient3287-5);fill-opacity:1;stroke:none" id="path3233" d="m 36.640905,15.013667 c 0.535656,-0.406891 1.959947,0.252755 3.240319,1.51119 1.277311,1.255425 1.919212,2.629712 1.516069,3.163702 -0.0015,0.0021 0.03148,0.0274 0.02992,0.02941 l 0.242047,-0.240274 c 0.0016,-0.0021 -0.03144,-0.02737 -0.02992,-0.02941 0.403142,-0.53399 -0.238758,-1.908278 -1.51607,-3.163701 -1.280379,-1.258434 -2.704668,-1.918081 -3.240325,-1.511191 l -0.242047,0.240274 z"/><path style="fill:url(#linearGradient3289-3);fill-opacity:1;stroke:none" id="path3216" d="m 36.419084,15.233861 c 0.535656,-0.406889 1.959947,0.252757 3.240318,1.511192 1.277312,1.255424 1.919213,2.629709 1.51607,3.1637 -0.0015,0.0021 0.03148,0.0274 0.02992,0.02941 l 0.242047,-0.240274 c 0.0016,-0.0021 -0.03146,-0.02736 -0.02992,-0.02941 0.403141,-0.53399 -0.238759,-1.908278 -1.51607,-3.163702 -1.280373,-1.258434 -2.704663,-1.918082 -3.24032,-1.511191 l -0.242046,0.240275 z"/><path style="fill:url(#linearGradient3291-1);fill-opacity:1;stroke:none" id="path3248" d="m 37.411733,14.24849 c 0.535655,-0.406888 1.959947,0.252757 3.240318,1.511191 1.27731,1.255425 1.919211,2.629712 1.51607,3.163702 -0.0015,0.0021 0.03148,0.0274 0.02992,0.02941 l 0.242047,-0.240273 c 0.0016,-0.0021 -0.03144,-0.02736 -0.02992,-0.02941 0.403142,-0.533991 -0.238758,-1.908277 -1.516071,-3.163701 -1.28037,-1.258436 -2.704659,-1.918081 -3.240318,-1.511192 l -0.242046,0.240273 z"/><path style="fill:url(#linearGradient3293-8);fill-opacity:1;stroke:none" id="path3250" d="m 37.189911,14.468686 c 0.535656,-0.406891 1.959948,0.252755 3.240319,1.511191 1.277311,1.255424 1.919212,2.62971 1.516071,3.163701 -0.0015,0.0021 0.03148,0.02739 0.02992,0.02941 l 0.242047,-0.240275 c 0.0016,-0.0021 -0.03144,-0.02736 -0.02992,-0.02941 0.403144,-0.533991 -0.238757,-1.908278 -1.516069,-3.163701 -1.280371,-1.258435 -2.704662,-1.918082 -3.240319,-1.511191 l -0.242047,0.240273 z"/><path style="fill:url(#linearGradient3295-3);fill-opacity:1;stroke:none" id="path3256" d="m 38.186286,13.479617 c 0.535655,-0.40689 1.959945,0.252755 3.240317,1.511191 1.277311,1.255425 1.919213,2.629711 1.51607,3.163702 -0.0015,0.0021 0.03148,0.0274 0.02992,0.02941 l 0.242048,-0.240274 c 0.0016,-0.0021 -0.03144,-0.02737 -0.02992,-0.0294 0.403142,-0.533992 -0.238758,-1.908279 -1.51607,-3.163702 -1.280371,-1.258436 -2.704662,-1.918082 -3.240318,-1.511193 l -0.242047,0.240273 z"/><path style="fill:url(#linearGradient3297-2);fill-opacity:1;stroke:none" id="path3258" d="m 37.964464,13.699811 c 0.535655,-0.40689 1.959947,0.252757 3.240319,1.511192 1.27731,1.255424 1.919211,2.62971 1.516069,3.163701 -0.0015,0.0021 0.03148,0.0274 0.02992,0.02941 l 0.242046,-0.240272 c 0.0016,-0.0021 -0.03145,-0.02737 -0.02992,-0.02941 0.403142,-0.533992 -0.238759,-1.908279 -1.51607,-3.163702 -1.280371,-1.258435 -2.704661,-1.918082 -3.240317,-1.511191 l -0.242049,0.240272 z"/><path style="fill:url(#linearGradient3299-8);fill-opacity:1;fill-rule:evenodd;stroke:url(#linearGradient3301-9);stroke-width:.68666989;stroke-linecap:butt;stroke-linejoin:miter;stroke-miterlimit:4;stroke-opacity:1;stroke-dasharray:none" id="path3270" d="m 18.299754,37.838962 8.699495,-3.715475 C 27.40239,33.589498 26.751323,32.079035 25.474013,30.82361 24.19364,29.565175 22.702092,28.909444 22.166436,29.316333 l -3.866682,8.522629 z"/><path style="fill:#000;fill-opacity:1;fill-rule:evenodd;stroke:#000;stroke-width:.68666989;stroke-linecap:butt;stroke-linejoin:miter;stroke-miterlimit:4;stroke-opacity:1;stroke-dasharray:none" id="path3281" d="m 19.365758,35.530675 -1.066132,2.29935 2.352451,-1.035071 c -0.175688,-0.211399 -0.336993,-0.426852 -0.549878,-0.63609 -0.245087,-0.24089 -0.488049,-0.434463 -0.736441,-0.628189 z"/></g></g></svg>