<svg xmlns="http://www.w3.org/2000/svg" xmlns:svg="http://www.w3.org/2000/svg" xmlns:xlink="http://www.w3.org/1999/xlink" id="svg2453" width="24" height="24" version="1.0"><metadata id="metadata77"/><defs id="defs2455"><linearGradient id="linearGradient3484"><stop id="stop3486" style="stop-color:#bdbdbd;stop-opacity:1" offset="0"/><stop id="stop3488" style="stop-color:#d0d0d0;stop-opacity:1" offset="1"/></linearGradient><radialGradient id="radialGradient2788" cx="1.5" cy="2.509" r="10.5" fx="1.5" fy="2.509" gradientTransform="matrix(-1.274898e-8,1.7142916,-2.159331,-1.4599595e-8,6.4046805,1.42850055)" gradientUnits="userSpaceOnUse" xlink:href="#linearGradient3484"/><linearGradient id="linearGradient6404"><stop id="stop6406" style="stop-color:#f9f9f9;stop-opacity:1" offset="0"/><stop id="stop6408" style="stop-color:#c9c9c9;stop-opacity:1" offset="1"/></linearGradient><linearGradient id="linearGradient2786" x1="31.494" x2="31.494" y1="6.591" y2="8.095" gradientTransform="translate(-25.470449,0)" gradientUnits="userSpaceOnUse" xlink:href="#linearGradient6404"/><linearGradient id="linearGradient5060-820"><stop id="stop2681" style="stop-color:black;stop-opacity:1" offset="0"/><stop id="stop2683" style="stop-color:black;stop-opacity:0" offset="1"/></linearGradient><radialGradient id="radialGradient7600-312" cx="302.857" cy="243.324" r="58.571" fx="302.857" fy="243.324" gradientTransform="matrix(-0.03212956,0,0,0.03705882,11.6816075,12.7062305)" gradientUnits="userSpaceOnUse" xlink:href="#linearGradient5060-820"/><linearGradient id="linearGradient5060-179"><stop id="stop2675" style="stop-color:black;stop-opacity:1" offset="0"/><stop id="stop2677" style="stop-color:black;stop-opacity:0" offset="1"/></linearGradient><radialGradient id="radialGradient7598-526" cx="302.857" cy="243.324" r="58.571" fx="302.857" fy="243.324" gradientTransform="matrix(0.03212956,0,0,0.03705882,12.3183925,12.7062305)" gradientUnits="userSpaceOnUse" xlink:href="#linearGradient5060-179"/><linearGradient id="linearGradient5048-585"><stop id="stop2667" style="stop-color:black;stop-opacity:0" offset="0"/><stop id="stop2669" style="stop-color:black;stop-opacity:1" offset=".5"/><stop id="stop2671" style="stop-color:black;stop-opacity:0" offset="1"/></linearGradient><linearGradient id="linearGradient7596-975" x1="151.429" x2="151.429" y1="183.324" y2="304.753" gradientTransform="matrix(0.08284024,0,0,0.03705882,-2.97041425,12.7062305)" gradientUnits="userSpaceOnUse" xlink:href="#linearGradient5048-585"/><linearGradient id="linearGradient3390-178-986-453"><stop id="stop3624" style="stop-color:#bb5e12;stop-opacity:1" offset="0"/><stop id="stop3626" style="stop-color:#cd8033;stop-opacity:1" offset="1"/></linearGradient><linearGradient id="linearGradient2779" x1="41.227" x2="32.67" y1="22.557" y2="7.972" gradientTransform="translate(-26.8826965,-0.05709645)" gradientUnits="userSpaceOnUse" xlink:href="#linearGradient3390-178-986-453"/><linearGradient id="linearGradient7012-661-145-733-759-865-745-661-970-94"><stop id="stop3618" style="stop-color:#edd563;stop-opacity:1" offset="0"/><stop id="stop3620" style="stop-color:#e08223;stop-opacity:1" offset="1"/></linearGradient><radialGradient id="radialGradient2777" cx="31.985" cy="7.057" r="11.549" fx="31.985" fy="7.057" gradientTransform="matrix(1.5646925,-9.5143002e-8,6.1772287e-8,1.015888,-43.1062865,4.07305865)" gradientUnits="userSpaceOnUse" xlink:href="#linearGradient7012-661-145-733-759-865-745-661-970-94"/><linearGradient id="linearGradient6129-963-697-142-998-580-273"><stop id="stop2661" style="stop-color:#0a0a0a;stop-opacity:.498" offset="0"/><stop id="stop2663" style="stop-color:#0a0a0a;stop-opacity:0" offset="1"/></linearGradient><linearGradient id="linearGradient2774" x1="11.467" x2="11.405" y1="24.815" y2="18.329" gradientTransform="matrix(1.1446925,0,0,0.9977536,-1.73307065,0.54942125)" gradientUnits="userSpaceOnUse" xlink:href="#linearGradient6129-963-697-142-998-580-273"/><linearGradient id="linearGradient6087-437-184-795-110-662-495"><stop id="stop2693" style="stop-color:white;stop-opacity:.40000001" offset="0"/><stop id="stop2695" style="stop-color:white;stop-opacity:0" offset="1"/></linearGradient><radialGradient id="radialGradient2771" cx="3.632" cy="4.151" r="10.49" fx="3.632" fy="4.151" gradientTransform="matrix(0,1.2079744,-1.6271642,0,13.185874,4.13323425)" gradientUnits="userSpaceOnUse" xlink:href="#linearGradient6087-437-184-795-110-662-495"/><linearGradient id="linearGradient8265-821-176-38-919-66-249"><stop id="stop2687" style="stop-color:white;stop-opacity:.27450982" offset="0"/><stop id="stop2689" style="stop-color:white;stop-opacity:.07843138" offset="1"/></linearGradient><linearGradient id="linearGradient2768" x1="5.783" x2="7.607" y1="11.146" y2="16.978" gradientUnits="userSpaceOnUse" xlink:href="#linearGradient8265-821-176-38-919-66-249"/><linearGradient id="linearGradient2091"><stop id="stop2093" style="stop-color:black;stop-opacity:1" offset="0"/><stop id="stop2095" style="stop-color:black;stop-opacity:0" offset="1"/></linearGradient><radialGradient id="radialGradient2903" cx="11.535" cy="17.564" r="5.16" fx="11.535" fy="17.564" gradientTransform="matrix(1.0638029,0.0137236,-0.00955296,0.2316828,5.9614635,18.536736)" gradientUnits="userSpaceOnUse" xlink:href="#linearGradient2091"/><linearGradient id="linearGradient3497"><stop id="stop3499" style="stop-color:#699536;stop-opacity:1" offset="0"/><stop id="stop3501" style="stop-color:#587d2d;stop-opacity:1" offset="1"/></linearGradient><linearGradient id="linearGradient2877" x1="14.429" x2="14.429" y1="13" y2="23.037" gradientUnits="userSpaceOnUse" xlink:href="#linearGradient3497"/><linearGradient id="linearGradient2264"><stop id="stop2266" style="stop-color:#d7e866;stop-opacity:1" offset="0"/><stop id="stop2268" style="stop-color:#8cab2a;stop-opacity:1" offset="1"/></linearGradient><linearGradient id="linearGradient2875" x1="12.052" x2="12.052" y1="7.584" y2="16.243" gradientTransform="matrix(0.8988874,0,0,0.8934652,7.268148,7.7170135)" gradientUnits="userSpaceOnUse" xlink:href="#linearGradient2264"/><linearGradient id="linearGradient4222"><stop id="stop4224" style="stop-color:white;stop-opacity:1" offset="0"/><stop id="stop4226" style="stop-color:white;stop-opacity:0" offset="1"/></linearGradient><linearGradient id="linearGradient2872" x1="12.069" x2="12.069" y1="3.266" y2="23.636" gradientTransform="matrix(0.5399382,0,0,0.5366811,11.5755385,11.7469005)" gradientUnits="userSpaceOnUse" xlink:href="#linearGradient4222"/></defs><g id="layer1"><path id="path3468" d="m 1.7531249,4.24999975 c -0.3451355,0.003835 -0.5002209,0.17107305 -0.5002209,0.5 0,2.75722725 0.013139,4.86978825 -0.002905,7.37521525 0.7177353,0 21.499999,-1.849866 21.499999,-2.646132 l 0,-3.2257595 c 0,-0.3289265 -0.277102,-0.5038355 -0.6222395,-0.5 l -10.1277595,0 c -1.0237415,0 -1.7494455,-1.50332375 -2.5,-1.50332375 l -7.74687515,0 z" style="fill:url(#linearGradient2786);fill-opacity:1;stroke:url(#radialGradient2788);stroke-width:.50000006;stroke-linecap:round;stroke-linejoin:round;stroke-miterlimit:4;stroke-opacity:1;stroke-dasharray:none;display:inline"/><g id="g7591" transform="matrix(0.9583333,0,0,0.6666667,0.5000004,7.5)" style="opacity:.4"><rect id="rect4173" width="20" height="4.5" x="2" y="19.5" style="fill:url(#linearGradient7596-975);fill-opacity:1;fill-rule:nonzero;stroke:none;stroke-width:.5;marker:none;visibility:visible;display:inline;overflow:visible"/><path id="path5058" d="m 22,19.500155 c 0,0 0,4.499752 0,4.499752 0.8272965,0.00847 2.0000005,-1.0081665 2,-2.2501655 0,-1.2419995 -0.923201,-2.2495865 -2,-2.2495865 z" style="fill:url(#radialGradient7598-526);fill-opacity:1;fill-rule:nonzero;stroke:none;stroke-width:.5;marker:none;visibility:visible;display:inline;overflow:visible"/><path id="path5018" d="m 2,19.500155 c 0,0 0,4.499752 0,4.499752 C 1.1727034,24.0083775 0,22.9917405 0,21.7497415 0,20.507742 0.9232004,19.500155 2,19.500155 z" style="fill:url(#radialGradient7600-312);fill-opacity:1;fill-rule:nonzero;stroke:none;stroke-width:.5;marker:none;visibility:visible;display:inline;overflow:visible"/></g><path id="path3388" d="m 1.0814278,8.2625965 c -0.5363535,0.061847 -0.249885,0.701059 -0.2926485,1.060506 0.196266,4.235045 0.394466,8.3847275 0.5895235,12.619801 0.170918,0.4828465 0.7972175,0.23558 1.1940585,0.296875 6.5967722,0 13.1935447,0 19.7903177,0 0.54469,-0.0533255 0.31823,-0.7038405 0.39485,-1.076131 0.19627,-4.235045 0.39447,-8.3847275 0.589525,-12.619801 -0.125585,-0.4771445 -0.759755,-0.212007 -1.1315615,-0.28125 -7.044687,0 -14.0893755,0 -21.1340647,0 z" style="fill:url(#radialGradient2777);fill-opacity:1;stroke:url(#linearGradient2779);stroke-width:.5;stroke-linecap:round;stroke-linejoin:round;stroke-miterlimit:4;stroke-opacity:1;stroke-dashoffset:0"/><path id="path6127" d="m 1.0291214,8.032573 21.9482376,0.0002015 c 0.31708,0 0.5225775,0.2223055 0.5225775,0.4986835 L 22.8778185,22.0011235 C 22.8778185,22.277501 22.6225525,22.5 22.3054735,22.5 L 1.7010061,22.5 C 1.38392615,22.5 1.12865975,22.277501 1.12865975,22.0011235 L 0.5065443,8.53145 c 0,-0.2763785 0.20549715,-0.498877 0.5225771,-0.498877 z" style="opacity:.4;fill:url(#linearGradient2774);fill-opacity:1;stroke:none"/><path id="path2435" d="m 23.25,8.75 c -6.765625,0 -15.234375,0 -22,0 0.19270835,4.0885415 0.38541665,8.1770835 0.578125,12.265625" style="fill:none;stroke:url(#radialGradient2771);stroke-width:.49999988;stroke-linecap:round;stroke-linejoin:round;stroke-miterlimit:4;stroke-opacity:1;stroke-dasharray:none"/><path id="path3455" d="M 22.875,8 C 15.600205,8.036674 8.322708,7.9894255 1.046875,8 0.14349492,8.2055585 0.62967165,9.233305 0.5606618,9.8857625 0.67167655,11.967436 0.72219515,14.058232 0.87089255,16.1342035 8.371149,14.9528045 15.834165,13.8305765 23.203125,12.609375 23.5936205,11.316086 23.596814,9.774078 23.5318035,8.394763 23.4172355,8.142482 23.1382995,7.994341 22.875,8 z" style="fill:url(#linearGradient2768);fill-opacity:1;stroke:none"/><rect id="rect3562" width="6.5" height="1" x="2.5" y="5" rx=".5" ry=".5" style="fill:#edbd74;fill-opacity:1;fill-rule:nonzero;stroke:none;stroke-width:.5;marker:none;visibility:visible;display:block;overflow:visible;enable-background:accumulate"/><path id="path2447" d="m 24,22.7414685 c 0,0.6950675 -2.6862915,1.258531 -6,1.258531 -3.3137085,0 -6,-0.5634635 -6,-1.258531 0,-0.695068 2.6862915,-1.2585315 6,-1.2585315 3.3137085,0 6,0.5634635 6,1.2585315 z" style="opacity:.3;fill:url(#radialGradient2903);fill-opacity:1;stroke:none;display:inline"/></g></svg>