<svg xmlns="http://www.w3.org/2000/svg" xmlns:svg="http://www.w3.org/2000/svg" xmlns:xlink="http://www.w3.org/1999/xlink" id="svg3858" width="24" height="24" version="1.1"><metadata id="metadata115"/><defs id="defs3860"><linearGradient id="linearGradient8589"><stop id="stop8591" style="stop-color:#fefefe;stop-opacity:1" offset="0"/><stop id="stop8593" style="stop-color:#cbcbcb;stop-opacity:1" offset="1"/></linearGradient><linearGradient id="linearGradient5573" x1="16.446" x2="18.179" y1="4.03" y2="2.728" gradientTransform="matrix(0.9976985,0,0,1.0642049,39.96222,5.6405035)" gradientUnits="userSpaceOnUse" xlink:href="#linearGradient8589"/><linearGradient id="linearGradient3931"><stop id="stop3933" style="stop-color:#8d8f8a;stop-opacity:1" offset="0"/><stop id="stop3935" style="stop-color:#cbcbcb;stop-opacity:1" offset="1"/></linearGradient><linearGradient id="linearGradient5571" x1="-25.893" x2="-25.893" y1="25.393" y2="1.453" gradientTransform="matrix(0.8074968,0,0,0.9358511,69.585435,3.1528937)" gradientUnits="userSpaceOnUse" xlink:href="#linearGradient3931"/><linearGradient id="linearGradient3600"><stop id="stop3602" style="stop-color:#f4f4f4;stop-opacity:1" offset="0"/><stop id="stop3604" style="stop-color:#dbdbdb;stop-opacity:1" offset="1"/></linearGradient><linearGradient id="linearGradient5569" x1="12.566" x2="12.566" y1="3.364" y2="23.507" gradientTransform="translate(39.88032,3.7101337)" gradientUnits="userSpaceOnUse" xlink:href="#linearGradient3600"/><radialGradient id="radialGradient5567" cx="302.857" cy="243.324" r="58.571" fx="302.857" fy="243.324" gradientTransform="matrix(0.02409717,0,0,0.01537476,13.238792,19.3145195)" gradientUnits="userSpaceOnUse" xlink:href="#linearGradient5060"/><linearGradient id="linearGradient5060"><stop id="stop5062" style="stop-color:#000;stop-opacity:1" offset="0"/><stop id="stop5064" style="stop-color:#000;stop-opacity:0" offset="1"/></linearGradient><radialGradient id="radialGradient5565" cx="302.857" cy="243.324" r="58.571" fx="302.857" fy="243.324" gradientTransform="matrix(-0.02409717,0,0,0.01537476,10.761206,19.3145195)" gradientUnits="userSpaceOnUse" xlink:href="#linearGradient5060"/><linearGradient id="linearGradient5048"><stop id="stop5050" style="stop-color:#000;stop-opacity:0" offset="0"/><stop id="stop5056" style="stop-color:#000;stop-opacity:1" offset=".5"/><stop id="stop5052" style="stop-color:#000;stop-opacity:0" offset="1"/></linearGradient><linearGradient id="linearGradient5563" x1="151.429" x2="151.429" y1="183.324" y2="304.753" gradientTransform="matrix(0.0704142,0,0,0.01537476,-0.72485235,19.3145035)" gradientUnits="userSpaceOnUse" xlink:href="#linearGradient5048"/><linearGradient id="linearGradient4873"><stop id="stop4875" style="stop-color:#fff;stop-opacity:1" offset="0"/><stop id="stop4877" style="stop-color:#fff;stop-opacity:0" offset="1"/></linearGradient><linearGradient id="linearGradient2509" x1="10.814" x2="11.123" y1="1.055" y2="21.683" gradientTransform="matrix(0.4873978,0,0,0.4781595,-5.9447805,0.8503559)" gradientUnits="userSpaceOnUse" xlink:href="#linearGradient4873"/><linearGradient id="linearGradient3533"><stop id="stop3535" style="stop-color:#93b9dd;stop-opacity:1" offset="0"/><stop id="stop3545" style="stop-color:#6396cd;stop-opacity:1" offset="1"/></linearGradient><linearGradient id="linearGradient2517" x1="7.686" x2="7.686" y1="2.524" y2="11.3" gradientTransform="matrix(0.4873978,0,0,0.4781595,-5.9447805,0.8503559)" gradientUnits="userSpaceOnUse" xlink:href="#linearGradient3533"/></defs><g id="layer1"><g id="g5516" transform="translate(-39.88032,-4.7101345)" style="display:inline"><g id="g2877" transform="matrix(0.80159266,0,0,0.9561265,43.5747455,4.7630987)"><rect id="rect2879" width="17" height="1.867" x="3.5" y="22.133" style="opacity:.40206185;fill:url(#linearGradient5563);fill-opacity:1;fill-rule:nonzero;stroke:none;stroke-width:.5;marker:none;visibility:visible;display:inline;overflow:visible"/><path id="path2881" d="m 3.5,22.1331455 c 0,0 0,1.8668325 0,1.8668325 -0.6204724,0.0035 -1.5,-0.4182625 -1.5,-0.9335365 0,-0.5152735 0.69240035,-0.9332955 1.5,-0.933296 z" style="opacity:.40206185;fill:url(#radialGradient5565);fill-opacity:1;fill-rule:nonzero;stroke:none;stroke-width:.5;marker:none;visibility:visible;display:inline;overflow:visible"/><path id="path2883" d="m 20.5,22.1331455 c 0,0 0,1.8668325 0,1.8668325 0.620472,0.0035 1.5,-0.4182625 1.5,-0.9335365 0,-0.5152735 -0.6924005,-0.9332955 -1.5,-0.933296 z" style="opacity:.40206185;fill:url(#radialGradient5567);fill-opacity:1;fill-rule:nonzero;stroke:none;stroke-width:.5;marker:none;visibility:visible;display:inline;overflow:visible"/></g><path id="rect2594" d="m 45.13032,6.4601135 c 4.010145,0 6.020275,0 10.03042,0 0.70347,0.24269 4.48273,3.00757 5.4696,4.92198 0,5.85935 0,9.718705 0,15.57806 -5.833345,0 -9.666675,0 -15.50002,0 0,-7.500015 0,-13.000025 0,-20.50004 z" style="fill:url(#linearGradient5569);fill-opacity:1;stroke:url(#linearGradient5571);stroke-width:.4999609;stroke-linecap:butt;stroke-linejoin:round;stroke-miterlimit:4;stroke-opacity:1;stroke-dasharray:none;stroke-dashoffset:0"/><path id="path8596" d="m 54.76409,6.6174435 c 0.31875,2.06253 0.30473,4.517235 0.30473,4.517235 0,0 2.434865,-0.05575 5.442625,0.296965 -2.44844,-2.3939 -4.164225,-3.39209 -5.747355,-4.8142 z" style="fill:#000;fill-opacity:.32663317;fill-rule:evenodd;stroke:#000;stroke-width:.25;stroke-linecap:butt;stroke-linejoin:round;stroke-miterlimit:4;stroke-opacity:.16582917;stroke-dasharray:none;display:inline"/><path id="path12038" d="m 54.70928,6.4640985 c 0.70611,2.06125 0.647545,4.13035 0.647545,4.13035 0,0 3.9165,0.273655 5.08757,0.796965 0,-0.85557 -4.64875,-4.91271 -5.735115,-4.927315 z" style="fill:url(#linearGradient5573);fill-opacity:1;fill-rule:evenodd;stroke:none;display:inline"/></g><rect id="rect2874" width="12" height=".5" x="7" y="9" rx=".214" ry=".25" style="fill:#babdb6;fill-opacity:1;stroke:none;display:inline"/><rect id="rect2890" width="12" height=".5" x="7" y="10.5" rx=".214" ry=".25" style="fill:#babdb6;fill-opacity:1;stroke:none;display:inline"/><rect id="rect2892" width="12" height=".5" x="7" y="12" rx=".214" ry=".25" style="fill:#babdb6;fill-opacity:1;stroke:none;display:inline"/><rect id="rect2894" width="12" height=".5" x="7" y="15" rx=".214" ry=".25" style="fill:#babdb6;fill-opacity:1;stroke:none;display:inline"/><rect id="rect2898" width="12" height=".5" x="7" y="16.5" rx=".214" ry=".25" style="fill:#babdb6;fill-opacity:1;stroke:none;display:inline"/><rect id="rect2900" width="12" height=".5" x="7" y="18" rx=".214" ry=".25" style="fill:#babdb6;fill-opacity:1;stroke:none;display:inline"/><rect id="rect1984" width="12" height=".5" x="7" y="13.5" rx=".214" ry=".25" style="fill:#babdb6;fill-opacity:1;stroke:none;display:inline"/></g></svg>