<svg xmlns="http://www.w3.org/2000/svg" xmlns:svg="http://www.w3.org/2000/svg" xmlns:xlink="http://www.w3.org/1999/xlink" id="svg11300" width="64" height="64" version="1.0"><defs id="defs3"><linearGradient id="linearGradient4956"><stop id="stop4958" style="stop-color:#f8b17e;stop-opacity:1" offset="0"/><stop id="stop4960" style="stop-color:#e35d4f;stop-opacity:1" offset=".262"/><stop id="stop4962" style="stop-color:#c6262e;stop-opacity:1" offset=".663"/><stop id="stop4964" style="stop-color:#690b54;stop-opacity:1" offset="1"/></linearGradient><linearGradient id="linearGradient4099"><stop id="stop4101" style="stop-color:#edd563;stop-opacity:1" offset="0"/><stop id="stop4103" style="stop-color:#e08223;stop-opacity:1" offset="1"/></linearGradient><linearGradient id="linearGradient4093"><stop id="stop4095" style="stop-color:#bb5e12;stop-opacity:1" offset="0"/><stop id="stop4097" style="stop-color:#cd8033;stop-opacity:1" offset="1"/></linearGradient><linearGradient id="linearGradient6221"><stop id="stop6223" style="stop-color:black;stop-opacity:1" offset="0"/><stop id="stop6225" style="stop-color:black;stop-opacity:0" offset="1"/></linearGradient><linearGradient id="linearGradient5443"><stop id="stop5445" style="stop-color:white;stop-opacity:1" offset="0"/><stop id="stop5447" style="stop-color:white;stop-opacity:0" offset="1"/></linearGradient><radialGradient id="radialGradient2912" cx="29.281" cy="45.998" r="16.971" fx="29.281" fy="45.998" gradientTransform="matrix(0.23695139,0,0,0.0905974,47.586142666667,55.054368)" gradientUnits="userSpaceOnUse" xlink:href="#linearGradient6221"/><radialGradient id="radialGradient2915" cx="29.281" cy="45.998" r="16.971" fx="29.281" fy="45.998" gradientTransform="matrix(0.57921468,0,0,0.23991807,37.21064,47.693362666667)" gradientUnits="userSpaceOnUse" xlink:href="#linearGradient6221"/><radialGradient id="radialGradient2918" cx="29.281" cy="45.998" r="16.971" fx="29.281" fy="45.998" gradientTransform="matrix(0.18131971,0,0,0.07549778,2.4446328,56.369625333333)" gradientUnits="userSpaceOnUse" xlink:href="#linearGradient6221"/><radialGradient id="radialGradient2921" cx="29.281" cy="45.998" r="16.971" fx="29.281" fy="45.998" gradientTransform="matrix(0.46337318,0,0,0.19993169,-5.4315048,50.188918666667)" gradientUnits="userSpaceOnUse" xlink:href="#linearGradient6221"/><linearGradient id="linearGradient4434"><stop id="stop4436" style="stop-color:#d3d7cf;stop-opacity:1" offset="0"/><stop id="stop4438" style="stop-color:#babdb6;stop-opacity:1" offset=".183"/><stop id="stop4440" style="stop-color:white;stop-opacity:1" offset=".319"/><stop id="stop4442" style="stop-color:#babdb6;stop-opacity:1" offset=".876"/><stop id="stop4444" style="stop-color:#eeeeec;stop-opacity:1" offset="1"/></linearGradient><linearGradient id="linearGradient7444"><stop id="stop7446" style="stop-color:#888a85;stop-opacity:1" offset="0"/><stop id="stop7448" style="stop-color:#555753;stop-opacity:1" offset="1"/></linearGradient><linearGradient id="linearGradient7381"><stop id="stop7383" style="stop-color:#babdb6;stop-opacity:1" offset="0"/><stop id="stop7385" style="stop-color:white;stop-opacity:1" offset="1"/></linearGradient><linearGradient id="linearGradient7421"><stop id="stop7423" style="stop-color:white;stop-opacity:1" offset="0"/><stop id="stop7425" style="stop-color:white;stop-opacity:0" offset="1"/></linearGradient><linearGradient id="linearGradient4665" x1="-8.41" x2="-13.033" y1="58.972" y2="58.854" gradientTransform="matrix(0.50045082,-0.49965052,0.84917342,0.84785213,-0.1482826,-12.012873333333)" gradientUnits="userSpaceOnUse" xlink:href="#linearGradient6221"/><linearGradient id="linearGradient4668" x1="129.923" x2="120.294" y1="46.87" y2="46.772" gradientTransform="matrix(0.82274296,-0.82218552,0.71961224,0.71912451,-96.136941333333,108.72901333333)" gradientUnits="userSpaceOnUse" xlink:href="#linearGradient4956"/><linearGradient id="linearGradient4734" x1="403.056" x2="411.532" y1="77.924" y2="81.023" gradientTransform="matrix(1.3630182,0,0,1.3616941,-538.42218666667,-90.611285333333)" gradientUnits="userSpaceOnUse" xlink:href="#linearGradient7381"/><linearGradient id="linearGradient4737" x1="406.35" x2="447.067" y1="85.727" y2="109.235" gradientTransform="matrix(1.3630182,0,0,1.3616941,-538.42218666667,-90.611285333333)" gradientUnits="userSpaceOnUse" xlink:href="#linearGradient4434"/><linearGradient id="linearGradient4739" x1="432.663" x2="440.081" y1="93.71" y2="132.365" gradientTransform="matrix(1.3630182,0,0,1.3616941,-538.42218666667,-90.611285333333)" gradientUnits="userSpaceOnUse" xlink:href="#linearGradient7444"/><linearGradient id="linearGradient4758" x1="435.469" x2="422.882" y1="100.767" y2="117.342" gradientTransform="matrix(1.3630182,0,0,1.3616941,-538.42218666667,-90.611285333333)" gradientUnits="userSpaceOnUse" xlink:href="#linearGradient7421"/><linearGradient id="linearGradient2490"><stop id="stop2492" style="stop-color:#791235;stop-opacity:1" offset="0"/><stop id="stop2494" style="stop-color:#dd3b27;stop-opacity:1" offset="1"/></linearGradient><linearGradient id="linearGradient4972" x1="39.037" x2="48.001" y1="45.364" y2="36.364" gradientUnits="userSpaceOnUse" xlink:href="#linearGradient2490"/><linearGradient id="linearGradient4987" x1="73.02" x2="72.961" y1="1.333" y2="16.78" gradientTransform="matrix(-0.73220338,-0.7338647,0.73220338,-0.7338647,58.049196,113.647664)" gradientUnits="userSpaceOnUse" xlink:href="#linearGradient5443"/><linearGradient id="linearGradient4990" x1="78.065" x2="75.263" y1="50.002" y2="50.115" gradientTransform="matrix(1.0366781,0,0,2.1488993,-121.41263466667,-89.098106666667)" gradientUnits="userSpaceOnUse" xlink:href="#linearGradient5443"/><linearGradient id="linearGradient4993" x1="-9.463" x2="-13.573" y1="53.765" y2="53.746" gradientTransform="matrix(0.50479505,0,0,1.4199623,-39.882716,-55.870928)" gradientUnits="userSpaceOnUse" xlink:href="#linearGradient6221"/><linearGradient id="linearGradient4996" x1="-14.585" x2="-9.24" y1="49.216" y2="49.189" gradientTransform="matrix(0.60312184,0,0,1.4585579,-41.873621333333,-58.996170666667)" gradientUnits="userSpaceOnUse" xlink:href="#linearGradient6221"/><linearGradient id="linearGradient4999" x1="34.096" x2="36.49" y1="27.682" y2="29.969" gradientTransform="matrix(-1.0423996,0,0,-1.0378417,59.335249333333,71.301453333333)" gradientUnits="userSpaceOnUse" xlink:href="#linearGradient7381"/><linearGradient id="linearGradient5001" x1="29.834" x2="41.452" y1="47.499" y2="35.847" gradientTransform="matrix(1.0468682,0,0,1.0468717,-8.5316565333333,-8.4268593333333)" gradientUnits="userSpaceOnUse" xlink:href="#linearGradient7444"/><radialGradient id="radialGradient5004" cx="-52.611" cy="15.786" r="5.208" fx="-52.611" fy="15.786" gradientTransform="matrix(2.3533908,-0.16336681,0.28682268,5.972601,78.752908,-87.155353333333)" gradientUnits="userSpaceOnUse" xlink:href="#linearGradient5443"/><linearGradient id="linearGradient5007" x1="-2.929" x2="-14.088" y1="54.629" y2="54.598" gradientTransform="matrix(0.84492232,-2.9977401e-8,0,1.6837108,-36.172736,-76.164330666667)" gradientUnits="userSpaceOnUse" xlink:href="#linearGradient4099"/><linearGradient id="linearGradient5009" x1="-60.758" x2="-48.111" y1="10.285" y2="16.432" gradientTransform="matrix(1.0468699,0,0,1.04687,11.991658,-0.00824992)" gradientUnits="userSpaceOnUse" xlink:href="#linearGradient4093"/><radialGradient id="radialGradient5017" cx="34.636" cy="28.83" r="2.667" fx="34.636" fy="28.83" gradientTransform="matrix(0.80803421,-0.02610843,0.00943568,1.3973911,6.3464073333333,-10.545243866667)" gradientUnits="userSpaceOnUse" xlink:href="#linearGradient6221"/></defs><path id="path6912" d="M 16.208333333333,3.25 C 15.989890666667,3.2391302666667 15.770952,3.3275005333333 15.625,3.5 15.43038,3.7299448 15.430678666667,4.0710892 15.583333333333,4.3333333333333 L 19.666666666667,11.625 c 0.36667066666667,0.65544693333333 0.17430266666667,1.5128122666667 -0.41666666666667,2.375 -0.59656533333333,0.87035866666667 -1.6049946666667,1.7250893333333 -2.875,2.4166666666667 -1.2702613333333,0.69168666666667 -2.521524,1.0891413333333 -3.5833333333333,1.125 -1.0555394666667,0.035773333333333 -1.8824030666667,-0.25949466666667 -2.25,-0.91666666666667 L 6.4166666666667,9.25 C 6.3021732,9.0459638666667 6.1080397333333,8.9437553333333 5.875,8.9166666666667 5.6419784,8.8896144 5.4054566666667,8.9523370666667 5.25,9.125 c -0.083961333333333,0.089690666666667 -0.1379524,0.21399453333333 -0.16666666666667,0.33333333333333 -0.79076866666667,3.4045076 -0.41656813333333,7.318716 1.0833333333333,10 2.0483801333333,3.661796 6.3224945333333,5.4057773333333 10.5,4.6666666666667 1.707044,0.573728 4.6081986666667,1.570392 7.292,4.2336666666667 l 5.5333333333333,-5.892 C 27.072625333333,20.065818666667 25.941972,17.875173333333 25.291666666667,16.25 25.855884,14.003332 25.603946666667,11.6224816 24.416666666667,9.5 22.917382666667,6.8198592 19.792458666667,4.4473092 16.458333333333,3.2916666666667 16.386806666667,3.265522 16.281148,3.2536232 16.208333333333,3.25 z" style="fill:url(#linearGradient4737);fill-opacity:1;fill-rule:evenodd;stroke:url(#linearGradient4739);stroke-width:1.3333331733333;stroke-linecap:round;stroke-linejoin:round;stroke-miterlimit:4;stroke-opacity:1;stroke-dasharray:none;stroke-dashoffset:.3612;display:inline;enable-background:new"/><path id="path7379" d="m 16.212629333333,3.9129796 c 0.033986666666667,0.012706666666667 0.012666666666667,0.056646666666667 0,0.056828 l 4.0890546666667,7.3191057333333 c 0.55162133333333,0.98601186666667 0.153748,2.1504786666667 -0.511132,3.1205493333333 -0.671496,0.97967466666667 -1.711952,1.9288853333333 -3.066792,2.6666506666667 -1.3577466666667,0.73934533333333 -2.7818653333333,1.0944213333333 -3.9754692,1.1347453333333 -1.1909870666667,0.040306666666667 -2.3088982666667,-0.29940933333333 -2.8396212,-1.24822 L 5.8196149333333,9.5867957333333 c -0.023444,-0.0036266666666667 -0.0607,0.0036266666666667 -0.056882666666667,0 0.037437333333333,-0.039942666666667 0.0072666666666667,0.029049333333333 0,0.056828 -0.754058,3.2465148 -0.36296266666667,6.9988349333333 1.0222636,9.4751216 1.8948133333333,3.3872773333333 5.8508192,5.0051333333333 9.7682961333333,4.3120306666667 3.8990866666667,-0.69722266666667 7.2330106666667,-4.0908373333333 8.0645253333333,-7.3191053333333 0.525052,-2.0908 0.301372,-4.3377037333333 -0.79509466666667,-6.2978350666667 C 22.441258666667,7.3443216 19.402237333333,5.0187477333333 16.212537333333,3.9131610666667 l 9.2E-5,-0.00018146666666667 z" style="fill:url(#linearGradient4734);fill-opacity:1;fill-rule:evenodd;stroke:none;display:inline;enable-background:new"/><path id="path4756" d="m 18.25,5.9583333333333 2.75,4.9166666666667 c 0.775212,1.3856653333333 0.212628,2.8995106666667 -0.54166666666667,4 -0.76209066666667,1.111856 -1.87594,2.0813946666667 -3.3333333333333,2.875 -1.4635186666667,0.79693866666667 -2.9804013333333,1.2459613333333 -4.3333333333333,1.2916666666667 -1.3547310666667,0.045786666666667 -2.8554089333333,-0.365312 -3.5833333333333,-1.6666666666667 L 6.375,12.25 c -0.121036,2.3931493333333 0.15602666666667,4.8006133333333 1.0833333333333,6.4583333333333 1.7091704,3.0554066666667 5.3135369333333,4.554152 8.9166666666667,3.9166666666667 0.26377066666667,-0.052053333333333 0.537964,-0.0056 0.79166666666667,0.083333333333333 1.9529146666667,0.65634133333333 4.3912293333333,1.9961293333333 7.2083333333333,4.7916666666667 l 1.3333333333333,1.3333333333333 4.125,-4.125 -1.2916666666667,-1.2916666666667 c -2.539884,-2.520416 -3.9312906666667,-4.745584 -4.6666666666667,-6.5833333333333 C 23.764146666667,16.545961333333 23.759186666667,16.257237333333 23.833333333333,15.958333333333 24.311066666667,14.055969333333 24.11168,11.972204666667 23.125,10.208333333333 22.223209333333,8.5962745333333 20.323622666667,7.1246406666667 18.25,5.9583333333333 z" style="fill:none;stroke:url(#linearGradient4758);stroke-width:.93333316;stroke-linecap:round;stroke-linejoin:miter;stroke-miterlimit:4;stroke-opacity:1;stroke-dasharray:none;stroke-dashoffset:.3612;display:inline;enable-background:new"/><path id="rect7166" d="m 24.166666666667,21.708333333333 c -0.18254,0.015626666666667 -0.343696,0.052133333333333 -0.45833333333333,0.16666666666667 l -0.83333333333333,0.875 c -0.45855066666667,0.45810533333333 -0.12434666666667,1.5848746666667 0.79166666666667,2.5 l 2.8333333333333,2.7916666666667 2.5,-2.5416666666667 -2.7916666666667,-2.7916666666667 c -0.687012,-0.686344 -1.4940453333333,-1.046888 -2.0416666666667,-1 z" style="opacity:.07999998;fill:#000;fill-opacity:1;fill-rule:evenodd;stroke:none;display:inline;enable-background:new"/><path id="path5331" d="M 16,59.333336 A 8.0000002666667,3.3333336 0 1 1 -2.8677066666667E-8,59.333336 8.0000002666667,3.3333336 0 1 1 16,59.333336 z" style="opacity:.25;fill:url(#radialGradient2921);fill-opacity:1;stroke:none"/><path id="path6769" d="m 10.830863333333,59.82272 a 3.1304309333333,1.2587262666667 0 1 1 -6.2608617333333,0 3.1304309333333,1.2587262666667 0 1 1 6.2608617333333,0 z" style="opacity:.3;fill:url(#radialGradient2918);fill-opacity:1;stroke:none"/><path id="path6765" d="m 63.999938666667,58.666665333333 a 9.9999693333333,4.0000010666667 0 0 1 -19.999938666667,0 9.9999693333333,4.0000010666667 0 1 1 19.999938666667,0 z" style="opacity:.25;fill:url(#radialGradient2915);fill-opacity:1;stroke:none"/><path id="path6773" d="m 58.545397333333,59.198085333333 a 4.0908953333333,1.5104726666667 0 1 1 -8.1817906666667,0 4.0908953333333,1.5104726666667 0 1 1 8.1817906666667,0 z" style="opacity:.3;fill:url(#radialGradient2912);fill-opacity:1;stroke:none"/><path id="path6899" d="m 23.370528,27.819292 28.360649333333,30.260850666667 c 1.8604333333333,1.85918 5.045628,1.6157746666667 7.1726933333333,-0.50984533333333 2.127064,-2.1256266666667 2.3706266666667,-5.3086573333333 0.510192,-7.1678333333333 L 29.132692,22.061033333333 23.370501333333,27.819265333333 z m 29.771177333333,23.992745333333 c 1.0574213333333,-1.0567026666667 2.7840253333333,-1.0567026666667 3.841444,0 1.0574186666667,1.056704 1.0574186666667,2.7821373333333 1.3333333333333E-6,3.8388386666667 -1.0574213333333,1.0567 -2.784024,1.0567026666667 -3.8414453333333,0 -1.0574173333333,-1.056704 -1.0574186666667,-2.7821346666667 0,-3.8388386666667 z" style="fill:url(#linearGradient4668);fill-opacity:1;stroke:url(#linearGradient4972);stroke-width:1.3328437066667;stroke-linecap:round;stroke-linejoin:round;stroke-miterlimit:4;stroke-opacity:1;stroke-dasharray:none;stroke-dashoffset:.7;display:inline;enable-background:new"/><path id="rect6533" d="m 28.62094,27.371006666667 c 0.73933066666667,-0.73814533333333 2.0926626666667,-0.575444 3.0343826666667,0.3648 l 19.588928,17.778989333333 c 0.94171333333333,0.940252 0.21402266666667,3.181684 -0.525308,3.9198293333333 -0.739336,0.73815333333333 -2.9837826666667,1.4661733333333 -3.9254986666667,0.52592533333333 L 28.986245333333,30.400614666667 C 28.044533333333,29.46036 27.881604,28.109161333333 28.62094,27.371006666667 z" style="opacity:.23106061;fill:url(#linearGradient4665);fill-opacity:1;stroke:none;display:inline"/><rect id="rect5288" width="12.341" height="40.023" x="-51.381" y="-2.817" rx="5.276" ry="5.276" transform="matrix(-0.71097924,-0.703213,0.70748499,-0.70672837,0,0)" style="fill:url(#linearGradient5007);fill-opacity:1;stroke:url(#linearGradient5009);stroke-width:1.3335816;stroke-linecap:round;stroke-linejoin:round;stroke-miterlimit:4;stroke-opacity:1;stroke-dasharray:none"/><path id="path4983" d="m 37.333333333333,30 a 2.6666666666667,3.3333333333333 0 1 1 -5.3333333333333,0 2.6666666666667,3.3333333333333 0 1 1 5.3333333333333,0 z" transform="matrix(-1.2190264,-1.2555774,0.57397825,-0.55726921,58.966150666667,90.187088)" style="opacity:.3;fill:url(#radialGradient5017);fill-opacity:1;stroke:none"/><rect id="rect5292" width="9.571" height="37.251" x="-49.996" y="-1.523" rx="3.957" ry="3.957" transform="matrix(-0.71239463,-0.70177909,0.70750329,-0.70671005,0,0)" style="opacity:.6;fill:none;stroke:url(#radialGradient5004);stroke-width:1.3333549466667;stroke-linecap:round;stroke-linejoin:round;stroke-miterlimit:4;stroke-opacity:1;stroke-dasharray:none"/><path id="path5286" d="M 6.1626545333333,60.666548 12.7117768,56.142326666667 13.506764,53.410694666667 33.806722666667,33.078850666667 c 1.380656,-1.5567653333333 -1.2225333333333,-4.3192466666667 -2.9483506666667,-2.93546 L 10.550764533333,50.447988 7.8068168,51.226237333333 3.3329734666667,57.801989333333 c 0,0 2.8296810666667,2.8645586666667 2.8296810666667,2.8645586666667 z" style="fill:url(#linearGradient4999);fill-opacity:1;stroke:url(#linearGradient5001);stroke-width:1.3333333333333;stroke-linecap:round;stroke-linejoin:round;stroke-miterlimit:4;stroke-opacity:1;stroke-dasharray:none"/><rect id="rect2804" width="1.963" height="30.408" x="-49.915" y="3.236" rx="1.319" ry="1.451" transform="matrix(-0.71258595,-0.70158482,0.70777179,-0.70644115,0,0)" style="opacity:.3;fill:url(#linearGradient4996);fill-opacity:1;stroke:none"/><rect id="rect5290" width="2.692" height="30.293" x="-46.613" y="4.714" rx="1.319" ry="1.451" transform="matrix(-0.71337531,-0.70078219,0.70733391,-0.70687958,0,0)" style="opacity:.3;fill:url(#linearGradient4993);fill-opacity:1;stroke:none"/><rect id="rect5398" width="1.963" height="30.408" x="-42.442" y="3.302" rx="1.319" ry="1.451" transform="matrix(-0.71258595,-0.70158482,0.70777179,-0.70644115,0,0)" style="opacity:.25;fill:url(#linearGradient4990);fill-opacity:1;stroke:none"/><path id="path5450" d="M 6.2279134666667,59.751817333333 12.057460533333,55.840738666667 12.7100976,53.351957333333 C 13.24694,52.731082666667 11.1419868,50.770557333333 10.574503333333,51.211517333333 l -2.4526377333333,0.684696 -3.9021426666667,5.842856 c 0.7661112,0.767848 1.2420798666667,1.2448973333333 2.0081905333333,2.012748 z" style="fill:url(#linearGradient4987);fill-opacity:1;stroke:none"/><path id="path4979" d="m 32.956866666667,32.153348 c 0.10228,-0.51046 -0.60924533333333,-1.1497426666667 -1.0968586666667,-1.14804 -6.8925013333333,6.69416 -13.791910666667,13.733673333333 -20.580596666667,20.537045333333 l -2.7152844,0.81796533333333 c -1.1912453333333,1.7509933333333 -2.3824906666667,3.5019853333333 -3.5737358666667,5.2529786666667 0.45073533333333,0.465276 0.90146933333333,0.93055333333333 1.3522048,1.3958293333333 1.7738594666667,-1.2213506666667 3.5477204,-2.4427013333333 5.32158,-3.664052 0.242202,-0.76496933333333 0.41124613333333,-1.5731093333333 0.69791213333333,-2.3118413333333" style="opacity:.7;fill:none;stroke:#fff;stroke-width:1.3333333333333;stroke-linecap:round;stroke-linejoin:round;stroke-miterlimit:4;stroke-opacity:1"/></svg>