<svg xmlns="http://www.w3.org/2000/svg" xmlns:svg="http://www.w3.org/2000/svg" xmlns:xlink="http://www.w3.org/1999/xlink" id="svg3823" width="64" height="64" version="1.0"><defs id="defs3825"><linearGradient id="linearGradient3484"><stop id="stop3486" style="stop-color:#bdbdbd;stop-opacity:1" offset="0"/><stop id="stop3488" style="stop-color:#d0d0d0;stop-opacity:1" offset="1"/></linearGradient><radialGradient id="radialGradient2833" cx="4" cy="6.69" r="28" fx="4" fy="6.69" gradientTransform="matrix(-1.274898e-8,1.7142916,-2.159331,-1.4599595e-8,17.079148,3.8093348)" gradientUnits="userSpaceOnUse" xlink:href="#linearGradient3484"/><linearGradient id="linearGradient6404"><stop id="stop6406" style="stop-color:#f9f9f9;stop-opacity:1" offset="0"/><stop id="stop6408" style="stop-color:#c9c9c9;stop-opacity:1" offset="1"/></linearGradient><linearGradient id="linearGradient2831" x1="83.985" x2="83.985" y1="24" y2="28.01" gradientTransform="translate(-67.921197333333,0)" gradientUnits="userSpaceOnUse" xlink:href="#linearGradient6404"/><linearGradient id="linearGradient5060-820"><stop id="stop2681" style="stop-color:black;stop-opacity:1" offset="0"/><stop id="stop2683" style="stop-color:black;stop-opacity:0" offset="1"/></linearGradient><radialGradient id="radialGradient7600-312" cx="807.619" cy="648.864" r="156.19" fx="807.619" fy="648.864" gradientTransform="matrix(-0.03212956,0,0,0.03705882,31.150953333333,33.883281333333)" gradientUnits="userSpaceOnUse" xlink:href="#linearGradient5060-820"/><linearGradient id="linearGradient5060-179"><stop id="stop2675" style="stop-color:black;stop-opacity:1" offset="0"/><stop id="stop2677" style="stop-color:black;stop-opacity:0" offset="1"/></linearGradient><radialGradient id="radialGradient7598-526" cx="807.619" cy="648.864" r="156.19" fx="807.619" fy="648.864" gradientTransform="matrix(0.03212956,0,0,0.03705882,32.849046666667,33.883281333333)" gradientUnits="userSpaceOnUse" xlink:href="#linearGradient5060-179"/><linearGradient id="linearGradient5048-585"><stop id="stop2667" style="stop-color:black;stop-opacity:0" offset="0"/><stop id="stop2669" style="stop-color:black;stop-opacity:1" offset=".5"/><stop id="stop2671" style="stop-color:black;stop-opacity:0" offset="1"/></linearGradient><linearGradient id="linearGradient7596-975" x1="403.81" x2="403.81" y1="488.864" y2="812.673" gradientTransform="matrix(0.08284024,0,0,0.03705882,-7.9211046666667,33.883281333333)" gradientUnits="userSpaceOnUse" xlink:href="#linearGradient5048-585"/><linearGradient id="linearGradient2264-691-644-798-66-603"><stop id="stop3706" style="stop-color:white;stop-opacity:1" offset="0"/><stop id="stop3708" style="stop-color:#a2a2a2;stop-opacity:1" offset="1"/></linearGradient><linearGradient id="linearGradient2803-447-221-60-703-383" x1="10.993" x2="63.43" y1="31.855" y2="31.855" gradientTransform="matrix(0,0.5567853,0.5581051,0.0036,14.221778666667,-0.146752)" gradientUnits="userSpaceOnUse" xlink:href="#linearGradient2264-691-644-798-66-603"/><linearGradient id="linearGradient4222"><stop id="stop4224" style="stop-color:white;stop-opacity:1" offset="0"/><stop id="stop4226" style="stop-color:white;stop-opacity:0" offset="1"/></linearGradient><linearGradient id="linearGradient2800" x1="54.566" x2="-15.022" y1="36.709" y2="36.709" gradientTransform="matrix(0,-0.6696118,0.6680999,0.01710833,8.905152,38.697018666667)" gradientUnits="userSpaceOnUse" xlink:href="#linearGradient4222"/><linearGradient id="linearGradient6087-437-184-795-110"><stop id="stop4655" style="stop-color:white;stop-opacity:1" offset="0"/><stop id="stop4657" style="stop-color:white;stop-opacity:0" offset="1"/></linearGradient><radialGradient id="radialGradient2603" cx="9.686" cy="11.07" r="27.973" fx="9.686" fy="11.07" gradientTransform="matrix(0,0.9862682,-1.6271642,0,-33.502725333333,18.134294666667)" gradientUnits="userSpaceOnUse" xlink:href="#linearGradient6087-437-184-795-110"/><linearGradient id="linearGradient8265-821-176-38-919"><stop id="stop4667" style="stop-color:white;stop-opacity:1" offset="0"/><stop id="stop4669" style="stop-color:white;stop-opacity:0" offset="1"/></linearGradient><linearGradient id="linearGradient2601" x1="17.44" x2="21.816" y1="27.64" y2="43.972" gradientTransform="matrix(1.1446925,0,0,0.8040948,-73.286577333333,10.5421888)" gradientUnits="userSpaceOnUse" xlink:href="#linearGradient8265-821-176-38-919"/><linearGradient id="linearGradient6129-963-697-142-998"><stop id="stop4661" style="stop-color:black;stop-opacity:.498" offset="0"/><stop id="stop4663" style="stop-color:black;stop-opacity:0" offset="1"/></linearGradient><linearGradient id="linearGradient2599" x1="30.58" x2="30.413" y1="66.172" y2="48.877" gradientTransform="matrix(1.1446925,0,0,0.8146303,-73.286577333333,10.331478)" gradientUnits="userSpaceOnUse" xlink:href="#linearGradient6129-963-697-142-998"/><linearGradient id="linearGradient3390-178-986-453"><stop id="stop3624" style="stop-color:#bb5e12;stop-opacity:1" offset="0"/><stop id="stop3626" style="stop-color:#cd8033;stop-opacity:1" offset="1"/></linearGradient><linearGradient id="linearGradient2597" x1="46.606" x2="33.965" y1="60.152" y2="27.974" gradientTransform="translate(-68.669526666667,-1.7824657333333)" gradientUnits="userSpaceOnUse" xlink:href="#linearGradient3390-178-986-453"/><linearGradient id="linearGradient7012-661-145-733-759-865-745-661-970-94"><stop id="stop3618" style="stop-color:#edd563;stop-opacity:1" offset="0"/><stop id="stop3620" style="stop-color:#e08223;stop-opacity:1" offset="1"/></linearGradient><radialGradient id="radialGradient2595" cx="18.476" cy="26.059" r="32.13" fx="18.476" fy="26.059" gradientTransform="matrix(1.4880117,0,0,0.7912602,-77.686124,12.6457356)" gradientUnits="userSpaceOnUse" xlink:href="#linearGradient7012-661-145-733-759-865-745-661-970-94"/></defs><g id="layer1"><path id="path3468" d="m 4.6749997333333,11.333332666667 c -0.92036133333333,0.010226666666667 -1.3339224,0.4561948 -1.3339224,1.3333333333333 0,7.352606 0.035037333333333,12.986102 -0.0077466666666667,19.667240666667 C 5.2472942666667,32.333906666667 60,32.790042666667 60,30.666666666667 l 0.666664,-13.991137333333 c 0,-0.87713733333333 -0.73893866666667,-1.3435613333333 -1.6593053333333,-1.3333333333333 l -27.007358666667,0 c -2.7299773333333,0 -4.665188,-4.0088633333333 -6.6666666666667,-4.0088633333333 l -20.6583336,0 z" style="fill:url(#linearGradient2831);fill-opacity:1;stroke:url(#radialGradient2833);stroke-width:1.3333334933333;stroke-linecap:round;stroke-linejoin:round;stroke-miterlimit:4;stroke-opacity:1;stroke-dasharray:none;display:inline"/><g id="g7591" transform="matrix(0.9583333,0,0,0.6666667,1.3333344,20)" style="opacity:.4"><rect id="rect4173" width="53.333" height="12" x="5.333" y="52" style="fill:url(#linearGradient7596-975);fill-opacity:1;fill-rule:nonzero;stroke:none;stroke-width:1.3333333333333;marker:none;visibility:visible;display:inline;overflow:visible"/><path id="path5058" d="m 58.666666666667,52.000413333333 c 0,0 0,11.999338666667 0,11.999338666667 2.206124,0.022586666666667 5.3333346666667,-2.688444 5.3333333333333,-6.0004413333333 0,-3.3119986666667 -2.4618693333333,-5.9988973333333 -5.3333333333333,-5.9988973333333 z" style="fill:url(#radialGradient7598-526);fill-opacity:1;fill-rule:nonzero;stroke:none;stroke-width:1.3333333333333;marker:none;visibility:visible;display:inline;overflow:visible"/><path id="path5018" d="m 5.3333333333333,52.000413333333 c 0,0 0,11.999338666667 0,11.999338666667 C 3.1272090666667,64.02234 0,61.311308 0,57.999310666667 0,54.687312 2.4618677333333,52.000413333333 5.3333333333333,52.000413333333 z" style="fill:url(#radialGradient7600-312);fill-opacity:1;fill-rule:nonzero;stroke:none;stroke-width:1.3333333333333;marker:none;visibility:visible;display:inline;overflow:visible"/></g><rect id="rect3562" width="17.333" height="2.667" x="6.667" y="13.333" rx="1.333" ry="1.333" style="fill:#edbd74;fill-opacity:1;fill-rule:nonzero;stroke:none;stroke-width:1.3333333333333;marker:none;visibility:visible;display:block;overflow:visible;enable-background:accumulate"/><path id="path5656" d="M 17.333288,17.994262666667 32.036848,1.3275506266667 46.666712,17.994262666667 l -7.3333786666667,0 0,31.333378666667 -14.666666666667,-0.098 0,-31.23538 -7.3333786666667,0 z" style="fill:url(#linearGradient2803-447-221-60-703-383);fill-opacity:1;fill-rule:nonzero;stroke:#7f7f7f;stroke-width:1.3332428933333;stroke-linecap:butt;stroke-linejoin:round;stroke-miterlimit:4;stroke-opacity:1;stroke-dasharray:none;stroke-dashoffset:0;marker:none;visibility:visible;display:inline;overflow:visible"/><path id="path4360" d="M 20.312078666667,16.660929333333 32,3.3572533333333 l 11.708821333333,13.303676 -5.7088213333333,0 0,32.053468 -12,-0.34167466666667 0,-31.711793333333 -5.6879213333333,0 z" style="opacity:.4;fill:none;stroke:url(#linearGradient2800);stroke-width:1.3332428933333;stroke-linecap:butt;stroke-linejoin:miter;stroke-miterlimit:4;stroke-opacity:1;stroke-dasharray:none;stroke-dashoffset:0;marker:none;visibility:visible;display:inline;overflow:visible"/><g id="g2629" transform="translate(68.669526666667,1.6302037333333)"><path id="path7314" d="m -67.249056,26.884201333333 c -1.430276,0.134656 -0.665964,1.705628 -0.78,2.4882306666667 0.40061466666667,1.6226253333333 2.6352293333333,25.911824 2.9056666666667,27.662076 0.45578133333333,1.0512706666667 2.125912,0.51291333333333 3.184156,0.64636666666667 17.591392,0 35.182785333333,0 52.774177333333,0 1.4525053333333,-0.11610666666667 0.84860933333333,-1.532428 1.0529373333333,-2.3429933333333 0.082756,-1.179396 2.2754213333333,-19.653014666667 2.9057293333333,-27.662076 -0.334896,-1.0388573333333 -1.9836626666667,-0.791604 -3.0173333333333,-0.791604 -18.785837333333,0 -40.239496,0 -59.025333333333,0 z" style="fill:url(#radialGradient2595);fill-opacity:1;stroke:url(#linearGradient2597);stroke-width:1.3333336533333;stroke-linecap:round;stroke-linejoin:round;stroke-miterlimit:4;stroke-opacity:1;stroke-dashoffset:0"/><path id="path2541" d="m -67.254389333333,26.624084 61.196,0.00044 c 0.84554666666667,0 1.3933333333333,0.484012 1.3933333333333,1.085752 l -2.992484,29.326673333333 c 0,0.60174 -0.68070933333333,1.0861733333333 -1.5262533333333,1.0861733333333 l -54.945246666667,0 c -0.84554666666667,0 -1.5262573333333,-0.48443333333333 -1.5262573333333,-1.0861733333333 l -2.9924253333333,-29.326690666667 c 0,-0.60174133333333 0.54778666666667,-1.0861746666667 1.3933333333333,-1.0861746666667 z" style="opacity:.4;fill:url(#linearGradient2599);fill-opacity:1;stroke:none"/><path id="path8263" d="m -67.254389333333,26.217534666667 61.196,0 c 0.84554666666667,0 1.3933333333333,0.88520933333333 1.3933333333333,1.4791693333333 l -0.61333333333333,8.0038866666667 -62.457333333333,7.771384 -0.912,-15.775765333333 c 0,-0.59395733333333 0.54778666666667,-1.4786746666667 1.3933333333333,-1.4786746666667 z" style="opacity:.2;fill:url(#linearGradient2601);fill-opacity:1;stroke:none"/><path id="path2544" d="m -6.665056,28.217534666667 c -18.041666666667,0 -41.958333333333,0 -60,0 0.29357866666667,1.1908866666667 2.5696133333333,26.253950666667 2.9733466666667,28.215922666667" style="opacity:.4;fill:none;stroke:url(#radialGradient2603);stroke-width:1.3333330933333;stroke-linecap:round;stroke-linejoin:round;stroke-miterlimit:4;stroke-opacity:1;stroke-dasharray:none"/></g></g></svg>